<svg id="svg" version="1.1" xmlns="http://www.w3.org/2000/svg" xmlns:xlink="http://www.w3.org/1999/xlink" width="400" height="400" viewBox="0, 0, 400,400"><g id="svgg"><path id="path0" d="M195.255 1.100 C 193.295 2.996,193.200 3.471,193.200 11.379 C 193.200 19.466,193.249 19.684,195.578 21.893 C 197.845 24.043,202.660 23.776,205.069 21.367 C 205.581 20.855,206.000 20.169,206.000 19.842 C 206.000 19.515,206.180 19.136,206.400 19.000 C 206.943 18.665,206.943 3.600,206.400 3.600 C 206.180 3.600,206.000 3.312,206.000 2.960 C 206.000 0.060,197.799 -1.360,195.255 1.100 M189.600 36.800 C 189.600 37.037,188.133 37.200,186.000 37.200 C 183.867 37.200,182.400 37.363,182.400 37.600 C 182.400 37.826,181.267 38.000,179.800 38.000 C 178.333 38.000,177.200 38.174,177.200 38.400 C 177.200 38.620,176.300 38.800,175.200 38.800 C 174.100 38.800,173.200 38.980,173.200 39.200 C 173.200 39.420,172.480 39.600,171.600 39.600 C 170.720 39.600,170.000 39.780,170.000 40.000 C 170.000 40.220,169.280 40.400,168.400 40.400 C 167.520 40.400,166.800 40.580,166.800 40.800 C 166.800 41.020,166.377 41.200,165.860 41.200 C 165.343 41.200,164.398 41.363,163.760 41.562 C 163.122 41.761,160.980 42.428,159.000 43.044 C 157.020 43.660,155.340 44.307,155.267 44.482 C 155.193 44.657,154.709 44.800,154.190 44.800 C 153.672 44.800,153.136 44.980,153.000 45.200 C 152.864 45.420,152.403 45.600,151.976 45.600 C 151.549 45.600,151.200 45.780,151.200 46.000 C 151.200 46.220,150.928 46.400,150.595 46.400 C 150.262 46.400,149.677 46.561,149.295 46.758 C 148.913 46.955,147.340 47.719,145.800 48.456 C 144.260 49.193,142.940 49.932,142.867 50.098 C 142.793 50.264,142.388 50.400,141.967 50.400 C 141.545 50.400,141.200 50.580,141.200 50.800 C 141.200 51.020,140.922 51.200,140.583 51.200 C 140.244 51.200,139.580 51.560,139.108 52.000 C 138.636 52.440,138.013 52.800,137.725 52.800 C 137.436 52.800,137.200 52.980,137.200 53.200 C 137.200 53.420,136.922 53.600,136.583 53.600 C 136.244 53.600,135.580 53.960,135.108 54.400 C 134.636 54.840,134.013 55.200,133.725 55.200 C 133.436 55.200,133.200 55.380,133.200 55.600 C 133.200 55.820,132.964 56.000,132.675 56.000 C 132.387 56.000,131.764 56.360,131.292 56.800 C 130.820 57.240,130.308 57.600,130.154 57.600 C 130.001 57.600,129.286 58.050,128.564 58.600 C 127.843 59.150,127.061 59.600,126.827 59.600 C 126.592 59.600,126.399 59.735,126.397 59.900 C 126.396 60.065,125.721 60.649,124.897 61.198 C 124.074 61.746,122.923 62.691,122.340 63.298 C 121.756 63.904,121.107 64.400,120.897 64.400 C 119.981 64.400,103.600 80.648,103.600 81.557 C 103.600 81.748,102.880 82.645,102.000 83.552 C 101.120 84.459,100.400 85.398,100.400 85.640 C 100.400 85.881,99.860 86.583,99.200 87.200 C 98.540 87.817,98.000 88.569,98.000 88.872 C 98.000 89.175,97.640 89.683,97.200 90.000 C 96.760 90.317,96.400 90.857,96.400 91.200 C 96.400 91.543,96.040 92.083,95.600 92.400 C 95.160 92.717,94.800 93.108,94.800 93.268 C 94.800 93.429,94.283 94.334,93.650 95.280 C 93.018 96.226,92.376 97.405,92.223 97.900 C 92.071 98.395,91.778 98.800,91.573 98.800 C 91.368 98.800,91.200 99.160,91.200 99.600 C 91.200 100.040,91.020 100.400,90.800 100.400 C 90.580 100.400,90.400 100.760,90.400 101.200 C 90.400 101.640,90.220 102.000,90.000 102.000 C 89.780 102.000,89.600 102.360,89.600 102.800 C 89.600 103.240,89.420 103.600,89.200 103.600 C 88.980 103.600,88.800 103.960,88.800 104.400 C 88.800 104.840,88.620 105.200,88.400 105.200 C 88.180 105.200,88.000 105.560,88.000 106.000 C 88.000 106.440,87.820 106.800,87.600 106.800 C 87.380 106.800,87.200 107.145,87.200 107.567 C 87.200 107.988,87.065 108.393,86.900 108.467 C 86.401 108.688,84.800 112.022,84.800 112.838 C 84.800 113.257,84.620 113.600,84.400 113.600 C 84.180 113.600,84.000 113.960,84.000 114.400 C 84.000 114.840,83.820 115.200,83.600 115.200 C 83.380 115.200,83.200 115.740,83.200 116.400 C 83.200 117.060,83.020 117.600,82.800 117.600 C 82.580 117.600,82.400 117.872,82.400 118.205 C 82.400 118.538,82.238 119.123,82.039 119.505 C 81.840 119.887,81.463 121.010,81.200 122.000 C 80.937 122.990,80.560 124.113,80.361 124.495 C 80.162 124.877,80.000 125.541,80.000 125.971 C 80.000 126.401,79.820 126.864,79.600 127.000 C 79.380 127.136,79.200 127.867,79.200 128.624 C 79.200 129.381,79.020 130.000,78.800 130.000 C 78.580 130.000,78.400 130.709,78.400 131.576 C 78.400 132.443,78.239 133.252,78.042 133.374 C 77.845 133.495,77.581 134.271,77.454 135.097 C 77.327 135.924,77.033 137.770,76.801 139.200 C 76.568 140.630,76.169 143.330,75.914 145.200 C 75.284 149.815,75.302 173.113,75.939 177.800 C 76.209 179.780,76.529 182.300,76.651 183.400 C 76.774 184.500,77.037 185.571,77.237 185.780 C 77.437 185.989,77.600 186.833,77.600 187.656 C 77.600 188.479,77.780 189.264,78.000 189.400 C 78.220 189.536,78.400 190.267,78.400 191.024 C 78.400 191.781,78.580 192.400,78.800 192.400 C 79.020 192.400,79.200 193.120,79.200 194.000 C 79.200 194.880,79.380 195.600,79.600 195.600 C 79.820 195.600,80.000 196.129,80.000 196.776 C 80.000 197.423,80.180 198.064,80.400 198.200 C 80.620 198.336,80.800 198.876,80.800 199.400 C 80.800 199.924,80.980 200.464,81.200 200.600 C 81.420 200.736,81.600 201.377,81.600 202.024 C 81.600 202.671,81.780 203.200,82.000 203.200 C 82.220 203.200,82.400 203.650,82.400 204.200 C 82.400 204.750,82.580 205.200,82.800 205.200 C 83.020 205.200,83.200 205.650,83.200 206.200 C 83.200 206.750,83.380 207.200,83.600 207.200 C 83.820 207.200,84.000 207.560,84.000 208.000 C 84.000 208.440,84.180 208.800,84.400 208.800 C 84.620 208.800,84.800 209.340,84.800 210.000 C 84.800 210.660,84.980 211.200,85.200 211.200 C 85.420 211.200,85.600 211.560,85.600 212.000 C 85.600 212.440,85.780 212.800,86.000 212.800 C 86.220 212.800,86.400 213.160,86.400 213.600 C 86.400 214.040,86.580 214.400,86.800 214.400 C 87.020 214.400,87.200 214.760,87.200 215.200 C 87.200 215.640,87.380 216.000,87.600 216.000 C 87.820 216.000,88.000 216.360,88.000 216.800 C 88.000 217.240,88.180 217.600,88.400 217.600 C 88.620 217.600,88.800 217.960,88.800 218.400 C 88.800 218.840,88.980 219.200,89.200 219.200 C 89.420 219.200,89.600 219.560,89.600 220.000 C 89.600 220.440,89.780 220.800,90.000 220.800 C 90.220 220.800,90.400 221.160,90.400 221.600 C 90.400 222.040,90.540 222.400,90.710 222.400 C 90.881 222.400,91.376 223.208,91.810 224.196 C 92.245 225.184,92.735 225.994,92.900 225.996 C 93.065 225.998,93.200 226.236,93.200 226.525 C 93.200 226.813,93.560 227.436,94.000 227.908 C 94.440 228.380,94.800 229.004,94.800 229.295 C 94.800 229.586,95.160 230.083,95.600 230.400 C 96.040 230.717,96.400 231.257,96.400 231.600 C 96.400 231.943,96.760 232.483,97.200 232.800 C 97.640 233.117,98.000 233.625,98.000 233.928 C 98.000 234.231,98.540 234.983,99.200 235.600 C 99.860 236.217,100.400 236.897,100.400 237.112 C 100.400 237.327,101.120 238.245,102.000 239.152 C 102.880 240.059,103.600 240.901,103.600 241.023 C 103.600 241.145,104.680 242.304,106.000 243.600 C 107.320 244.896,108.400 246.144,108.400 246.375 C 108.400 246.829,109.255 247.889,111.900 250.712 C 112.835 251.711,113.600 252.729,113.600 252.975 C 113.600 253.222,113.960 253.683,114.400 254.000 C 114.840 254.317,115.200 254.807,115.200 255.088 C 115.200 255.370,115.380 255.600,115.600 255.600 C 115.820 255.600,116.000 255.870,116.000 256.200 C 116.000 256.530,116.180 256.800,116.400 256.800 C 116.620 256.800,116.800 257.030,116.800 257.312 C 116.800 257.593,117.160 258.083,117.600 258.400 C 118.040 258.717,118.400 259.297,118.400 259.688 C 118.400 260.080,118.580 260.400,118.800 260.400 C 119.020 260.400,119.200 260.636,119.200 260.925 C 119.200 261.213,119.560 261.836,120.000 262.308 C 120.440 262.780,120.800 263.444,120.800 263.783 C 120.800 264.122,120.980 264.400,121.200 264.400 C 121.420 264.400,121.600 264.760,121.600 265.200 C 121.600 265.640,121.780 266.000,122.000 266.000 C 122.220 266.000,122.400 266.360,122.400 266.800 C 122.400 267.240,122.580 267.600,122.800 267.600 C 123.020 267.600,123.200 268.039,123.200 268.576 C 123.200 269.113,123.380 269.664,123.600 269.800 C 123.820 269.936,124.000 270.397,124.000 270.824 C 124.000 271.251,124.139 271.600,124.309 271.600 C 124.479 271.600,124.842 272.455,125.116 273.500 C 125.390 274.545,125.808 276.030,126.045 276.800 C 126.281 277.570,126.567 278.785,126.681 279.500 C 126.795 280.215,127.030 280.800,127.203 280.800 C 127.500 280.800,127.643 281.563,128.239 286.300 C 128.370 287.345,128.640 288.371,128.839 288.580 C 129.037 288.789,129.200 290.353,129.200 292.056 C 129.200 293.759,129.380 295.264,129.600 295.400 C 129.853 295.556,130.000 300.196,130.000 308.000 C 130.000 315.804,130.147 320.444,130.400 320.600 C 130.620 320.736,130.800 321.467,130.800 322.224 C 130.800 322.981,130.980 323.600,131.200 323.600 C 131.420 323.600,131.600 324.039,131.600 324.576 C 131.600 325.113,131.780 325.664,132.000 325.800 C 132.220 325.936,132.400 326.397,132.400 326.824 C 132.400 327.251,132.580 327.600,132.800 327.600 C 133.020 327.600,133.200 327.920,133.200 328.312 C 133.200 328.703,133.560 329.283,134.000 329.600 C 134.440 329.917,134.800 330.409,134.800 330.694 C 134.800 331.300,141.397 338.000,141.994 338.000 C 142.217 338.000,142.400 338.161,142.400 338.358 C 142.400 338.923,147.311 341.144,149.242 341.453 C 152.166 341.921,152.000 340.700,152.000 361.771 C 152.000 374.190,152.139 380.800,152.400 380.800 C 152.620 380.800,152.800 381.340,152.800 382.000 C 152.800 382.660,152.980 383.200,153.200 383.200 C 153.420 383.200,153.600 383.543,153.600 383.962 C 153.600 384.869,155.208 388.000,155.674 388.000 C 155.853 388.000,156.000 388.320,156.000 388.712 C 156.000 389.103,156.360 389.683,156.800 390.000 C 157.240 390.317,157.600 390.722,157.600 390.899 C 157.600 391.319,161.081 394.800,161.501 394.800 C 161.678 394.800,162.083 395.160,162.400 395.600 C 162.717 396.040,163.257 396.400,163.600 396.400 C 163.943 396.400,164.483 396.760,164.800 397.200 C 165.117 397.640,165.686 398.000,166.065 398.000 C 166.443 398.000,166.864 398.180,167.000 398.400 C 167.136 398.620,167.672 398.800,168.190 398.800 C 168.709 398.800,169.208 399.025,169.300 399.300 C 169.544 400.033,230.456 400.033,230.700 399.300 C 230.792 399.025,231.212 398.800,231.633 398.800 C 232.055 398.800,232.400 398.620,232.400 398.400 C 232.400 398.180,232.634 398.000,232.920 398.000 C 233.656 398.000,235.593 397.059,235.597 396.700 C 235.599 396.535,235.870 396.400,236.200 396.400 C 236.703 396.400,237.575 395.695,240.521 392.904 C 241.863 391.633,244.000 388.937,244.000 388.516 C 244.000 388.232,244.180 388.000,244.400 388.000 C 244.620 388.000,244.800 387.640,244.800 387.200 C 244.800 386.760,244.980 386.400,245.200 386.400 C 245.420 386.400,245.600 386.040,245.600 385.600 C 245.600 385.160,245.780 384.800,246.000 384.800 C 246.220 384.800,246.400 384.451,246.400 384.024 C 246.400 383.597,246.580 383.136,246.800 383.000 C 247.020 382.864,247.200 382.133,247.200 381.376 C 247.200 380.619,247.380 380.000,247.600 380.000 C 247.861 380.000,248.000 373.524,248.000 361.371 C 248.000 340.892,247.913 341.600,250.442 341.600 C 251.940 341.600,257.363 339.050,258.718 337.709 C 259.223 337.209,259.793 336.800,259.986 336.800 C 260.463 336.800,263.600 333.754,263.600 333.291 C 263.600 333.086,264.140 332.354,264.800 331.663 C 265.460 330.972,266.000 330.136,266.000 329.804 C 266.000 329.472,266.180 329.200,266.400 329.200 C 266.620 329.200,266.800 328.840,266.800 328.400 C 266.800 327.960,266.980 327.600,267.200 327.600 C 267.420 327.600,267.600 327.240,267.600 326.800 C 267.600 326.360,267.780 326.000,268.000 326.000 C 268.220 326.000,268.400 325.651,268.400 325.224 C 268.400 324.797,268.580 324.336,268.800 324.200 C 269.020 324.064,269.200 323.434,269.200 322.800 C 269.200 322.166,269.380 321.536,269.600 321.400 C 269.853 321.243,270.000 316.404,270.000 308.200 C 270.000 299.996,270.147 295.157,270.400 295.000 C 270.620 294.864,270.800 293.244,270.800 291.400 C 270.800 289.556,270.980 287.936,271.200 287.800 C 271.420 287.664,271.600 286.764,271.600 285.800 C 271.600 284.836,271.761 283.948,271.958 283.826 C 272.155 283.705,272.418 282.929,272.542 282.103 C 273.072 278.593,273.308 277.580,273.644 277.373 C 273.840 277.252,274.000 276.724,274.000 276.200 C 274.000 275.676,274.170 275.142,274.377 275.014 C 274.584 274.886,274.875 273.976,275.022 272.991 C 275.170 272.006,275.450 271.200,275.645 271.200 C 275.840 271.200,276.000 270.750,276.000 270.200 C 276.000 269.650,276.180 269.200,276.400 269.200 C 276.620 269.200,276.800 268.840,276.800 268.400 C 276.800 267.960,276.980 267.600,277.200 267.600 C 277.420 267.600,277.600 267.240,277.600 266.800 C 277.600 266.360,277.780 266.000,278.000 266.000 C 278.220 266.000,278.400 265.640,278.400 265.200 C 278.400 264.760,278.580 264.400,278.800 264.400 C 279.020 264.400,279.200 264.040,279.200 263.600 C 279.200 263.160,279.380 262.800,279.600 262.800 C 279.820 262.800,280.000 262.522,280.000 262.183 C 280.000 261.844,280.360 261.180,280.800 260.708 C 281.240 260.236,281.600 259.613,281.600 259.325 C 281.600 259.036,281.780 258.800,282.000 258.800 C 282.220 258.800,282.400 258.530,282.400 258.200 C 282.400 257.870,282.550 257.600,282.732 257.600 C 282.915 257.600,283.320 257.108,283.632 256.507 C 283.945 255.906,284.695 254.889,285.300 254.248 C 285.905 253.606,286.400 252.932,286.400 252.750 C 286.400 252.568,287.375 251.396,288.566 250.147 C 289.757 248.897,290.972 247.411,291.266 246.844 C 291.560 246.278,292.880 244.707,294.200 243.354 C 297.214 240.266,299.600 237.502,299.600 237.101 C 299.600 236.931,300.140 236.228,300.800 235.537 C 301.460 234.846,302.000 234.078,302.000 233.829 C 302.000 233.580,302.360 233.117,302.800 232.800 C 303.240 232.483,303.600 231.943,303.600 231.600 C 303.600 231.257,303.960 230.717,304.400 230.400 C 304.840 230.083,305.200 229.586,305.200 229.295 C 305.200 229.004,305.560 228.380,306.000 227.908 C 306.440 227.436,306.800 226.813,306.800 226.525 C 306.800 226.236,306.940 226.000,307.110 226.000 C 307.281 226.000,307.776 225.192,308.210 224.204 C 308.645 223.216,309.135 222.406,309.300 222.404 C 309.465 222.402,309.600 222.040,309.600 221.600 C 309.600 221.160,309.780 220.800,310.000 220.800 C 310.220 220.800,310.400 220.440,310.400 220.000 C 310.400 219.560,310.580 219.200,310.800 219.200 C 311.020 219.200,311.200 218.840,311.200 218.400 C 311.200 217.960,311.380 217.600,311.600 217.600 C 311.820 217.600,312.000 217.240,312.000 216.800 C 312.000 216.360,312.180 216.000,312.400 216.000 C 312.620 216.000,312.800 215.640,312.800 215.200 C 312.800 214.760,312.980 214.400,313.200 214.400 C 313.420 214.400,313.600 214.040,313.600 213.600 C 313.600 213.160,313.780 212.800,314.000 212.800 C 314.220 212.800,314.400 212.440,314.400 212.000 C 314.400 211.560,314.580 211.200,314.800 211.200 C 315.020 211.200,315.200 210.660,315.200 210.000 C 315.200 209.340,315.335 208.799,315.500 208.797 C 315.906 208.793,316.800 206.814,316.800 205.920 C 316.800 205.524,316.980 205.200,317.200 205.200 C 317.420 205.200,317.600 204.761,317.600 204.224 C 317.600 203.687,317.780 203.136,318.000 203.000 C 318.220 202.864,318.400 202.324,318.400 201.800 C 318.400 201.276,318.580 200.736,318.800 200.600 C 319.020 200.464,319.200 199.924,319.200 199.400 C 319.200 198.876,319.380 198.336,319.600 198.200 C 319.820 198.064,320.000 197.423,320.000 196.776 C 320.000 196.129,320.180 195.600,320.400 195.600 C 320.620 195.600,320.800 194.880,320.800 194.000 C 320.800 193.120,320.980 192.400,321.200 192.400 C 321.420 192.400,321.600 191.781,321.600 191.024 C 321.600 190.267,321.780 189.536,322.000 189.400 C 322.220 189.264,322.400 188.479,322.400 187.656 C 322.400 186.833,322.563 185.989,322.763 185.780 C 323.136 185.389,323.465 183.101,323.851 178.200 C 323.972 176.660,324.239 175.197,324.444 174.949 C 324.891 174.407,324.957 148.170,324.513 147.476 C 324.345 147.214,324.078 145.830,323.918 144.400 C 323.759 142.970,323.435 140.630,323.199 139.200 C 322.963 137.770,322.669 135.835,322.545 134.900 C 322.421 133.965,322.158 133.200,321.960 133.200 C 321.762 133.200,321.600 132.480,321.600 131.600 C 321.600 130.720,321.420 130.000,321.200 130.000 C 320.980 130.000,320.800 129.381,320.800 128.624 C 320.800 127.867,320.620 127.136,320.400 127.000 C 320.180 126.864,320.000 126.234,320.000 125.600 C 320.000 124.966,319.820 124.336,319.600 124.200 C 319.380 124.064,319.200 123.423,319.200 122.776 C 319.200 122.129,319.020 121.600,318.800 121.600 C 318.580 121.600,318.400 121.238,318.400 120.795 C 318.400 120.352,318.220 119.632,318.000 119.195 C 317.780 118.758,317.420 118.042,317.200 117.605 C 316.980 117.168,316.800 116.448,316.800 116.005 C 316.800 115.562,316.620 115.200,316.400 115.200 C 316.180 115.200,316.000 114.750,316.000 114.200 C 316.000 113.650,315.820 113.200,315.600 113.200 C 315.380 113.200,315.200 112.750,315.200 112.200 C 315.200 111.650,315.020 111.200,314.800 111.200 C 314.580 111.200,314.400 110.840,314.400 110.400 C 314.400 109.960,314.220 109.600,314.000 109.600 C 313.780 109.600,313.600 109.330,313.600 109.000 C 313.600 108.670,313.420 108.400,313.200 108.400 C 312.980 108.400,312.800 108.023,312.800 107.562 C 312.800 107.101,312.468 106.246,312.063 105.662 C 311.657 105.078,311.073 104.015,310.765 103.300 C 310.457 102.585,310.069 102.000,309.902 102.000 C 309.736 102.000,309.600 101.640,309.600 101.200 C 309.600 100.760,309.420 100.400,309.200 100.400 C 308.980 100.400,308.800 100.065,308.800 99.656 C 308.800 99.247,308.350 98.249,307.800 97.438 C 307.250 96.628,306.800 95.813,306.800 95.629 C 306.800 94.110,303.522 92.400,300.611 92.400 C 298.235 92.400,297.668 92.513,297.837 92.953 C 297.954 93.257,297.568 94.022,296.980 94.653 C 294.665 97.137,294.623 99.283,296.810 103.267 C 298.464 106.281,303.814 117.094,304.446 118.700 C 305.237 120.711,305.711 121.835,306.047 122.495 C 306.241 122.877,306.400 123.464,306.400 123.800 C 306.400 124.136,306.562 124.723,306.759 125.105 C 307.265 126.086,308.583 130.679,309.970 136.300 C 310.363 137.894,310.901 140.676,311.576 144.600 C 313.889 158.070,312.761 177.065,308.827 190.900 C 308.592 191.725,308.241 192.985,308.047 193.700 C 307.458 195.872,306.398 198.959,305.987 199.695 C 305.774 200.077,305.600 200.580,305.600 200.814 C 305.600 201.048,305.240 201.984,304.800 202.894 C 304.360 203.805,304.000 204.720,304.000 204.928 C 304.000 207.143,293.949 224.311,289.084 230.406 C 287.896 231.894,284.991 235.419,284.804 235.600 C 284.690 235.710,283.157 237.420,281.398 239.400 C 279.639 241.380,278.110 243.090,277.999 243.200 C 277.888 243.310,277.051 244.390,276.137 245.600 C 269.419 254.501,264.393 264.465,261.611 274.400 C 261.334 275.390,260.970 276.650,260.803 277.200 C 260.139 279.386,259.357 283.661,258.411 290.277 C 258.185 291.859,258.000 298.586,258.000 305.225 C 258.000 316.584,257.949 317.445,257.128 319.836 C 254.789 326.651,249.108 330.587,241.600 330.596 L 238.200 330.600 238.000 277.800 L 237.800 225.000 236.887 223.019 C 236.376 221.912,234.920 220.017,233.587 218.724 L 231.200 216.410 231.200 207.552 C 231.200 202.679,231.364 198.042,231.565 197.246 C 231.766 196.451,232.140 194.810,232.396 193.600 C 234.027 185.891,240.667 171.888,243.966 169.200 C 246.528 167.112,248.400 163.382,248.400 160.362 C 248.400 157.940,248.097 157.072,245.867 153.100 C 245.280 152.055,244.375 150.435,243.856 149.500 C 243.337 148.565,242.322 146.810,241.600 145.600 C 240.879 144.390,239.978 142.860,239.599 142.200 C 237.959 139.344,234.125 133.175,232.338 130.518 C 231.272 128.933,230.400 127.463,230.400 127.251 C 230.400 127.040,230.250 126.807,230.066 126.733 C 229.883 126.660,228.410 124.620,226.793 122.200 C 225.176 119.780,222.868 116.450,221.664 114.800 C 219.250 111.492,214.076 104.552,213.317 103.603 C 213.051 103.272,212.270 102.280,211.582 101.401 C 208.615 97.611,206.960 95.894,205.431 95.021 C 200.522 92.217,195.661 93.041,191.757 97.337 C 189.014 100.357,180.672 111.074,178.009 115.000 C 177.263 116.100,176.529 117.090,176.377 117.200 C 175.874 117.564,164.863 134.386,162.151 138.933 C 158.803 144.544,158.374 145.293,154.797 151.783 C 150.142 160.229,150.259 162.631,155.604 168.273 C 165.324 178.534,168.800 189.004,168.800 208.021 L 168.800 216.703 166.666 218.526 C 165.155 219.817,164.192 221.086,163.366 222.874 L 162.200 225.400 162.074 267.600 C 161.982 297.995,162.074 310.386,162.401 311.893 C 163.389 316.454,168.430 318.064,171.647 314.847 L 173.200 313.294 173.206 284.347 C 173.209 268.426,173.356 255.174,173.532 254.897 C 173.784 254.500,179.390 254.416,200.225 254.497 L 226.600 254.600 226.703 292.200 C 226.800 327.194,226.760 329.835,226.127 330.300 C 225.096 331.058,157.439 331.014,154.583 330.253 C 151.240 329.363,149.519 328.357,146.998 325.818 C 142.486 321.274,142.000 319.164,142.000 304.102 C 142.000 298.032,141.819 291.881,141.597 290.433 C 140.331 282.154,139.904 280.043,138.518 275.200 C 134.581 261.441,127.734 249.248,117.965 238.600 C 109.969 229.885,104.162 221.618,99.611 212.472 C 97.193 207.613,96.196 205.404,94.700 201.600 C 94.484 201.050,94.148 200.287,93.953 199.905 C 93.759 199.523,93.600 198.859,93.600 198.429 C 93.600 197.999,93.420 197.536,93.200 197.400 C 92.980 197.264,92.800 196.724,92.800 196.200 C 92.800 195.676,92.644 195.151,92.454 195.033 C 92.264 194.916,91.999 194.230,91.865 193.510 C 91.732 192.789,91.247 190.850,90.787 189.200 C 86.141 172.520,86.299 149.039,91.173 131.900 C 91.408 131.075,91.759 129.815,91.953 129.100 C 92.437 127.315,93.550 124.009,94.074 122.800 C 94.534 121.738,95.110 120.315,95.613 119.000 C 98.182 112.276,106.728 96.837,108.787 95.200 C 108.925 95.090,109.471 94.370,110.000 93.600 C 110.529 92.830,111.071 92.110,111.204 92.000 C 111.337 91.890,111.722 91.396,112.059 90.903 C 112.790 89.831,117.941 84.099,120.220 81.820 C 137.865 64.175,159.848 53.187,184.600 49.642 C 196.448 47.944,209.951 48.231,220.200 50.397 C 221.080 50.583,222.880 50.952,224.200 51.217 C 243.876 55.171,263.043 65.628,279.592 81.438 C 283.923 85.576,285.110 86.072,288.062 84.978 C 289.018 84.624,290.205 84.238,290.700 84.121 C 291.239 83.992,291.600 83.605,291.600 83.153 C 291.600 82.739,291.780 82.400,292.000 82.400 C 292.616 82.400,292.474 77.870,291.817 76.561 C 291.102 75.138,286.711 70.524,284.800 69.188 C 284.030 68.650,282.451 67.262,281.291 66.105 C 280.132 64.947,279.013 64.000,278.805 64.000 C 278.597 64.000,277.824 63.415,277.087 62.700 C 276.350 61.985,275.471 61.220,275.133 61.000 C 271.917 58.903,270.981 58.232,270.867 57.940 C 270.793 57.753,270.428 57.600,270.055 57.600 C 269.682 57.600,269.117 57.240,268.800 56.800 C 268.483 56.360,267.943 56.000,267.600 56.000 C 267.257 56.000,266.717 55.640,266.400 55.200 C 266.083 54.760,265.503 54.400,265.112 54.400 C 264.720 54.400,264.400 54.220,264.400 54.000 C 264.400 53.780,264.040 53.600,263.600 53.600 C 263.160 53.600,262.800 53.420,262.800 53.200 C 262.800 52.980,262.564 52.800,262.275 52.800 C 261.987 52.800,261.364 52.440,260.892 52.000 C 260.420 51.560,259.756 51.200,259.417 51.200 C 259.078 51.200,258.800 51.020,258.800 50.800 C 258.800 50.580,258.455 50.400,258.033 50.400 C 257.612 50.400,257.207 50.265,257.133 50.100 C 256.913 49.605,251.946 47.200,251.144 47.200 C 250.735 47.200,250.400 47.020,250.400 46.800 C 250.400 46.580,250.040 46.400,249.600 46.400 C 249.160 46.400,248.800 46.253,248.800 46.072 C 248.800 45.892,247.900 45.500,246.800 45.200 C 245.700 44.900,244.800 44.508,244.800 44.328 C 244.800 44.147,244.386 44.000,243.880 44.000 C 243.374 44.000,242.789 43.848,242.580 43.663 C 242.371 43.477,241.120 43.013,239.800 42.630 C 238.480 42.248,236.878 41.770,236.240 41.567 C 235.602 41.365,234.657 41.200,234.140 41.200 C 233.623 41.200,233.200 41.020,233.200 40.800 C 233.200 40.580,232.480 40.400,231.600 40.400 C 230.720 40.400,230.000 40.220,230.000 40.000 C 230.000 39.780,229.280 39.600,228.400 39.600 C 227.520 39.600,226.800 39.420,226.800 39.200 C 226.800 38.980,225.810 38.800,224.600 38.800 C 223.390 38.800,222.400 38.620,222.400 38.400 C 222.400 38.178,221.333 38.000,220.000 38.000 C 218.667 38.000,217.600 37.822,217.600 37.600 C 217.600 37.363,216.133 37.200,214.000 37.200 C 211.867 37.200,210.400 37.037,210.400 36.800 C 210.400 36.544,206.667 36.400,200.000 36.400 C 193.333 36.400,189.600 36.544,189.600 36.800 M88.800 46.000 C 88.800 46.220,88.509 46.400,88.154 46.400 C 86.341 46.400,84.800 49.192,84.800 52.478 C 84.800 54.293,84.968 55.600,85.200 55.600 C 85.420 55.600,85.600 55.798,85.600 56.040 C 85.600 56.281,86.185 57.001,86.900 57.638 C 89.005 59.515,90.399 60.978,90.400 61.311 C 90.400 61.774,93.914 65.200,94.389 65.200 C 94.615 65.200,94.800 65.380,94.800 65.600 C 94.800 65.820,95.160 66.000,95.600 66.000 C 96.040 66.000,96.400 66.180,96.400 66.400 C 96.400 66.620,97.379 66.800,98.576 66.800 C 99.773 66.800,100.864 66.620,101.000 66.400 C 101.136 66.180,101.515 66.000,101.842 66.000 C 102.623 66.000,104.400 64.207,104.400 63.418 C 104.400 63.078,104.580 62.800,104.800 62.800 C 105.344 62.800,105.311 58.154,104.760 57.125 C 104.518 56.672,103.393 55.359,102.260 54.206 C 101.127 53.053,99.282 51.050,98.160 49.755 C 95.280 46.431,88.800 43.832,88.800 46.000 M305.438 46.535 C 304.579 47.011,302.959 48.460,301.838 49.755 C 300.717 51.050,298.873 53.053,297.740 54.206 C 296.607 55.359,295.482 56.672,295.240 57.125 C 294.689 58.154,294.656 62.800,295.200 62.800 C 295.420 62.800,295.600 63.078,295.600 63.418 C 295.600 64.207,297.377 66.000,298.158 66.000 C 298.485 66.000,298.864 66.180,299.000 66.400 C 299.136 66.620,300.227 66.800,301.424 66.800 C 302.621 66.800,303.600 66.620,303.600 66.400 C 303.600 66.180,303.960 66.000,304.400 66.000 C 304.840 66.000,305.200 65.820,305.200 65.600 C 305.200 65.380,305.392 65.200,305.626 65.200 C 306.193 65.200,309.781 61.494,310.669 59.991 C 311.056 59.336,311.514 58.800,311.687 58.800 C 311.859 58.800,312.721 58.058,313.600 57.152 C 316.538 54.125,315.277 46.400,311.846 46.400 C 311.491 46.400,311.200 46.220,311.200 46.000 C 311.200 45.246,307.075 45.629,305.438 46.535 M194.410 137.700 C 194.415 151.395,194.582 163.304,194.782 164.165 C 195.979 169.325,202.955 169.833,205.052 164.913 C 205.497 163.868,205.600 158.878,205.600 138.413 C 205.600 110.136,205.411 111.570,208.569 115.900 C 209.652 117.385,211.470 119.860,212.609 121.400 C 215.692 125.570,226.000 141.107,226.000 141.585 C 226.000 141.813,226.135 142.001,226.300 142.003 C 226.465 142.005,226.797 142.410,227.038 142.903 C 227.279 143.396,228.225 145.014,229.141 146.497 C 232.997 152.747,236.822 159.767,236.635 160.253 C 236.524 160.541,235.371 162.177,234.072 163.889 C 231.199 167.674,229.156 171.044,226.850 175.800 C 225.018 179.578,224.779 180.131,224.000 182.400 C 223.736 183.170,223.378 184.160,223.205 184.600 C 223.033 185.040,222.679 186.210,222.419 187.200 C 222.160 188.190,221.718 189.720,221.437 190.600 L 220.926 192.200 200.643 192.304 C 178.313 192.418,178.987 192.491,178.676 189.908 C 178.428 187.848,178.050 186.080,177.625 185.000 C 177.452 184.560,177.094 183.480,176.829 182.600 C 176.564 181.720,176.179 180.595,175.974 180.100 C 175.768 179.605,175.444 178.795,175.253 178.300 C 173.518 173.807,168.739 166.060,165.400 162.327 C 163.047 159.696,163.090 159.819,163.984 158.240 C 164.433 157.448,165.177 156.125,165.639 155.300 C 166.100 154.475,167.031 152.810,167.707 151.600 C 174.887 138.756,192.517 112.800,194.062 112.800 C 194.248 112.800,194.404 124.005,194.410 137.700 M42.823 158.691 C 41.889 159.059,40.400 160.712,40.400 161.382 C 40.400 161.722,40.220 162.000,40.000 162.000 C 39.771 162.000,39.600 163.200,39.600 164.800 C 39.600 166.400,39.771 167.600,40.000 167.600 C 40.220 167.600,40.400 167.894,40.400 168.253 C 40.400 169.063,42.361 170.799,43.276 170.800 C 43.648 170.800,44.064 170.980,44.200 171.200 C 44.350 171.443,47.271 171.600,51.624 171.600 C 56.141 171.600,58.800 171.452,58.800 171.200 C 58.800 170.980,59.076 170.800,59.413 170.800 C 61.324 170.800,62.800 168.164,62.800 164.751 L 62.800 161.476 61.183 159.938 L 59.566 158.400 51.483 158.432 C 47.037 158.449,43.140 158.566,42.823 158.691 M339.625 159.179 C 339.104 159.630,338.525 160.000,338.339 160.000 C 338.152 160.000,338.000 160.270,338.000 160.600 C 338.000 160.930,337.820 161.200,337.600 161.200 C 337.365 161.200,337.200 162.604,337.200 164.613 C 337.200 168.170,338.640 170.800,340.587 170.800 C 340.924 170.800,341.200 170.980,341.200 171.200 C 341.200 171.452,343.859 171.600,348.376 171.600 C 352.729 171.600,355.650 171.443,355.800 171.200 C 355.936 170.980,356.352 170.800,356.724 170.800 C 357.639 170.799,359.600 169.063,359.600 168.253 C 359.600 167.894,359.780 167.600,360.000 167.600 C 360.229 167.600,360.400 166.400,360.400 164.800 C 360.400 163.200,360.229 162.000,360.000 162.000 C 359.780 162.000,359.600 161.722,359.600 161.383 C 359.600 161.043,359.149 160.278,358.597 159.683 L 357.594 158.600 349.083 158.479 C 340.979 158.363,340.526 158.397,339.625 159.179 M219.512 203.937 C 219.896 204.181,219.996 205.644,219.912 209.831 L 219.800 215.400 200.000 215.400 L 180.200 215.400 180.088 209.831 C 180.004 205.644,180.104 204.181,180.488 203.937 C 180.770 203.758,189.550 203.612,200.000 203.612 C 210.450 203.612,219.230 203.758,219.512 203.937 M226.709 234.663 C 226.802 240.872,226.725 242.018,226.180 242.563 C 225.216 243.527,174.793 243.535,173.829 242.571 C 173.183 241.926,172.855 229.364,173.444 227.830 C 173.664 227.257,176.278 227.204,200.144 227.297 L 226.600 227.400 226.709 234.663 M95.600 263.200 C 95.600 263.420,95.384 263.600,95.120 263.600 C 94.441 263.600,85.600 272.721,85.600 273.422 C 85.600 273.740,85.420 274.000,85.200 274.000 C 84.969 274.000,84.800 275.267,84.800 277.000 C 84.800 278.733,84.969 280.000,85.200 280.000 C 85.420 280.000,85.600 280.294,85.600 280.653 C 85.600 281.502,87.070 282.764,88.374 283.035 C 88.938 283.152,89.713 283.417,90.095 283.624 C 91.010 284.120,92.400 284.105,92.400 283.600 C 92.400 283.380,92.844 283.200,93.387 283.200 C 94.453 283.200,103.643 274.509,104.669 272.531 C 107.034 267.973,103.766 262.800,98.522 262.800 C 96.841 262.800,95.600 262.970,95.600 263.200 M296.632 264.632 C 294.623 266.640,294.057 270.077,295.331 272.531 C 296.357 274.509,305.547 283.200,306.613 283.200 C 307.156 283.200,307.600 283.380,307.600 283.600 C 307.600 284.105,308.990 284.120,309.905 283.624 C 310.287 283.417,311.062 283.152,311.626 283.035 C 312.930 282.764,314.400 281.502,314.400 280.653 C 314.400 280.294,314.580 280.000,314.800 280.000 C 315.031 280.000,315.200 278.733,315.200 277.000 C 315.200 275.267,315.031 274.000,314.800 274.000 C 314.580 274.000,314.400 273.727,314.400 273.394 C 314.400 273.060,313.095 271.466,311.500 269.851 C 309.905 268.236,307.910 266.168,307.066 265.257 C 306.223 264.346,305.278 263.600,304.966 263.600 C 304.655 263.600,304.400 263.420,304.400 263.200 C 304.400 262.969,303.144 262.800,301.432 262.800 L 298.463 262.800 296.632 264.632 M235.974 352.100 C 235.928 369.334,235.474 377.498,234.442 379.654 C 232.349 384.028,228.428 387.064,223.829 387.871 C 220.191 388.510,180.251 388.597,176.412 387.974 C 169.114 386.790,164.757 381.584,164.475 373.710 L 164.314 369.221 192.986 369.110 L 221.658 369.000 223.170 367.379 C 226.109 364.228,225.402 360.010,221.615 358.100 L 219.830 357.200 192.115 357.200 L 164.400 357.200 164.400 349.800 L 164.400 342.400 200.200 342.400 L 236.000 342.400 235.974 352.100 " stroke="none" fill="#0f1016" fill-rule="evenodd"></path><path id="path1" d="M189.800 118.564 C 186.286 123.282,173.361 142.407,172.881 143.600 C 172.748 143.930,171.775 145.608,170.720 147.329 C 169.664 149.051,168.800 150.518,168.800 150.590 C 168.800 150.662,167.689 152.656,166.332 155.021 C 163.549 159.872,163.530 159.303,166.600 163.085 C 169.247 166.346,170.154 167.589,171.157 169.335 C 171.683 170.251,172.477 171.630,172.922 172.400 C 173.907 174.106,174.501 175.305,175.397 177.400 C 175.774 178.280,176.236 179.360,176.425 179.800 C 177.143 181.475,178.408 185.796,178.870 188.149 C 179.134 189.497,179.519 190.825,179.724 191.100 C 180.015 191.489,184.623 191.600,200.394 191.600 L 220.691 191.600 221.792 187.700 C 224.433 178.349,228.642 170.102,235.075 161.675 L 236.415 159.919 235.658 158.659 C 234.944 157.474,231.255 151.085,229.502 148.000 C 229.064 147.230,228.367 146.122,227.953 145.538 C 227.539 144.954,227.200 144.375,227.200 144.252 C 227.200 143.315,211.128 119.712,207.341 115.086 L 206.429 113.973 206.314 138.886 C 206.204 162.879,206.170 163.859,205.400 165.395 C 203.155 169.870,197.071 169.991,194.741 165.606 C 194.043 164.293,194.000 162.775,193.994 139.406 C 193.991 125.763,193.856 114.405,193.694 114.166 C 193.520 113.908,191.932 115.701,189.800 118.564 M174.400 234.800 L 174.400 242.000 200.000 242.000 L 225.600 242.000 225.600 234.800 L 225.600 227.600 200.000 227.600 L 174.400 227.600 174.400 234.800 M174.400 283.072 C 174.400 304.660,174.282 311.681,173.900 312.772 C 173.155 314.901,171.376 316.660,169.367 317.253 L 167.600 317.775 167.600 323.887 L 167.600 330.000 196.600 330.000 L 225.600 330.000 225.600 292.664 L 225.600 255.327 216.900 255.065 C 212.115 254.920,200.595 254.802,191.300 254.801 L 174.400 254.800 174.400 283.072 " stroke="none" fill="#fab7d4" fill-rule="evenodd"></path><path id="path2" d="M187.000 49.817 C 180.184 50.614,174.074 51.857,168.400 53.600 C 167.850 53.769,166.590 54.141,165.600 54.426 C 164.610 54.711,163.620 55.054,163.400 55.189 C 163.180 55.323,162.280 55.663,161.400 55.943 C 155.585 57.796,144.880 63.234,138.157 67.749 C 130.222 73.080,126.574 76.124,119.669 83.179 C 105.756 97.392,95.793 115.193,91.167 134.100 C 90.965 134.925,90.631 136.275,90.424 137.100 C 89.558 140.554,88.574 147.259,87.965 153.852 C 87.136 162.821,88.378 177.513,90.775 187.100 C 91.009 188.035,91.359 189.475,91.554 190.300 C 92.190 192.989,93.480 196.883,95.663 202.700 C 96.942 206.108,100.623 213.723,102.424 216.687 C 103.291 218.114,104.000 219.360,104.000 219.456 C 104.000 220.506,112.730 232.170,116.980 236.800 C 123.090 243.455,127.102 248.805,130.560 254.912 C 133.547 260.185,136.725 267.357,137.956 271.600 C 138.243 272.590,138.640 273.713,138.839 274.095 C 139.038 274.477,139.200 275.094,139.200 275.466 C 139.200 275.839,139.368 276.696,139.573 277.372 C 141.695 284.362,142.334 290.102,142.760 306.000 C 143.139 320.116,143.145 320.154,145.634 323.600 C 147.475 326.150,149.028 327.464,151.600 328.648 C 154.433 329.952,157.810 330.458,162.800 330.324 L 167.400 330.200 167.511 324.054 C 167.623 317.792,167.429 316.800,166.089 316.800 C 165.039 316.800,162.819 314.820,162.195 313.327 C 161.414 311.458,161.287 227.226,162.061 224.828 C 163.024 221.849,163.688 220.767,165.812 218.717 L 168.000 216.605 168.000 206.080 C 168.000 200.291,167.815 194.710,167.589 193.677 C 167.362 192.645,166.989 190.900,166.759 189.800 C 166.399 188.081,165.792 186.214,164.418 182.600 C 162.647 177.942,160.009 173.961,154.906 168.243 C 148.994 161.619,149.428 159.127,159.342 142.800 C 159.943 141.810,160.538 140.685,160.664 140.300 C 160.790 139.915,161.052 139.600,161.247 139.600 C 161.441 139.600,161.600 139.407,161.600 139.172 C 161.600 138.937,162.140 137.959,162.800 137.000 C 163.460 136.041,164.000 135.161,164.000 135.045 C 164.000 134.811,174.034 119.629,176.058 116.800 C 178.538 113.335,185.769 103.780,187.576 101.579 C 188.579 100.358,190.022 98.586,190.783 97.642 C 194.230 93.361,198.887 91.877,203.537 93.577 C 206.757 94.754,207.388 95.335,212.464 101.800 C 216.169 106.519,220.908 112.846,222.800 115.600 C 223.329 116.370,223.879 117.090,224.022 117.200 C 224.369 117.466,235.694 134.613,236.703 136.400 C 237.137 137.170,238.417 139.298,239.547 141.129 C 240.676 142.961,241.600 144.539,241.600 144.638 C 241.600 144.737,242.034 145.488,242.564 146.309 C 249.975 157.781,250.655 161.916,246.052 167.535 C 243.151 171.075,240.961 174.056,239.978 175.800 C 236.487 181.994,235.008 185.567,233.105 192.400 C 232.380 195.000,232.247 196.802,232.105 205.923 L 231.941 216.446 234.106 218.526 C 236.037 220.382,236.560 221.173,237.857 224.200 C 238.046 224.640,238.290 248.670,238.400 277.600 L 238.600 330.200 241.200 330.174 C 246.429 330.122,249.526 328.907,252.816 325.616 C 257.182 321.250,257.600 319.345,257.600 303.788 C 257.600 290.406,257.910 287.174,260.076 278.000 C 260.832 274.794,262.040 270.786,262.787 269.000 C 262.971 268.560,263.530 267.120,264.029 265.800 C 265.999 260.585,273.391 247.428,275.153 246.000 C 275.289 245.890,276.025 244.990,276.788 244.000 C 278.214 242.151,279.502 240.667,283.020 236.813 C 287.849 231.522,296.000 220.472,296.000 219.215 C 296.000 218.987,296.135 218.799,296.300 218.797 C 296.465 218.795,296.792 218.390,297.027 217.897 C 297.261 217.404,298.362 215.290,299.472 213.200 C 303.739 205.170,306.909 196.541,309.612 185.600 C 310.794 180.817,311.829 172.372,312.258 164.021 C 313.172 146.230,307.095 121.955,297.732 106.000 C 293.680 99.096,293.539 97.758,296.518 94.536 L 297.688 93.272 296.944 91.939 C 296.535 91.206,295.705 90.127,295.100 89.542 C 294.495 88.958,294.000 88.281,294.000 88.040 C 294.000 87.798,293.273 86.852,292.385 85.937 L 290.770 84.273 289.041 85.136 C 285.467 86.922,283.872 86.332,278.620 81.283 C 269.220 72.247,261.259 66.590,249.927 60.893 C 245.258 58.546,243.669 57.844,238.047 55.643 C 236.862 55.179,235.645 54.800,235.341 54.800 C 235.038 54.800,234.477 54.638,234.095 54.439 C 233.713 54.240,232.590 53.860,231.600 53.593 C 230.610 53.326,229.350 52.955,228.800 52.770 C 227.839 52.446,223.374 51.469,219.600 50.757 C 211.493 49.229,195.883 48.779,187.000 49.817 " stroke="none" fill="#fbe334" fill-rule="evenodd"></path><path id="path3" d="M193.901 132.100 C 193.957 142.275,194.052 153.750,194.111 157.600 C 194.171 161.450,194.260 153.125,194.310 139.100 C 194.359 125.075,194.265 113.600,194.100 113.600 C 193.935 113.600,193.846 121.925,193.901 132.100 M206.097 138.100 L 206.194 162.600 206.300 138.281 L 206.406 113.963 207.432 115.081 L 208.458 116.200 207.554 114.900 C 207.057 114.185,206.503 113.600,206.325 113.600 C 206.146 113.600,206.044 124.625,206.097 138.100 M191.775 115.468 C 191.159 116.276,190.859 116.811,191.109 116.656 C 191.621 116.340,193.353 114.000,193.075 114.000 C 192.976 114.000,192.391 114.661,191.775 115.468 M189.375 118.668 C 188.759 119.476,188.459 120.011,188.709 119.856 C 189.221 119.540,190.953 117.200,190.675 117.200 C 190.576 117.200,189.991 117.861,189.375 118.668 M184.400 125.600 C 183.930 126.260,183.636 126.800,183.746 126.800 C 183.856 126.800,184.330 126.260,184.800 125.600 C 185.270 124.940,185.564 124.400,185.454 124.400 C 185.344 124.400,184.870 124.940,184.400 125.600 M176.246 137.800 C 175.891 138.350,175.309 139.295,174.953 139.900 L 174.305 141.000 175.110 140.026 C 176.060 138.876,177.321 136.800,177.069 136.800 C 176.971 136.800,176.601 137.250,176.246 137.800 M223.949 139.000 C 224.165 139.440,224.634 140.160,224.993 140.600 L 225.644 141.400 225.251 140.600 C 225.035 140.160,224.566 139.440,224.207 139.000 L 223.556 138.200 223.949 139.000 M227.215 144.200 C 227.217 144.420,227.586 145.050,228.036 145.600 C 228.579 146.264,228.715 146.331,228.440 145.800 C 227.766 144.495,227.212 143.772,227.215 144.200 M231.800 152.000 C 232.141 152.660,232.511 153.200,232.621 153.200 C 232.731 153.200,232.541 152.660,232.200 152.000 C 231.859 151.340,231.489 150.800,231.379 150.800 C 231.269 150.800,231.459 151.340,231.800 152.000 M167.000 153.200 C 166.659 153.860,166.469 154.400,166.579 154.400 C 166.689 154.400,167.059 153.860,167.400 153.200 C 167.741 152.540,167.931 152.000,167.821 152.000 C 167.711 152.000,167.341 152.540,167.000 153.200 M163.612 159.515 C 163.605 159.799,164.275 160.707,165.100 161.533 C 165.935 162.370,166.136 162.496,165.553 161.818 C 164.977 161.148,164.307 160.240,164.065 159.800 C 163.823 159.360,163.619 159.232,163.612 159.515 M204.226 166.700 C 203.362 167.805,203.293 167.990,203.963 167.404 C 204.765 166.704,205.823 165.200,205.514 165.200 C 205.451 165.200,204.872 165.875,204.226 166.700 M169.200 166.528 C 169.200 166.701,169.650 167.505,170.200 168.314 C 170.750 169.123,171.200 169.644,171.200 169.472 C 171.200 169.299,170.750 168.495,170.200 167.686 C 169.650 166.877,169.200 166.356,169.200 166.528 M228.600 171.200 C 228.259 171.860,228.069 172.400,228.179 172.400 C 228.289 172.400,228.659 171.860,229.000 171.200 C 229.341 170.540,229.531 170.000,229.421 170.000 C 229.311 170.000,228.941 170.540,228.600 171.200 M220.800 190.933 C 220.800 191.812,180.558 191.975,179.630 191.100 C 179.202 190.696,179.135 190.716,179.283 191.200 C 179.567 192.128,220.705 192.312,221.061 191.386 C 221.192 191.045,221.187 190.653,221.049 190.516 C 220.912 190.379,220.800 190.567,220.800 190.933 M180.270 204.263 C 179.935 204.598,179.921 213.464,180.253 214.704 L 180.495 215.607 200.148 215.504 L 219.800 215.400 219.800 209.800 L 219.800 204.200 200.170 204.096 C 189.374 204.039,180.419 204.114,180.270 204.263 M174.091 227.535 C 173.702 227.782,173.607 229.600,173.691 235.229 L 173.800 242.600 200.000 242.600 L 226.200 242.600 226.309 235.229 C 226.393 229.600,226.298 227.782,225.909 227.535 C 225.629 227.358,213.970 227.212,200.000 227.212 C 186.030 227.212,174.371 227.358,174.091 227.535 M225.600 234.800 L 225.600 242.000 200.000 242.000 L 174.400 242.000 174.400 234.800 L 174.400 227.600 200.000 227.600 L 225.600 227.600 225.600 234.800 M174.100 254.665 C 173.707 254.824,173.600 260.998,173.600 283.653 C 173.600 314.993,173.689 313.728,171.348 315.570 C 170.760 316.032,169.587 316.521,168.740 316.656 C 167.169 316.907,166.590 317.600,167.951 317.600 C 169.239 317.600,171.361 316.520,172.402 315.335 C 174.414 313.046,174.400 313.269,174.400 283.072 L 174.400 254.800 191.300 254.801 C 200.595 254.802,212.115 254.920,216.900 255.065 L 225.600 255.327 225.600 292.661 L 225.600 329.995 196.300 330.100 L 167.000 330.205 196.700 330.303 L 226.400 330.400 226.400 292.643 C 226.400 258.582,226.338 254.862,225.767 254.643 C 225.011 254.353,174.821 254.374,174.100 254.665 M165.200 349.600 L 165.200 356.800 193.005 356.800 C 223.112 356.800,221.461 356.678,223.900 359.080 C 226.527 361.667,225.015 369.200,221.870 369.200 C 221.527 369.200,221.136 369.380,221.000 369.600 C 220.839 369.861,210.978 370.000,192.722 370.000 L 164.690 370.000 164.973 373.850 C 165.128 375.967,165.402 377.992,165.581 378.350 C 165.760 378.707,166.153 379.540,166.453 380.200 C 166.754 380.860,167.900 382.300,169.000 383.400 C 170.100 384.500,171.540 385.646,172.200 385.947 C 172.860 386.247,173.713 386.652,174.095 386.847 C 174.477 387.041,175.386 387.200,176.115 387.200 C 176.844 387.200,177.623 387.383,177.847 387.607 C 178.309 388.069,220.732 387.909,223.400 387.435 C 224.973 387.155,225.736 386.894,227.878 385.900 C 230.249 384.799,234.000 380.320,234.000 378.588 C 234.000 378.265,234.151 378.000,234.335 378.000 C 234.520 378.000,234.790 371.835,234.936 364.300 C 235.082 356.765,235.319 348.755,235.461 346.500 L 235.721 342.400 200.460 342.400 L 165.200 342.400 165.200 349.600 " stroke="none" fill="#b1687c" fill-rule="evenodd"></path><path id="path4" d="M191.000 48.881 C 188.800 49.076,186.280 49.395,185.400 49.592 C 184.316 49.833,184.962 49.860,187.400 49.674 C 192.115 49.315,208.015 49.322,212.600 49.685 C 214.850 49.864,215.600 49.842,214.600 49.629 C 209.443 48.527,198.826 48.191,191.000 48.881 M179.000 50.471 C 178.120 50.684,175.870 51.214,174.000 51.648 C 153.963 56.304,135.221 66.820,120.220 81.820 C 117.941 84.099,112.790 89.831,112.059 90.903 C 111.722 91.396,111.337 91.890,111.204 92.000 C 111.071 92.110,110.529 92.830,110.000 93.600 C 109.471 94.370,108.925 95.090,108.787 95.200 C 106.714 96.848,98.560 111.581,95.559 119.100 C 94.596 121.513,94.372 122.066,94.020 122.900 C 93.507 124.115,92.390 127.481,91.930 129.200 C 91.724 129.970,91.373 131.230,91.151 132.000 C 89.681 137.092,88.046 146.719,87.836 151.514 C 87.648 155.796,87.648 155.797,88.026 152.600 C 88.626 147.512,89.226 143.176,89.658 140.800 C 90.034 138.731,90.201 137.994,91.200 134.000 C 97.080 110.480,110.661 89.346,130.013 73.600 C 136.904 67.994,148.547 61.104,157.100 57.572 C 158.940 56.812,159.835 56.469,161.200 56.000 C 161.970 55.736,162.960 55.376,163.400 55.200 C 164.585 54.727,166.373 54.155,168.400 53.600 C 169.390 53.329,170.650 52.967,171.200 52.795 C 172.077 52.522,173.967 52.101,181.600 50.479 C 183.308 50.116,183.329 50.096,182.000 50.089 C 181.230 50.086,179.880 50.257,179.000 50.471 M217.600 50.400 C 219.052 50.865,221.282 50.865,220.200 50.400 C 219.760 50.211,218.770 50.062,218.000 50.068 C 216.727 50.079,216.691 50.109,217.600 50.400 M221.245 50.978 C 221.343 51.076,222.858 51.444,224.612 51.794 C 226.365 52.145,228.250 52.584,228.800 52.770 C 229.350 52.955,230.610 53.326,231.600 53.593 C 232.590 53.860,233.713 54.240,234.095 54.439 C 234.477 54.638,235.038 54.800,235.341 54.800 C 235.645 54.800,236.862 55.179,238.047 55.643 C 240.281 56.518,240.621 56.654,243.583 57.869 C 255.610 62.802,268.022 71.096,278.620 81.283 C 283.978 86.434,285.494 86.950,289.400 84.952 C 291.484 83.887,291.024 83.898,288.062 84.985 C 285.106 86.069,283.919 85.572,279.592 81.438 C 267.182 69.583,256.089 62.341,241.375 56.489 C 233.741 53.452,219.941 49.675,221.245 50.978 M297.388 92.819 C 297.530 93.192,297.207 93.829,296.577 94.419 C 293.538 97.267,293.729 99.178,297.732 106.000 C 307.095 121.955,313.172 146.230,312.258 164.021 C 311.829 172.372,310.794 180.817,309.612 185.600 C 306.909 196.541,303.739 205.170,299.472 213.200 C 298.362 215.290,297.261 217.404,297.027 217.897 C 296.792 218.390,296.465 218.795,296.300 218.797 C 296.135 218.799,296.000 218.987,296.000 219.215 C 296.000 220.472,287.849 231.522,283.020 236.813 C 279.502 240.667,278.214 242.151,276.788 244.000 C 276.025 244.990,275.289 245.890,275.153 246.000 C 273.391 247.428,265.999 260.585,264.029 265.800 C 263.530 267.120,262.971 268.560,262.787 269.000 C 262.040 270.786,260.832 274.794,260.076 278.000 C 257.910 287.174,257.600 290.406,257.600 303.788 C 257.600 319.345,257.182 321.250,252.816 325.616 C 249.526 328.907,246.429 330.122,241.200 330.174 L 238.600 330.200 238.400 277.600 C 238.290 248.670,238.046 224.640,237.857 224.200 C 236.560 221.173,236.037 220.382,234.106 218.526 L 231.941 216.446 232.105 205.923 C 232.247 196.802,232.380 195.000,233.105 192.400 C 235.008 185.567,236.487 181.994,239.978 175.800 C 240.961 174.056,243.151 171.075,246.052 167.535 C 250.655 161.916,249.975 157.781,242.564 146.309 C 242.034 145.488,241.600 144.737,241.600 144.638 C 241.600 144.539,240.676 142.961,239.547 141.129 C 238.417 139.298,237.137 137.170,236.703 136.400 C 235.694 134.613,224.369 117.466,224.022 117.200 C 223.879 117.090,223.329 116.370,222.800 115.600 C 219.373 110.612,209.358 97.622,207.843 96.200 C 202.594 91.272,195.425 91.877,190.783 97.642 C 190.022 98.586,188.579 100.358,187.576 101.579 C 185.769 103.780,178.538 113.335,176.058 116.800 C 174.034 119.629,164.000 134.811,164.000 135.045 C 164.000 135.161,163.460 136.041,162.800 137.000 C 162.140 137.959,161.600 138.937,161.600 139.172 C 161.600 139.407,161.441 139.600,161.247 139.600 C 161.052 139.600,160.790 139.915,160.664 140.300 C 160.538 140.685,159.943 141.810,159.342 142.800 C 149.428 159.127,148.994 161.619,154.906 168.243 C 160.009 173.961,162.647 177.942,164.418 182.600 C 165.788 186.204,166.400 188.081,166.763 189.800 C 167.761 194.521,167.915 195.052,167.959 193.925 C 168.199 187.672,162.219 175.256,155.604 168.273 C 151.306 163.736,150.431 160.243,152.542 156.041 C 153.585 153.963,156.527 148.582,158.686 144.800 C 162.587 137.968,175.483 117.848,176.377 117.200 C 176.529 117.090,177.263 116.100,178.009 115.000 C 180.672 111.074,189.014 100.357,191.757 97.337 C 195.661 93.041,200.522 92.217,205.431 95.021 C 206.960 95.894,208.615 97.611,211.582 101.401 C 212.270 102.280,213.051 103.272,213.317 103.603 C 214.076 104.552,219.250 111.492,221.664 114.800 C 222.868 116.450,225.176 119.780,226.793 122.200 C 228.410 124.620,229.883 126.660,230.066 126.733 C 230.250 126.807,230.400 127.040,230.400 127.251 C 230.400 127.463,231.272 128.933,232.338 130.518 C 234.125 133.175,237.959 139.344,239.599 142.200 C 239.978 142.860,240.879 144.390,241.600 145.600 C 242.322 146.810,243.337 148.565,243.856 149.500 C 244.375 150.435,245.280 152.055,245.867 153.100 C 248.097 157.072,248.400 157.940,248.400 160.362 C 248.400 163.382,246.528 167.112,243.966 169.200 C 240.667 171.888,234.027 185.891,232.396 193.600 C 232.140 194.810,231.766 196.451,231.565 197.246 C 231.364 198.042,231.200 202.679,231.200 207.552 L 231.200 216.410 233.587 218.724 C 234.920 220.017,236.376 221.912,236.887 223.019 L 237.800 225.000 238.000 277.800 L 238.200 330.600 241.600 330.596 C 249.108 330.587,254.789 326.651,257.128 319.836 C 257.949 317.445,258.000 316.584,258.000 305.225 C 258.000 298.586,258.185 291.859,258.411 290.277 C 259.357 283.661,260.139 279.386,260.803 277.200 C 260.970 276.650,261.334 275.390,261.611 274.400 C 264.393 264.465,269.419 254.501,276.137 245.600 C 277.051 244.390,277.888 243.310,277.999 243.200 C 278.110 243.090,279.639 241.380,281.398 239.400 C 283.157 237.420,284.690 235.710,284.804 235.600 C 284.991 235.419,287.896 231.894,289.084 230.406 C 293.949 224.311,304.000 207.143,304.000 204.928 C 304.000 204.720,304.360 203.805,304.800 202.894 C 305.240 201.984,305.600 201.048,305.600 200.814 C 305.600 200.580,305.774 200.077,305.987 199.695 C 306.398 198.959,307.458 195.872,308.047 193.700 C 308.241 192.985,308.592 191.725,308.827 190.900 C 312.761 177.065,313.889 158.070,311.576 144.600 C 310.875 140.524,310.357 137.868,309.937 136.200 C 309.715 135.320,309.355 133.880,309.135 133.000 C 308.407 130.077,307.123 125.810,306.759 125.105 C 306.562 124.723,306.400 124.136,306.400 123.800 C 306.400 123.464,306.241 122.877,306.047 122.495 C 305.665 121.744,304.875 119.884,304.392 118.600 C 303.869 117.206,298.485 106.320,296.810 103.267 C 294.862 99.718,294.874 94.800,296.832 94.800 C 297.505 94.800,298.108 93.148,297.613 92.657 C 297.267 92.313,297.211 92.354,297.388 92.819 M192.770 113.897 C 192.066 114.693,192.028 114.803,192.631 114.297 C 193.089 113.914,193.674 113.600,193.931 113.600 C 194.189 113.600,194.400 113.420,194.400 113.200 C 194.400 112.498,193.768 112.768,192.770 113.897 M205.697 138.100 L 205.794 163.000 205.900 138.258 C 205.995 116.143,206.072 113.542,206.624 113.754 C 206.977 113.889,207.137 113.822,206.997 113.595 C 205.668 111.445,205.598 112.757,205.697 138.100 M209.200 117.200 C 209.670 117.860,210.144 118.400,210.254 118.400 C 210.364 118.400,210.070 117.860,209.600 117.200 C 209.130 116.540,208.656 116.000,208.546 116.000 C 208.436 116.000,208.730 116.540,209.200 117.200 M212.400 121.600 C 212.870 122.260,213.344 122.800,213.454 122.800 C 213.564 122.800,213.270 122.260,212.800 121.600 C 212.330 120.940,211.856 120.400,211.746 120.400 C 211.636 120.400,211.930 120.940,212.400 121.600 M170.153 147.300 C 168.776 149.636,168.686 149.835,169.387 149.000 C 170.200 148.032,170.900 146.800,170.638 146.800 C 170.533 146.800,170.315 147.025,170.153 147.300 M87.353 161.000 C 87.353 163.640,87.418 164.668,87.497 163.284 C 87.575 161.901,87.574 159.741,87.495 158.484 C 87.416 157.228,87.352 158.360,87.353 161.000 M87.752 171.000 C 88.040 175.852,89.490 184.544,90.787 189.200 C 91.247 190.850,91.732 192.789,91.865 193.510 C 91.999 194.230,92.264 194.916,92.454 195.033 C 92.644 195.151,92.800 195.676,92.800 196.200 C 92.800 196.724,92.980 197.264,93.200 197.400 C 93.420 197.536,93.600 197.999,93.600 198.429 C 93.600 198.859,93.759 199.523,93.953 199.905 C 94.323 200.632,95.091 202.435,95.613 203.800 C 100.001 215.284,108.002 227.740,117.965 238.600 C 127.734 249.248,134.581 261.441,138.518 275.200 C 139.904 280.043,140.331 282.154,141.597 290.433 C 141.819 291.881,142.000 298.032,142.000 304.102 C 142.000 319.164,142.486 321.274,146.998 325.818 C 152.154 331.010,150.316 330.807,191.200 330.702 L 225.800 330.613 190.800 330.389 C 155.189 330.162,154.705 330.140,151.394 328.572 C 149.009 327.442,147.414 326.066,145.634 323.600 C 143.145 320.154,143.139 320.116,142.760 306.000 C 142.334 290.102,141.695 284.362,139.573 277.372 C 139.368 276.696,139.200 275.839,139.200 275.466 C 139.200 275.094,139.038 274.477,138.839 274.095 C 138.640 273.713,138.243 272.590,137.956 271.600 C 136.725 267.357,133.547 260.185,130.560 254.912 C 127.102 248.805,123.090 243.455,116.980 236.800 C 112.730 232.170,104.000 220.506,104.000 219.456 C 104.000 219.360,103.291 218.114,102.424 216.687 C 98.883 210.859,94.753 201.187,92.480 193.400 C 91.116 188.726,90.149 184.859,89.780 182.600 C 88.966 177.622,88.778 176.169,88.380 171.805 C 87.826 165.728,87.406 165.189,87.752 171.000 M199.300 168.676 C 199.685 168.776,200.315 168.776,200.700 168.676 C 201.085 168.575,200.770 168.493,200.000 168.493 C 199.230 168.493,198.915 168.575,199.300 168.676 M200.400 192.000 L 179.800 192.211 200.276 192.305 C 213.599 192.367,220.839 192.260,221.000 192.000 C 221.136 191.780,221.192 191.643,221.124 191.695 C 221.056 191.747,211.730 191.884,200.400 192.000 M168.050 205.802 L 168.000 216.605 165.812 218.717 C 163.688 220.767,163.024 221.849,162.061 224.828 C 161.287 227.226,161.414 311.458,162.195 313.327 C 163.275 315.912,167.707 318.026,169.109 316.624 C 169.232 316.501,168.534 316.400,167.558 316.400 C 164.954 316.400,163.009 314.700,162.401 311.893 C 162.074 310.386,161.982 297.995,162.074 267.600 L 162.200 225.400 163.366 222.874 C 164.192 221.086,165.155 219.817,166.666 218.526 L 168.800 216.703 168.770 207.651 C 168.754 202.673,168.597 197.790,168.420 196.800 C 168.219 195.667,168.082 199.005,168.050 205.802 M190.300 203.900 C 195.635 203.963,204.365 203.963,209.700 203.900 C 215.035 203.837,210.670 203.785,200.000 203.785 C 189.330 203.785,184.965 203.837,190.300 203.900 M225.890 227.487 C 226.238 227.734,226.417 229.925,226.505 235.018 L 226.629 242.200 226.615 234.833 C 226.602 228.632,226.505 227.440,226.000 227.303 C 225.566 227.184,225.535 227.235,225.890 227.487 M173.365 235.000 C 173.366 238.960,173.426 240.526,173.498 238.480 C 173.571 236.434,173.571 233.194,173.498 231.280 C 173.424 229.366,173.365 231.040,173.365 235.000 M187.100 243.100 C 194.195 243.161,205.805 243.161,212.900 243.100 C 219.995 243.039,214.190 242.989,200.000 242.989 C 185.810 242.989,180.005 243.039,187.100 243.100 M225.898 254.692 C 226.288 254.968,226.419 263.196,226.501 292.622 L 226.606 330.200 226.603 292.433 C 226.600 259.204,226.528 254.647,226.000 254.503 C 225.558 254.382,225.531 254.432,225.898 254.692 M173.390 284.000 C 173.390 299.950,173.439 306.475,173.500 298.500 C 173.560 290.525,173.560 277.475,173.500 269.500 C 173.439 261.525,173.390 268.050,173.390 284.000 M164.400 349.800 L 164.400 357.200 192.115 357.200 L 219.830 357.200 221.615 358.100 C 222.919 358.757,223.643 359.481,224.300 360.785 C 225.119 362.408,225.200 362.470,225.200 361.465 C 225.200 360.333,223.493 358.299,221.705 357.300 C 221.014 356.913,214.506 356.800,193.005 356.800 L 165.200 356.800 165.200 349.600 C 165.200 345.067,165.052 342.400,164.800 342.400 C 164.548 342.400,164.400 345.133,164.400 349.800 M235.501 346.400 C 235.336 348.710,235.082 356.765,234.936 364.300 C 234.790 371.835,234.520 378.000,234.335 378.000 C 234.151 378.000,234.000 378.265,234.000 378.588 C 234.000 380.320,230.249 384.799,227.878 385.900 C 225.736 386.894,224.973 387.155,223.400 387.435 C 220.732 387.909,178.309 388.069,177.847 387.607 C 177.623 387.383,176.844 387.200,176.115 387.200 C 175.386 387.200,174.477 387.041,174.095 386.847 C 173.713 386.652,172.860 386.247,172.200 385.947 C 170.652 385.241,167.159 381.748,166.453 380.200 C 166.153 379.540,165.760 378.707,165.581 378.350 C 165.402 377.992,165.128 375.967,164.973 373.850 L 164.690 370.000 192.722 370.000 C 210.978 370.000,220.839 369.861,221.000 369.600 C 221.136 369.380,221.527 369.200,221.870 369.200 C 222.977 369.200,225.204 366.376,225.164 365.022 L 225.128 363.800 224.776 365.010 C 224.582 365.676,223.778 366.846,222.990 367.610 L 221.556 369.000 192.935 369.110 L 164.314 369.221 164.475 373.710 C 164.757 381.584,169.114 386.790,176.412 387.974 C 180.251 388.597,220.191 388.510,223.829 387.871 C 228.429 387.063,232.355 384.023,234.440 379.654 C 235.236 377.986,235.359 376.856,235.671 368.394 C 236.103 356.639,235.973 339.771,235.501 346.400 " stroke="none" fill="#726c2c" fill-rule="evenodd"></path></g></svg>