<svg id="svg" version="1.1" xmlns="http://www.w3.org/2000/svg" xmlns:xlink="http://www.w3.org/1999/xlink" width="400" height="400" viewBox="0, 0, 400,400"><g id="svgg"><path id="path0" d="M231.364 107.000 C 231.363 110.740,231.423 112.324,231.497 110.520 C 231.571 108.715,231.572 105.655,231.498 103.720 C 231.425 101.784,231.364 103.260,231.364 107.000 M231.344 148.000 C 231.344 150.090,231.412 150.945,231.494 149.900 C 231.576 148.855,231.576 147.145,231.494 146.100 C 231.412 145.055,231.344 145.910,231.344 148.000 M120.671 250.843 C 116.309 252.318,112.634 253.632,112.504 253.763 C 112.373 253.893,111.857 254.000,111.357 254.000 C 110.857 254.000,110.358 254.144,110.249 254.321 C 110.140 254.497,109.128 254.893,108.000 255.200 C 106.872 255.507,105.860 255.903,105.751 256.079 C 105.642 256.256,105.149 256.400,104.656 256.400 C 104.163 256.400,103.589 256.548,103.380 256.728 C 103.171 256.908,101.650 257.482,100.000 258.002 C 98.350 258.523,96.820 259.063,96.600 259.202 C 96.380 259.342,95.390 259.700,94.400 259.998 C 93.410 260.295,92.429 260.688,92.220 260.870 C 92.011 261.051,91.462 261.200,91.000 261.200 C 90.538 261.200,89.989 261.343,89.780 261.518 C 89.571 261.693,88.680 262.065,87.800 262.345 C 86.920 262.624,85.840 263.008,85.400 263.198 C 84.154 263.735,79.002 265.535,74.600 266.970 C 61.319 271.300,54.891 278.035,52.426 290.200 C 52.159 291.520,51.781 293.230,51.587 294.000 C 51.392 294.770,51.129 296.030,51.001 296.800 C 50.874 297.570,50.597 299.055,50.385 300.100 C 49.367 305.124,49.143 306.316,48.939 307.800 C 48.817 308.680,48.556 309.571,48.359 309.780 C 48.162 309.989,48.000 310.923,48.000 311.856 C 48.000 312.789,47.820 313.664,47.600 313.800 C 47.380 313.936,47.200 314.836,47.200 315.800 C 47.200 316.764,47.020 317.664,46.800 317.800 C 46.580 317.936,46.400 318.836,46.400 319.800 C 46.400 320.764,46.220 321.664,46.000 321.800 C 45.780 321.936,45.600 322.836,45.600 323.800 C 45.600 324.764,45.420 325.664,45.200 325.800 C 44.980 325.936,44.800 326.836,44.800 327.800 C 44.800 328.764,44.620 329.664,44.400 329.800 C 44.180 329.936,44.000 330.847,44.000 331.824 C 44.000 332.801,43.820 333.600,43.600 333.600 C 43.380 333.600,43.200 334.500,43.200 335.600 C 43.200 336.700,43.020 337.600,42.800 337.600 C 42.580 337.600,42.400 338.041,42.400 338.580 L 42.400 339.561 48.700 339.789 C 52.165 339.915,59.815 340.109,65.700 340.221 L 76.400 340.425 76.400 335.774 C 76.400 330.837,76.731 329.832,78.991 327.913 C 80.206 326.882,84.513 326.941,86.014 328.010 C 88.490 329.773,88.400 328.575,88.400 359.661 L 88.400 388.000 118.391 388.000 L 148.383 388.000 148.043 387.100 C 146.516 383.062,146.333 378.265,147.577 374.863 C 148.433 372.521,148.701 372.104,150.778 369.875 C 153.531 366.922,155.750 365.983,160.800 365.635 C 162.670 365.506,164.155 365.265,164.100 365.100 C 164.045 364.935,164.000 344.299,164.000 319.242 L 164.000 273.685 160.900 273.456 C 151.071 272.729,142.696 270.182,138.000 266.492 C 136.137 265.028,133.217 262.005,133.206 261.529 C 133.203 261.379,132.936 260.993,132.614 260.671 C 131.151 259.208,129.279 254.085,128.854 250.380 L 128.600 248.160 120.671 250.843 M177.322 252.965 L 176.200 253.931 176.089 308.065 C 176.028 337.839,176.075 362.600,176.194 363.089 C 176.416 364.003,177.881 365.600,178.498 365.600 C 178.689 365.600,178.340 365.166,177.722 364.635 L 176.600 363.669 176.600 308.849 C 176.600 256.755,176.636 253.993,177.314 253.314 C 177.994 252.634,182.070 252.590,261.914 252.398 L 345.800 252.196 262.122 252.098 L 178.445 252.000 177.322 252.965 M347.706 266.400 C 347.679 273.110,347.779 278.910,347.928 279.288 C 348.180 279.926,348.138 262.692,347.873 256.800 C 347.809 255.370,347.734 259.690,347.706 266.400 M349.421 282.034 C 349.695 282.477,352.016 283.718,352.209 283.524 C 352.284 283.450,351.635 283.000,350.768 282.525 C 349.900 282.050,349.294 281.829,349.421 282.034 M260.900 289.487 C 261.505 289.578,262.495 289.578,263.100 289.487 C 263.705 289.395,263.210 289.320,262.000 289.320 C 260.790 289.320,260.295 289.395,260.900 289.487 M257.700 289.876 C 258.085 289.976,258.715 289.976,259.100 289.876 C 259.485 289.775,259.170 289.693,258.400 289.693 C 257.630 289.693,257.315 289.775,257.700 289.876 M264.900 289.876 C 265.285 289.976,265.915 289.976,266.300 289.876 C 266.685 289.775,266.370 289.693,265.600 289.693 C 264.830 289.693,264.515 289.775,264.900 289.876 M254.600 290.778 C 253.720 291.195,253.180 291.536,253.400 291.538 C 253.946 291.542,257.102 290.064,256.600 290.040 C 256.380 290.030,255.480 290.362,254.600 290.778 M268.758 290.837 C 269.725 291.266,270.588 291.545,270.675 291.458 C 270.848 291.286,267.765 289.982,267.292 290.028 C 267.131 290.044,267.791 290.408,268.758 290.837 M250.993 292.678 C 249.318 293.811,248.188 294.800,248.568 294.800 C 248.750 294.800,252.136 292.345,252.767 291.756 C 253.289 291.268,252.373 291.744,250.993 292.678 M271.200 291.708 C 271.200 291.810,271.875 292.353,272.700 292.914 C 274.864 294.387,276.075 295.545,277.734 297.731 C 278.540 298.792,279.200 299.529,279.200 299.368 C 279.200 298.816,275.991 294.913,274.750 293.955 C 273.092 292.675,271.200 291.478,271.200 291.708 M247.383 295.715 C 246.272 297.009,244.347 300.080,244.532 300.265 C 244.647 300.380,245.028 299.920,245.378 299.243 C 245.728 298.565,246.570 297.378,247.249 296.605 C 247.928 295.832,248.329 295.207,248.141 295.215 C 247.954 295.224,247.613 295.449,247.383 295.715 M351.400 299.600 C 351.108 300.073,351.499 300.073,352.600 299.600 C 353.371 299.269,353.369 299.255,352.524 299.228 C 352.042 299.213,351.536 299.380,351.400 299.600 M280.075 302.343 C 280.539 303.702,280.988 304.745,281.073 304.660 C 281.281 304.452,280.010 300.693,279.576 300.236 C 279.387 300.035,279.611 300.983,280.075 302.343 M349.455 301.055 C 348.875 301.635,348.400 302.295,348.400 302.521 C 348.400 302.748,348.445 302.857,348.500 302.765 C 348.555 302.672,349.129 302.012,349.775 301.298 C 351.183 299.742,350.946 299.563,349.455 301.055 M259.800 301.540 C 257.536 302.276,254.793 304.996,254.804 306.494 C 254.806 306.772,255.258 306.248,255.809 305.329 C 257.060 303.242,259.037 301.996,261.722 301.603 C 263.627 301.325,263.667 301.299,262.200 301.290 C 261.320 301.284,260.240 301.397,259.800 301.540 M267.292 303.876 C 268.906 305.726,269.405 307.501,269.092 310.279 C 268.965 311.405,269.021 311.895,269.237 311.554 C 270.462 309.619,269.392 305.436,267.150 303.400 C 265.863 302.231,265.867 302.243,267.292 303.876 M243.049 303.815 C 242.912 304.173,242.818 304.856,242.841 305.333 C 242.867 305.881,243.003 305.686,243.210 304.803 C 243.560 303.316,243.465 302.733,243.049 303.815 M347.849 303.815 C 347.712 304.173,347.643 317.816,347.695 334.133 L 347.790 363.800 347.995 333.600 C 348.214 301.316,348.222 302.846,347.849 303.815 M281.331 309.000 C 281.333 310.540,281.405 311.121,281.492 310.291 C 281.579 309.461,281.577 308.201,281.489 307.491 C 281.400 306.781,281.329 307.460,281.331 309.000 M242.524 309.000 C 242.526 310.320,242.601 310.812,242.690 310.093 C 242.779 309.374,242.777 308.294,242.686 307.693 C 242.595 307.092,242.522 307.680,242.524 309.000 M254.509 308.800 C 254.509 309.790,254.587 310.195,254.682 309.700 C 254.778 309.205,254.778 308.395,254.682 307.900 C 254.587 307.405,254.509 307.810,254.509 308.800 M254.800 311.289 C 254.800 311.631,255.158 312.336,255.596 312.856 L 256.392 313.800 255.734 312.400 C 254.912 310.648,254.800 310.515,254.800 311.289 M242.806 312.833 C 242.809 313.365,242.989 314.070,243.206 314.400 C 243.482 314.822,243.523 314.585,243.342 313.600 C 243.025 311.875,242.798 311.549,242.806 312.833 M267.260 313.835 C 264.831 316.244,260.490 316.704,257.943 314.821 C 257.280 314.331,256.647 314.020,256.537 314.130 C 256.427 314.239,257.132 314.795,258.104 315.365 C 261.345 317.264,265.931 316.411,268.357 313.459 C 269.369 312.226,268.624 312.482,267.260 313.835 M280.629 313.829 C 280.481 314.415,280.438 314.972,280.532 315.066 C 280.627 315.160,280.824 314.758,280.971 314.171 C 281.119 313.585,281.162 313.028,281.068 312.934 C 280.973 312.840,280.776 313.242,280.629 313.829 M279.027 317.851 C 276.874 321.964,272.843 325.480,268.506 327.027 C 267.678 327.323,267.335 327.573,267.744 327.582 C 270.982 327.659,281.935 317.402,280.330 315.797 C 280.248 315.715,279.662 316.639,279.027 317.851 M246.673 321.000 C 248.230 323.188,252.917 326.807,254.178 326.796 C 254.410 326.794,253.612 326.226,252.404 325.533 C 251.196 324.841,249.220 323.267,248.013 322.037 C 246.806 320.807,246.203 320.340,246.673 321.000 M262.200 328.000 L 258.200 328.245 262.000 328.316 C 264.090 328.356,266.070 328.213,266.400 328.000 C 266.730 327.787,266.820 327.644,266.600 327.684 C 266.380 327.723,264.400 327.865,262.200 328.000 M346.200 364.876 L 345.400 365.704 346.278 365.250 C 347.202 364.772,347.874 363.983,347.324 364.024 C 347.146 364.037,346.640 364.420,346.200 364.876 M159.462 378.331 C 157.979 379.970,159.253 384.196,161.884 386.365 C 164.084 388.178,165.785 388.400,177.484 388.400 L 188.214 388.400 189.707 389.414 C 190.528 389.972,191.203 390.467,191.206 390.514 C 191.262 391.311,192.369 393.587,192.382 392.932 C 192.467 388.758,190.217 388.001,177.706 387.994 C 162.872 387.986,159.640 386.707,159.458 380.776 C 159.376 378.082,158.599 378.221,175.133 377.988 L 190.200 377.777 175.162 377.688 C 161.038 377.605,160.084 377.644,159.462 378.331 M363.600 378.179 C 364.347 378.590,364.661 379.168,364.840 380.465 L 365.080 382.200 365.140 380.529 C 365.204 378.749,364.460 377.589,363.271 377.614 C 362.793 377.624,362.887 377.787,363.600 378.179 M363.804 383.844 C 362.945 385.439,361.274 386.764,359.202 387.494 C 358.110 387.879,341.704 387.989,284.874 387.994 C 231.513 387.998,211.721 388.121,211.104 388.451 C 210.117 388.980,208.400 390.634,208.400 391.057 C 208.400 391.218,208.895 390.888,209.500 390.324 C 210.105 389.759,210.993 389.096,211.474 388.849 C 212.110 388.522,232.084 388.400,285.027 388.400 C 362.917 388.400,359.536 388.492,362.186 386.307 C 363.502 385.222,365.059 382.925,364.712 382.579 C 364.631 382.498,364.223 383.067,363.804 383.844 M207.867 391.867 C 207.720 392.013,207.615 392.598,207.634 393.167 C 207.668 394.181,207.675 394.179,208.021 393.020 C 208.385 391.803,208.331 391.402,207.867 391.867 " stroke="none" fill="#6d7c84" fill-rule="evenodd"></path><path id="path1" d="M177.544 253.165 L 176.600 253.929 176.600 308.799 L 176.600 363.669 177.722 364.635 L 178.845 365.600 262.122 365.600 L 345.400 365.599 346.500 364.653 L 347.600 363.707 347.600 334.049 C 347.600 305.166,347.621 304.347,348.405 302.679 C 349.261 300.858,351.013 299.531,353.000 299.200 L 354.200 299.000 354.309 291.510 L 354.418 284.020 353.309 283.795 C 347.989 282.716,347.600 281.532,347.600 266.407 L 347.600 254.139 346.674 253.270 L 345.748 252.400 262.119 252.400 C 180.373 252.400,178.467 252.417,177.544 253.165 M265.400 289.595 C 280.768 292.092,286.924 311.582,275.830 322.617 C 266.029 332.366,249.778 329.384,244.130 316.800 C 239.872 307.314,243.993 296.010,253.406 291.358 C 257.426 289.371,260.890 288.862,265.400 289.595 M258.849 302.468 C 255.270 304.239,253.861 308.421,255.601 312.104 C 258.720 318.707,269.200 316.335,269.200 309.027 C 269.200 303.326,263.899 299.968,258.849 302.468 M175.133 377.988 C 158.599 378.221,159.376 378.082,159.458 380.776 C 159.640 386.707,162.872 387.986,177.706 387.994 C 190.573 388.001,192.400 388.677,192.400 393.432 L 192.400 394.800 200.000 394.800 L 207.600 394.800 207.600 393.595 C 207.600 391.777,209.155 389.494,211.104 388.451 C 211.721 388.121,231.513 387.998,284.874 387.994 C 361.697 387.988,359.013 388.049,361.716 386.236 C 364.681 384.247,365.840 379.358,363.620 378.210 C 362.419 377.590,215.809 377.417,175.133 377.988 " stroke="none" fill="#e8d0b8" fill-rule="evenodd"></path><path id="path2" d="M151.700 0.272 C 150.105 0.362,148.800 0.607,148.800 0.818 C 148.800 1.028,147.900 1.200,146.800 1.200 C 145.700 1.200,144.800 1.380,144.800 1.600 C 144.800 1.820,143.990 2.000,143.000 2.000 C 142.010 2.000,141.200 2.180,141.200 2.400 C 141.200 2.620,140.581 2.800,139.824 2.800 C 139.067 2.800,138.336 2.980,138.200 3.200 C 138.064 3.420,137.423 3.600,136.776 3.600 C 136.129 3.600,135.600 3.780,135.600 4.000 C 135.600 4.220,135.060 4.400,134.400 4.400 C 133.740 4.400,133.200 4.580,133.200 4.800 C 133.200 5.020,132.660 5.200,132.000 5.200 C 131.340 5.200,130.800 5.380,130.800 5.600 C 130.800 5.820,130.350 6.000,129.800 6.000 C 129.250 6.000,128.800 6.180,128.800 6.400 C 128.800 6.620,128.350 6.800,127.800 6.800 C 127.250 6.800,126.799 6.935,126.797 7.100 C 126.793 7.429,124.882 8.400,124.238 8.400 C 123.527 8.400,117.600 11.314,117.600 11.663 C 117.600 11.848,117.240 12.000,116.800 12.000 C 116.360 12.000,116.000 12.180,116.000 12.400 C 116.000 12.620,115.640 12.800,115.200 12.800 C 114.760 12.800,114.400 12.980,114.400 13.200 C 114.400 13.420,114.164 13.600,113.875 13.600 C 113.587 13.600,113.002 13.915,112.575 14.300 C 112.149 14.685,111.305 15.255,110.700 15.568 C 110.095 15.880,109.600 16.285,109.600 16.468 C 109.600 16.650,109.370 16.800,109.088 16.800 C 108.807 16.800,108.317 17.160,108.000 17.600 C 107.683 18.040,107.215 18.400,106.960 18.400 C 106.705 18.400,105.755 19.120,104.848 20.000 C 103.941 20.880,103.015 21.600,102.789 21.600 C 102.563 21.600,101.601 22.365,100.650 23.300 C 99.699 24.235,98.178 25.630,97.270 26.400 C 96.100 27.392,95.615 28.114,95.609 28.876 C 95.604 29.468,95.420 30.064,95.200 30.200 C 94.980 30.336,94.800 30.887,94.800 31.424 C 94.800 31.961,94.980 32.400,95.200 32.400 C 95.420 32.400,95.600 32.863,95.600 33.429 C 95.600 34.662,96.002 35.063,98.673 36.500 C 101.616 38.083,104.032 37.724,106.600 35.321 C 118.130 24.534,131.801 17.603,149.200 13.724 L 155.800 12.253 166.400 12.228 C 177.395 12.202,178.805 12.335,187.417 14.208 C 196.434 16.170,204.975 19.512,213.398 24.374 C 218.549 27.347,223.337 31.241,229.400 37.386 C 232.827 40.860,235.270 42.989,236.564 43.629 C 240.893 45.770,246.726 52.433,249.152 58.011 C 253.438 67.861,254.000 72.565,254.000 98.558 C 254.000 119.453,253.971 119.791,252.295 118.512 C 251.642 118.014,247.864 117.214,245.600 117.095 L 243.800 117.000 243.600 106.400 C 243.334 92.288,241.326 88.508,234.029 88.382 C 231.209 88.334,226.850 86.483,223.367 83.855 C 221.013 82.079,219.609 80.428,216.478 75.751 C 211.641 68.524,204.321 68.022,196.486 74.379 C 178.704 88.808,152.255 96.603,129.790 94.035 C 118.952 92.797,116.843 92.683,113.719 93.170 C 106.937 94.227,101.300 97.123,96.763 101.881 C 92.543 106.306,91.149 108.886,88.988 116.265 C 88.912 116.524,87.638 116.851,86.126 117.000 C 84.627 117.149,82.275 117.597,80.900 117.996 L 78.400 118.722 78.400 107.288 C 78.400 86.271,80.658 74.641,87.310 61.400 C 88.415 59.200,89.652 56.734,90.060 55.919 C 91.468 53.103,90.892 50.492,88.291 47.891 C 87.895 47.495,87.678 46.997,87.809 46.785 C 87.954 46.550,86.789 46.400,84.824 46.400 C 83.051 46.400,81.600 46.537,81.600 46.705 C 81.600 46.873,81.195 47.188,80.700 47.405 C 80.205 47.622,79.622 48.205,79.405 48.700 C 79.188 49.195,78.873 49.600,78.705 49.600 C 78.537 49.600,78.400 49.960,78.400 50.400 C 78.400 50.840,78.247 51.200,78.059 51.200 C 77.749 51.200,75.200 56.307,75.200 56.929 C 75.200 57.514,73.791 60.400,73.506 60.400 C 73.338 60.400,73.200 60.839,73.200 61.376 C 73.200 61.913,73.020 62.464,72.800 62.600 C 72.580 62.736,72.400 63.197,72.400 63.624 C 72.400 64.051,72.220 64.400,72.000 64.400 C 71.780 64.400,71.600 64.940,71.600 65.600 C 71.600 66.260,71.420 66.800,71.200 66.800 C 70.980 66.800,70.800 67.340,70.800 68.000 C 70.800 68.660,70.620 69.200,70.400 69.200 C 70.180 69.200,70.000 69.740,70.000 70.400 C 70.000 71.060,69.820 71.600,69.600 71.600 C 69.380 71.600,69.200 72.320,69.200 73.200 C 69.200 74.080,69.020 74.800,68.800 74.800 C 68.580 74.800,68.400 75.419,68.400 76.176 C 68.400 76.933,68.220 77.664,68.000 77.800 C 67.780 77.936,67.600 78.847,67.600 79.824 C 67.600 80.801,67.420 81.600,67.200 81.600 C 66.978 81.600,66.800 82.667,66.800 84.000 C 66.800 85.333,66.622 86.400,66.400 86.400 C 66.138 86.400,66.000 93.800,66.000 107.800 C 66.000 121.800,65.862 129.200,65.600 129.200 C 65.380 129.200,65.200 129.549,65.200 129.976 C 65.200 130.403,65.020 130.864,64.800 131.000 C 64.580 131.136,64.400 131.766,64.400 132.400 C 64.400 133.034,64.220 133.664,64.000 133.800 C 63.469 134.128,63.469 144.272,64.000 144.600 C 64.220 144.736,64.400 145.276,64.400 145.800 C 64.400 146.324,64.580 146.864,64.800 147.000 C 65.020 147.136,65.200 147.597,65.200 148.024 C 65.200 148.451,65.380 148.800,65.600 148.800 C 65.820 148.800,66.000 149.120,66.000 149.512 C 66.000 149.903,66.360 150.483,66.800 150.800 C 67.240 151.117,67.600 151.617,67.600 151.910 C 67.600 152.606,72.145 157.065,73.193 157.398 C 73.637 157.539,74.000 157.807,74.000 157.995 C 74.000 158.183,74.540 158.455,75.200 158.600 C 75.860 158.745,76.400 159.029,76.400 159.232 C 76.400 159.434,76.850 159.600,77.400 159.600 C 77.950 159.600,78.400 159.780,78.400 160.000 C 78.400 160.220,78.940 160.400,79.600 160.400 C 80.260 160.400,80.800 160.580,80.800 160.800 C 80.800 161.029,82.000 161.200,83.600 161.200 C 85.200 161.200,86.400 161.371,86.400 161.600 C 86.400 161.820,86.940 162.000,87.600 162.000 C 88.773 162.000,88.800 162.044,88.800 164.000 C 88.800 165.100,88.980 166.000,89.200 166.000 C 89.420 166.000,89.600 166.900,89.600 168.000 C 89.600 169.100,89.780 170.000,90.000 170.000 C 90.220 170.000,90.400 170.720,90.400 171.600 C 90.400 172.480,90.580 173.200,90.800 173.200 C 91.020 173.200,91.200 173.819,91.200 174.576 C 91.200 175.333,91.380 176.064,91.600 176.200 C 91.820 176.336,92.000 176.743,92.000 177.104 C 92.000 178.168,93.349 182.400,93.689 182.400 C 93.860 182.400,94.000 182.672,94.000 183.005 C 94.000 183.338,94.161 183.923,94.358 184.305 C 94.555 184.687,95.319 186.260,96.055 187.800 C 96.792 189.340,97.711 190.949,98.097 191.375 C 98.484 191.802,98.800 192.387,98.800 192.675 C 98.800 192.964,98.980 193.200,99.200 193.200 C 99.420 193.200,99.600 193.520,99.600 193.912 C 99.600 194.303,99.960 194.883,100.400 195.200 C 100.840 195.517,101.200 196.057,101.200 196.400 C 101.200 196.743,101.560 197.283,102.000 197.600 C 102.440 197.917,102.800 198.385,102.800 198.640 C 102.800 198.895,103.520 199.845,104.400 200.752 C 105.280 201.659,106.000 202.594,106.000 202.830 C 106.000 203.373,115.453 212.800,115.997 212.800 C 116.218 212.800,117.141 213.520,118.048 214.400 C 118.955 215.280,119.905 216.000,120.160 216.000 C 120.415 216.000,120.883 216.360,121.200 216.800 C 121.517 217.240,122.057 217.600,122.400 217.600 C 122.743 217.600,123.283 217.960,123.600 218.400 C 123.917 218.840,124.497 219.200,124.888 219.200 C 125.280 219.200,125.600 219.380,125.600 219.600 C 125.600 219.820,125.793 220.000,126.029 220.000 C 127.383 220.000,127.600 221.092,127.597 227.871 L 127.594 234.600 126.517 235.100 C 125.925 235.375,125.116 235.600,124.720 235.600 C 124.324 235.600,124.000 235.780,124.000 236.000 C 124.000 236.220,123.460 236.400,122.800 236.400 C 122.140 236.400,121.600 236.580,121.600 236.800 C 121.600 237.020,121.161 237.200,120.624 237.200 C 120.087 237.200,119.536 237.380,119.400 237.600 C 119.264 237.820,118.713 238.000,118.176 238.000 C 117.639 238.000,117.200 238.180,117.200 238.400 C 117.200 238.620,116.660 238.800,116.000 238.800 C 115.340 238.800,114.800 238.980,114.800 239.200 C 114.800 239.420,114.260 239.600,113.600 239.600 C 112.940 239.600,112.400 239.780,112.400 240.000 C 112.400 240.220,111.950 240.400,111.400 240.400 C 110.850 240.400,110.400 240.580,110.400 240.800 C 110.400 241.020,109.961 241.200,109.424 241.200 C 108.887 241.200,108.336 241.380,108.200 241.600 C 108.064 241.820,107.607 242.000,107.185 242.000 C 106.327 242.000,100.586 243.801,99.505 244.409 C 99.123 244.624,98.448 244.800,98.005 244.800 C 97.562 244.800,97.200 244.980,97.200 245.200 C 97.200 245.420,96.761 245.600,96.224 245.600 C 95.687 245.600,95.136 245.780,95.000 246.000 C 94.864 246.220,94.324 246.400,93.800 246.400 C 93.276 246.400,92.736 246.580,92.600 246.800 C 92.464 247.020,91.913 247.200,91.376 247.200 C 90.839 247.200,90.400 247.380,90.400 247.600 C 90.400 247.820,89.860 248.000,89.200 248.000 C 88.540 248.000,88.000 248.180,88.000 248.400 C 88.000 248.620,87.561 248.800,87.024 248.800 C 86.487 248.800,85.936 248.980,85.800 249.200 C 85.664 249.420,85.203 249.600,84.776 249.600 C 84.349 249.600,84.000 249.780,84.000 250.000 C 84.000 250.220,83.460 250.400,82.800 250.400 C 82.140 250.400,81.600 250.580,81.600 250.800 C 81.600 251.020,81.060 251.200,80.400 251.200 C 79.740 251.200,79.200 251.380,79.200 251.600 C 79.200 251.820,78.761 252.000,78.224 252.000 C 77.687 252.000,77.136 252.180,77.000 252.400 C 76.864 252.620,76.313 252.800,75.776 252.800 C 75.239 252.800,74.800 252.980,74.800 253.200 C 74.800 253.420,74.260 253.600,73.600 253.600 C 72.940 253.600,72.400 253.780,72.400 254.000 C 72.400 254.220,72.051 254.400,71.624 254.400 C 71.197 254.400,70.736 254.580,70.600 254.800 C 70.464 255.020,69.733 255.200,68.976 255.200 C 68.219 255.200,67.600 255.380,67.600 255.600 C 67.600 255.820,67.060 256.000,66.400 256.000 C 65.740 256.000,65.200 256.180,65.200 256.400 C 65.200 256.620,64.750 256.800,64.200 256.800 C 63.650 256.800,63.200 256.980,63.200 257.200 C 63.200 257.420,62.983 257.600,62.718 257.600 C 61.959 257.600,57.600 259.704,57.600 260.070 C 57.600 260.252,57.375 260.400,57.100 260.401 C 56.825 260.401,55.970 260.941,55.200 261.600 C 54.430 262.259,53.653 262.799,53.473 262.799 C 52.999 262.800,47.200 268.805,47.200 269.294 C 47.200 269.521,46.884 269.997,46.497 270.353 C 46.111 270.709,45.540 271.495,45.230 272.100 C 44.919 272.705,44.515 273.200,44.332 273.200 C 44.150 273.200,44.000 273.560,44.000 274.000 C 44.000 274.440,43.862 274.800,43.694 274.800 C 43.282 274.800,42.000 277.811,42.000 278.779 C 42.000 279.205,41.820 279.664,41.600 279.800 C 41.380 279.936,41.200 280.577,41.200 281.224 C 41.200 281.871,41.020 282.400,40.800 282.400 C 40.580 282.400,40.400 283.019,40.400 283.776 C 40.400 284.533,40.220 285.264,40.000 285.400 C 39.780 285.536,39.600 286.357,39.600 287.224 C 39.600 288.091,39.420 288.800,39.200 288.800 C 38.980 288.800,38.800 289.700,38.800 290.800 C 38.800 291.900,38.620 292.800,38.400 292.800 C 38.180 292.800,38.000 293.689,38.000 294.776 C 38.000 295.863,37.820 296.864,37.600 297.000 C 37.380 297.136,37.200 298.047,37.200 299.024 C 37.200 300.001,37.020 300.800,36.800 300.800 C 36.580 300.800,36.400 301.599,36.400 302.576 C 36.400 303.553,36.220 304.464,36.000 304.600 C 35.780 304.736,35.600 305.636,35.600 306.600 C 35.600 307.564,35.420 308.464,35.200 308.600 C 34.980 308.736,34.800 309.636,34.800 310.600 C 34.800 311.564,34.620 312.464,34.400 312.600 C 34.180 312.736,34.000 313.636,34.000 314.600 C 34.000 315.564,33.820 316.464,33.600 316.600 C 33.380 316.736,33.200 317.636,33.200 318.600 C 33.200 319.564,33.020 320.464,32.800 320.600 C 32.580 320.736,32.400 321.636,32.400 322.600 C 32.400 323.564,32.220 324.464,32.000 324.600 C 31.780 324.736,31.600 325.647,31.600 326.624 C 31.600 327.601,31.420 328.400,31.200 328.400 C 30.980 328.400,30.800 329.300,30.800 330.400 C 30.800 331.500,30.620 332.400,30.400 332.400 C 30.180 332.400,30.000 333.199,30.000 334.176 C 30.000 335.153,29.820 336.064,29.600 336.200 C 29.380 336.336,29.200 337.236,29.200 338.200 C 29.200 339.164,29.020 340.064,28.800 340.200 C 28.580 340.336,28.400 341.236,28.400 342.200 C 28.400 343.164,28.220 344.064,28.000 344.200 C 27.780 344.336,27.600 345.236,27.600 346.200 C 27.600 347.164,27.420 348.064,27.200 348.200 C 26.980 348.336,26.800 349.236,26.800 350.200 C 26.800 351.164,26.620 352.064,26.400 352.200 C 26.180 352.336,26.000 353.168,26.000 354.050 C 26.000 354.931,25.826 355.977,25.614 356.374 C 25.401 356.771,25.105 358.560,24.956 360.348 C 24.807 362.137,24.531 363.600,24.342 363.600 C 24.154 363.600,24.000 364.500,24.000 365.600 C 24.000 366.700,23.820 367.600,23.600 367.600 C 23.380 367.600,23.200 368.489,23.200 369.576 C 23.200 370.663,23.020 371.664,22.800 371.800 C 22.566 371.945,22.400 374.263,22.400 377.400 C 22.400 380.537,22.566 382.855,22.800 383.000 C 23.020 383.136,23.200 383.957,23.200 384.824 C 23.200 385.691,23.380 386.400,23.600 386.400 C 23.820 386.400,24.000 386.850,24.000 387.400 C 24.000 387.950,24.180 388.400,24.400 388.400 C 24.620 388.400,24.800 388.718,24.800 389.107 C 24.800 390.564,29.682 396.400,30.901 396.400 C 31.188 396.400,31.683 396.760,32.000 397.200 C 32.317 397.640,32.897 398.000,33.288 398.000 C 33.680 398.000,34.000 398.180,34.000 398.400 C 34.000 398.620,34.525 398.800,35.167 398.800 C 35.808 398.800,36.408 399.025,36.500 399.300 C 36.632 399.697,52.438 399.822,113.367 399.906 L 190.068 400.012 191.278 398.716 C 193.022 396.850,192.446 392.297,190.209 390.265 C 188.308 388.538,187.229 388.400,175.575 388.400 C 168.588 388.400,164.355 388.251,164.200 388.000 C 164.064 387.780,163.681 387.600,163.350 387.600 C 160.315 387.600,157.153 380.111,159.326 378.070 L 160.252 377.200 262.303 377.200 L 364.355 377.200 364.977 378.089 C 366.793 380.682,364.575 385.651,360.716 387.637 C 359.272 388.380,357.279 388.400,286.212 388.400 L 213.191 388.400 211.426 389.230 C 207.688 390.987,206.520 396.700,209.365 399.306 C 210.366 400.223,364.794 400.217,365.100 399.300 C 365.192 399.025,365.612 398.800,366.033 398.800 C 366.455 398.800,366.800 398.620,366.800 398.400 C 366.800 398.180,367.120 398.000,367.512 398.000 C 367.903 398.000,368.483 397.640,368.800 397.200 C 369.117 396.760,369.593 396.400,369.858 396.400 C 370.378 396.400,373.600 393.270,373.600 392.765 C 373.600 392.596,373.836 392.219,374.124 391.929 C 374.889 391.157,376.000 388.794,376.000 387.939 C 376.000 387.532,376.180 387.200,376.400 387.200 C 376.620 387.200,376.800 386.660,376.800 386.000 C 376.800 385.340,376.980 384.800,377.200 384.800 C 377.443 384.800,377.600 383.000,377.600 380.200 C 377.600 377.400,377.443 375.600,377.200 375.600 C 376.980 375.600,376.800 375.060,376.800 374.400 C 376.800 373.740,376.664 373.200,376.498 373.200 C 376.331 373.200,375.944 372.632,375.637 371.939 C 374.980 370.456,371.368 366.800,370.559 366.800 C 370.252 366.800,370.000 366.620,370.000 366.400 C 370.000 366.180,369.561 366.000,369.024 366.000 C 368.487 366.000,367.936 365.820,367.800 365.600 C 367.664 365.380,365.943 365.200,363.976 365.200 L 360.400 365.200 360.400 334.000 C 360.400 313.467,360.263 302.800,360.000 302.800 C 359.780 302.800,359.600 302.512,359.600 302.160 C 359.600 300.278,355.451 297.975,354.180 299.152 C 353.971 299.345,353.155 299.709,352.366 299.961 C 351.577 300.213,350.407 300.966,349.766 301.635 L 348.600 302.852 348.400 333.464 L 348.200 364.076 347.000 365.036 L 345.800 365.996 261.961 365.998 C 182.474 366.000,178.083 365.963,177.361 365.296 C 175.534 363.605,175.600 365.730,175.600 308.690 L 175.600 254.570 176.756 253.185 L 177.912 251.800 261.947 251.800 L 345.982 251.800 347.091 252.908 L 348.200 254.017 348.400 266.908 C 348.638 282.263,348.379 281.399,353.349 283.382 C 356.098 284.479,357.138 284.200,359.100 281.836 C 359.375 281.505,359.600 280.956,359.600 280.617 C 359.600 280.278,359.780 280.000,360.000 280.000 C 360.259 280.000,360.400 275.067,360.400 266.000 C 360.400 256.933,360.259 252.000,360.000 252.000 C 359.780 252.000,359.600 251.460,359.600 250.800 C 359.600 250.140,359.420 249.600,359.200 249.600 C 358.980 249.600,358.800 249.197,358.800 248.703 C 358.800 247.365,356.246 243.913,354.423 242.788 C 353.542 242.245,352.817 241.665,352.811 241.500 C 352.805 241.335,352.350 241.200,351.800 241.200 C 351.250 241.200,350.800 241.020,350.800 240.800 C 350.800 240.580,350.170 240.400,349.400 240.400 C 348.630 240.400,348.000 240.220,348.000 240.000 C 348.000 239.735,326.333 239.600,283.800 239.600 C 241.267 239.600,219.600 239.465,219.600 239.200 C 219.600 238.980,219.161 238.800,218.624 238.800 C 218.087 238.800,217.536 238.620,217.400 238.400 C 217.264 238.180,216.713 238.000,216.176 238.000 C 215.639 238.000,215.200 237.820,215.200 237.600 C 215.200 237.380,214.660 237.200,214.000 237.200 C 213.340 237.200,212.800 237.020,212.800 236.800 C 212.800 236.580,212.260 236.400,211.600 236.400 C 210.940 236.400,210.400 236.220,210.400 236.000 C 210.400 235.780,209.860 235.600,209.200 235.600 C 208.540 235.600,208.000 235.420,208.000 235.200 C 208.000 234.980,207.774 234.800,207.498 234.800 C 205.776 234.800,205.303 220.386,206.994 219.443 C 207.431 219.199,208.082 218.685,208.441 218.300 C 208.800 217.915,209.348 217.600,209.659 217.600 C 209.969 217.600,210.483 217.240,210.800 216.800 C 211.117 216.360,211.585 216.000,211.840 216.000 C 212.095 216.000,213.045 215.280,213.952 214.400 C 214.859 213.520,215.795 212.800,216.032 212.800 C 216.628 212.800,226.800 202.603,226.800 202.005 C 226.800 201.739,227.340 201.017,228.000 200.400 C 228.660 199.783,229.200 199.031,229.200 198.728 C 229.200 198.425,229.560 197.917,230.000 197.600 C 230.440 197.283,230.800 196.743,230.800 196.400 C 230.800 196.057,231.160 195.517,231.600 195.200 C 232.040 194.883,232.400 194.303,232.400 193.912 C 232.400 193.520,232.558 193.200,232.751 193.200 C 232.945 193.200,233.327 192.660,233.600 192.000 C 233.873 191.340,234.222 190.800,234.374 190.800 C 234.526 190.800,234.898 190.170,235.200 189.400 C 235.502 188.630,235.896 188.000,236.075 188.000 C 236.254 188.000,236.400 187.735,236.400 187.412 C 236.400 187.089,236.760 186.183,237.200 185.400 C 237.640 184.617,238.000 183.621,238.000 183.188 C 238.000 182.755,238.180 182.400,238.400 182.400 C 238.620 182.400,238.800 182.051,238.800 181.624 C 238.800 181.197,238.980 180.736,239.200 180.600 C 239.420 180.464,239.600 179.913,239.600 179.376 C 239.600 178.839,239.780 178.400,240.000 178.400 C 240.220 178.400,240.400 177.871,240.400 177.224 C 240.400 176.577,240.572 175.941,240.782 175.811 C 240.991 175.682,241.285 174.497,241.434 173.179 C 241.583 171.861,241.862 170.686,242.053 170.567 C 242.244 170.449,242.400 169.564,242.400 168.600 C 242.400 167.636,242.580 166.736,242.800 166.600 C 243.020 166.464,243.200 165.373,243.200 164.176 C 243.200 162.025,243.214 162.000,244.400 162.000 C 245.060 162.000,245.600 161.820,245.600 161.600 C 245.600 161.371,246.800 161.200,248.400 161.200 C 250.000 161.200,251.200 161.029,251.200 160.800 C 251.200 160.580,251.740 160.400,252.400 160.400 C 253.060 160.400,253.600 160.220,253.600 160.000 C 253.600 159.780,253.962 159.600,254.405 159.600 C 256.620 159.600,263.254 154.410,264.768 151.494 C 265.080 150.892,265.485 150.400,265.668 150.400 C 265.850 150.400,266.000 150.040,266.000 149.600 C 266.000 149.160,266.180 148.800,266.400 148.800 C 266.620 148.800,266.800 148.440,266.800 148.000 C 266.800 147.560,266.980 147.200,267.200 147.200 C 267.420 147.200,267.600 146.660,267.600 146.000 C 267.600 145.340,267.780 144.800,268.000 144.800 C 268.248 144.800,268.400 142.675,268.400 139.224 C 268.400 135.937,268.236 133.546,268.000 133.400 C 267.780 133.264,267.600 132.623,267.600 131.976 C 267.600 131.329,267.420 130.800,267.200 130.800 C 266.938 130.800,266.800 122.208,266.800 105.824 C 266.800 89.604,266.660 80.761,266.400 80.600 C 266.167 80.456,266.000 78.204,266.000 75.200 C 266.000 72.196,265.833 69.944,265.600 69.800 C 265.380 69.664,265.200 68.573,265.200 67.376 C 265.200 66.179,265.020 65.200,264.800 65.200 C 264.580 65.200,264.400 64.480,264.400 63.600 C 264.400 62.720,264.220 62.000,264.000 62.000 C 263.780 62.000,263.600 61.370,263.600 60.600 C 263.600 59.830,263.420 59.200,263.200 59.200 C 262.980 59.200,262.800 58.660,262.800 58.000 C 262.800 57.340,262.620 56.800,262.400 56.800 C 262.180 56.800,262.000 56.440,262.000 56.000 C 262.000 55.560,261.820 55.200,261.600 55.200 C 261.380 55.200,261.200 54.660,261.200 54.000 C 261.200 53.340,261.020 52.800,260.800 52.800 C 260.580 52.800,260.400 52.440,260.400 52.000 C 260.400 51.560,260.220 51.200,260.000 51.200 C 259.780 51.200,259.600 50.840,259.600 50.400 C 259.600 49.960,259.420 49.600,259.200 49.600 C 258.980 49.600,258.800 49.363,258.800 49.074 C 258.800 47.320,247.830 34.800,246.293 34.800 C 246.009 34.800,245.517 34.440,245.200 34.000 C 244.883 33.560,244.303 33.200,243.912 33.200 C 243.520 33.200,243.200 33.020,243.200 32.800 C 243.200 32.580,242.840 32.400,242.400 32.400 C 241.960 32.400,241.600 32.259,241.600 32.087 C 241.600 31.202,233.980 23.200,233.137 23.200 C 232.923 23.200,231.871 22.300,230.800 21.200 C 229.729 20.100,228.652 19.200,228.408 19.200 C 228.164 19.200,227.527 18.763,226.993 18.229 C 226.459 17.695,225.477 16.936,224.811 16.543 C 224.145 16.149,223.600 15.686,223.600 15.514 C 223.600 15.341,223.330 15.200,223.000 15.200 C 222.670 15.200,222.400 15.020,222.400 14.800 C 222.400 14.580,222.164 14.400,221.875 14.400 C 221.587 14.400,220.964 14.040,220.492 13.600 C 220.020 13.160,219.356 12.800,219.017 12.800 C 218.678 12.800,218.400 12.620,218.400 12.400 C 218.400 12.180,218.055 12.000,217.633 12.000 C 217.212 12.000,216.807 11.842,216.733 11.649 C 216.503 11.044,210.870 8.400,209.810 8.400 C 209.254 8.400,208.800 8.264,208.800 8.098 C 208.800 7.931,208.215 7.560,207.500 7.271 C 206.785 6.983,205.887 6.579,205.505 6.374 C 205.123 6.168,204.538 6.000,204.205 6.000 C 203.872 6.000,203.600 5.820,203.600 5.600 C 203.600 5.380,203.060 5.200,202.400 5.200 C 201.740 5.200,201.200 5.020,201.200 4.800 C 201.200 4.580,200.660 4.400,200.000 4.400 C 199.340 4.400,198.800 4.220,198.800 4.000 C 198.800 3.780,198.271 3.600,197.624 3.600 C 196.977 3.600,196.336 3.420,196.200 3.200 C 196.064 2.980,195.333 2.800,194.576 2.800 C 193.819 2.800,193.200 2.620,193.200 2.400 C 193.200 2.180,192.390 2.000,191.400 2.000 C 190.410 2.000,189.600 1.820,189.600 1.600 C 189.600 1.380,188.715 1.200,187.633 1.200 C 186.460 1.200,185.602 1.006,185.507 0.721 C 185.347 0.240,158.597 -0.114,151.700 0.272 M206.962 82.219 C 207.302 82.559,207.893 83.504,208.276 84.319 C 210.923 89.958,224.072 99.143,229.598 99.213 C 232.238 99.246,232.081 97.138,231.891 130.067 C 231.715 160.582,231.612 162.691,230.013 168.500 C 229.786 169.325,229.441 170.585,229.246 171.300 C 228.860 172.718,228.524 173.713,227.964 175.100 C 227.764 175.595,227.441 176.405,227.247 176.900 C 220.710 193.580,208.103 206.212,190.200 214.019 C 173.099 221.477,146.255 218.754,130.322 207.945 C 129.069 207.095,127.869 206.400,127.655 206.400 C 127.442 206.400,127.207 206.265,127.133 206.100 C 127.060 205.935,126.190 205.178,125.200 204.418 C 112.912 194.980,104.282 180.872,101.455 165.600 C 100.060 158.065,99.354 125.691,100.444 119.233 C 101.368 113.760,104.787 108.968,109.533 106.495 C 114.101 104.116,114.871 104.069,128.400 105.355 C 146.536 107.079,165.498 104.128,181.168 97.141 C 184.491 95.660,187.397 94.241,187.600 94.002 C 187.710 93.872,188.341 93.504,189.002 93.183 C 191.935 91.760,196.958 88.477,201.200 85.209 C 206.335 81.252,206.111 81.369,206.962 82.219 M89.107 139.071 C 89.228 150.493,89.393 149.965,85.883 149.388 C 81.625 148.687,77.158 145.161,76.100 141.664 C 74.211 135.424,79.827 128.745,86.800 128.939 L 89.000 129.000 89.107 139.071 M249.719 129.780 C 260.200 134.574,257.156 148.815,245.545 149.309 L 243.400 149.400 243.153 144.800 C 242.801 138.257,242.752 129.381,243.067 129.067 C 243.719 128.415,247.657 128.837,249.719 129.780 M193.914 232.005 C 194.075 241.912,195.230 240.800,184.787 240.800 C 179.948 240.800,175.677 240.952,175.295 241.137 C 174.913 241.322,173.720 241.901,172.643 242.422 C 167.517 244.908,165.088 249.224,164.800 256.358 C 164.555 262.426,164.616 262.359,159.933 261.650 C 142.191 258.966,140.322 256.651,140.494 237.578 C 140.614 224.289,140.287 225.392,143.800 226.396 C 144.680 226.647,146.120 227.029,147.000 227.245 C 147.880 227.460,149.320 227.815,150.200 228.032 C 161.247 230.763,177.401 229.926,189.200 226.011 C 194.160 224.366,193.782 223.885,193.914 232.005 M129.238 250.041 C 130.672 263.185,140.866 270.889,159.400 272.838 C 161.820 273.093,163.943 273.430,164.118 273.588 C 164.293 273.746,164.455 294.559,164.478 319.838 L 164.520 365.800 160.886 366.059 C 150.649 366.787,145.238 374.782,147.961 385.154 C 148.511 387.248,148.595 388.104,148.261 388.231 C 148.008 388.328,134.390 388.360,118.000 388.303 L 88.200 388.200 88.000 359.254 L 87.800 330.308 86.233 328.954 C 83.559 326.643,79.155 327.235,77.499 330.128 C 77.215 330.624,76.914 333.071,76.800 335.800 L 76.600 340.600 59.600 340.696 C 50.250 340.749,42.387 340.656,42.128 340.490 C 41.772 340.262,41.852 339.205,42.453 336.194 C 42.892 333.997,43.436 331.210,43.662 330.000 C 44.238 326.921,44.598 325.087,45.347 321.400 C 45.705 319.640,46.193 317.210,46.431 316.000 C 46.670 314.790,47.016 313.080,47.200 312.200 C 47.384 311.320,47.744 309.520,48.000 308.200 C 48.256 306.880,48.616 305.080,48.800 304.200 C 48.984 303.320,49.344 301.520,49.600 300.200 C 49.856 298.880,50.216 297.080,50.400 296.200 C 50.584 295.320,50.950 293.520,51.213 292.200 C 54.060 277.916,59.498 271.528,72.495 267.197 C 75.193 266.297,77.760 265.400,78.200 265.201 C 78.640 265.003,79.810 264.573,80.800 264.245 C 83.645 263.305,88.523 261.576,89.400 261.198 C 89.840 261.008,91.370 260.469,92.800 260.000 C 94.230 259.531,95.760 258.996,96.200 258.811 C 96.942 258.500,103.244 256.298,114.400 252.452 C 116.930 251.580,121.070 250.153,123.600 249.280 C 129.142 247.368,128.943 247.341,129.238 250.041 M257.000 290.490 C 256.340 290.712,255.487 291.053,255.105 291.247 C 254.723 291.441,254.138 291.600,253.805 291.600 C 253.472 291.600,253.200 291.736,253.200 291.902 C 253.200 292.069,252.682 292.434,252.049 292.714 C 249.260 293.949,244.000 300.823,244.000 303.233 C 244.000 303.629,243.820 304.064,243.600 304.200 C 243.376 304.338,243.200 306.229,243.200 308.497 C 243.200 330.222,271.923 335.295,280.021 315.000 C 282.024 309.980,280.672 301.287,277.317 297.606 C 275.065 295.136,272.830 293.109,271.900 292.695 C 271.295 292.425,270.800 292.069,270.800 291.902 C 270.800 291.736,270.451 291.600,270.024 291.600 C 269.597 291.600,269.136 291.420,269.000 291.200 C 268.864 290.980,268.324 290.800,267.800 290.800 C 267.276 290.800,266.736 290.620,266.600 290.400 C 266.280 289.883,258.587 289.955,257.000 290.490 M265.547 301.849 C 273.030 305.578,270.331 316.800,261.951 316.800 C 255.375 316.800,251.659 308.946,255.894 303.998 C 258.645 300.785,261.940 300.051,265.547 301.849 M76.704 370.300 L 76.808 388.400 59.898 388.400 C 44.041 388.400,42.852 388.351,40.794 387.607 C 35.810 385.805,33.466 380.532,34.803 374.131 C 35.025 373.069,36.023 367.970,37.021 362.800 C 38.019 357.630,38.930 353.083,39.046 352.696 C 39.244 352.035,40.401 351.998,57.928 352.096 L 76.600 352.200 76.704 370.300 " stroke="none" fill="#080707" fill-rule="evenodd"></path><path id="path3" d="M156.800 12.386 C 138.849 14.356,119.616 23.143,106.600 35.321 C 104.107 37.654,101.431 38.108,99.000 36.610 C 96.929 35.335,96.175 35.353,95.320 36.700 C 94.935 37.305,94.334 38.070,93.984 38.400 C 93.634 38.730,92.609 40.008,91.706 41.239 C 90.803 42.470,89.825 43.734,89.532 44.046 C 87.999 45.683,87.532 47.132,88.291 47.891 C 90.892 50.492,91.468 53.104,90.060 55.919 C 89.652 56.734,88.415 59.200,87.310 61.400 C 80.658 74.641,78.400 86.271,78.400 107.288 L 78.400 118.722 80.900 117.996 C 82.275 117.597,84.627 117.149,86.126 117.000 C 87.638 116.851,88.912 116.524,88.988 116.265 C 91.149 108.886,92.543 106.306,96.763 101.881 C 101.300 97.123,106.937 94.227,113.719 93.170 C 116.843 92.683,118.952 92.797,129.790 94.035 C 152.255 96.603,178.704 88.808,196.486 74.379 C 204.321 68.022,211.641 68.524,216.478 75.751 C 219.609 80.428,221.013 82.079,223.367 83.855 C 226.850 86.483,231.209 88.334,234.029 88.382 C 241.326 88.508,243.334 92.288,243.600 106.400 L 243.800 117.000 245.600 117.095 C 247.864 117.214,251.642 118.014,252.295 118.512 C 253.971 119.791,254.000 119.453,254.000 98.558 C 254.000 72.565,253.438 67.861,249.152 58.011 C 246.726 52.433,240.893 45.770,236.564 43.629 C 235.270 42.989,232.827 40.860,229.400 37.386 C 223.337 31.241,218.549 27.347,213.398 24.374 C 203.244 18.513,193.693 15.124,181.200 12.949 C 177.227 12.258,161.316 11.890,156.800 12.386 M200.960 85.366 C 196.300 88.924,191.372 92.125,188.819 93.256 C 188.149 93.552,187.600 93.947,187.600 94.132 C 187.600 94.317,188.365 94.033,189.300 93.501 C 190.235 92.969,191.696 92.135,192.547 91.647 C 195.311 90.064,200.133 86.720,203.096 84.333 C 206.569 81.535,205.989 81.552,207.748 84.201 C 212.135 90.809,221.512 98.400,225.287 98.400 C 225.566 98.400,223.918 97.480,221.625 96.355 C 217.062 94.116,209.803 87.571,208.276 84.319 C 206.664 80.886,206.868 80.857,200.960 85.366 M185.470 95.079 C 184.848 95.405,184.435 95.769,184.553 95.886 C 184.670 96.004,185.359 95.720,186.083 95.257 C 187.578 94.299,187.175 94.183,185.470 95.079 M181.906 96.778 C 181.085 97.188,179.127 98.029,177.556 98.645 C 175.984 99.262,174.880 99.827,175.102 99.901 C 175.501 100.034,184.000 96.459,184.000 96.157 C 184.000 95.856,183.390 96.037,181.906 96.778 M226.400 98.800 C 226.730 99.013,227.270 99.188,227.600 99.188 C 228.133 99.188,228.133 99.145,227.600 98.800 C 227.270 98.587,226.730 98.412,226.400 98.412 C 225.867 98.412,225.867 98.455,226.400 98.800 M230.000 99.767 L 231.400 100.273 231.400 130.636 C 231.400 147.336,231.516 159.380,231.658 157.400 C 231.799 155.420,231.934 141.760,231.958 127.044 C 232.004 97.549,232.144 99.198,229.600 99.243 C 228.731 99.259,228.783 99.327,230.000 99.767 M172.800 100.400 C 172.267 100.745,172.267 100.788,172.800 100.788 C 173.130 100.788,173.670 100.613,174.000 100.400 C 174.533 100.055,174.533 100.012,174.000 100.012 C 173.670 100.012,173.130 100.187,172.800 100.400 M170.740 100.993 C 170.634 101.099,168.129 101.812,165.174 102.578 C 162.218 103.344,160.208 103.977,160.707 103.985 C 161.966 104.006,172.000 101.328,172.000 100.972 C 172.000 100.737,170.979 100.754,170.740 100.993 M155.800 104.446 C 147.255 105.947,137.897 106.258,128.400 105.355 C 114.871 104.069,114.101 104.116,109.533 106.495 C 104.787 108.968,101.368 113.760,100.444 119.233 C 99.948 122.171,99.901 149.328,100.380 155.600 C 100.555 157.890,100.696 151.379,100.735 139.211 C 100.808 116.440,100.880 115.824,103.946 111.768 C 105.657 109.505,109.502 106.674,111.800 105.986 C 112.680 105.723,113.898 105.325,114.506 105.103 C 115.624 104.694,118.663 104.830,125.400 105.592 C 132.073 106.346,141.566 106.542,146.798 106.033 C 151.928 105.534,159.269 104.460,159.567 104.165 C 159.816 103.918,158.056 104.049,155.800 104.446 M83.397 129.339 C 72.193 133.635,73.901 147.417,85.883 149.388 C 89.393 149.965,89.228 150.493,89.107 139.071 L 89.000 129.000 86.800 128.939 C 85.590 128.905,84.059 129.085,83.397 129.339 M243.067 129.067 C 242.752 129.381,242.801 138.257,243.153 144.800 L 243.400 149.400 245.545 149.309 C 252.731 149.003,258.252 141.730,255.783 135.822 C 253.898 131.309,245.360 126.774,243.067 129.067 M88.400 139.013 C 88.400 150.660,88.454 150.585,82.196 147.565 C 72.474 142.873,75.781 129.409,86.700 129.228 L 88.400 129.200 88.400 139.013 M248.885 129.992 C 258.611 133.634,258.060 145.197,248.008 148.370 C 243.482 149.798,243.817 150.517,243.693 139.095 L 243.586 129.200 245.178 129.200 C 246.054 129.200,247.722 129.556,248.885 129.992 M100.848 160.857 C 100.784 162.797,102.178 169.653,103.195 172.401 C 104.020 174.631,104.026 173.918,103.206 171.000 C 102.689 169.161,101.786 164.802,101.258 161.600 C 100.950 159.736,100.888 159.622,100.848 160.857 M230.599 163.300 C 230.306 165.525,228.668 172.068,227.945 173.906 C 227.135 175.965,226.841 177.222,227.226 176.984 C 227.432 176.857,227.600 176.414,227.600 176.000 C 227.600 175.586,227.759 175.149,227.952 175.030 C 228.146 174.910,228.403 174.404,228.524 173.906 C 228.645 173.408,228.921 172.370,229.138 171.600 C 230.404 167.089,230.756 165.569,231.010 163.500 C 231.165 162.235,231.198 161.200,231.084 161.200 C 230.969 161.200,230.751 162.145,230.599 163.300 M104.244 175.866 C 106.208 183.946,116.110 197.436,125.200 204.418 C 126.190 205.178,127.060 205.935,127.133 206.100 C 127.207 206.265,127.442 206.400,127.655 206.400 C 127.869 206.400,129.069 207.084,130.322 207.921 C 136.536 212.069,150.157 217.351,154.144 217.159 C 154.615 217.136,154.280 216.948,153.400 216.741 C 149.773 215.889,144.480 214.350,142.600 213.600 C 129.452 208.360,118.892 200.152,111.721 189.598 C 109.057 185.677,104.800 177.199,104.800 175.814 C 104.800 175.502,104.613 175.132,104.384 174.990 C 104.111 174.821,104.063 175.122,104.244 175.866 M224.251 182.413 C 219.289 192.412,210.646 201.945,201.000 208.059 C 196.585 210.858,188.020 214.800,186.355 214.800 C 185.966 214.800,185.536 214.980,185.400 215.200 C 185.074 215.727,185.232 215.710,187.486 214.980 C 189.750 214.246,189.994 214.144,194.400 212.072 C 203.990 207.562,212.200 200.795,218.810 191.953 C 221.849 187.889,227.248 178.300,226.760 177.834 C 226.672 177.750,225.543 179.810,224.251 182.413 M182.200 216.023 C 181.540 216.211,180.280 216.548,179.400 216.771 L 177.800 217.178 179.694 216.965 C 181.782 216.731,185.474 215.678,184.200 215.680 C 183.760 215.681,182.860 215.835,182.200 216.023 M156.200 217.600 C 156.860 217.768,158.210 217.904,159.200 217.903 L 161.000 217.900 159.200 217.580 C 158.210 217.403,156.860 217.267,156.200 217.277 L 155.000 217.295 156.200 217.600 M173.400 217.600 L 171.800 217.886 173.600 217.896 C 174.590 217.901,175.940 217.768,176.600 217.600 L 177.800 217.295 176.400 217.304 C 175.630 217.309,174.280 217.442,173.400 217.600 M164.100 218.296 C 165.365 218.375,167.435 218.375,168.700 218.296 C 169.965 218.216,168.930 218.151,166.400 218.151 C 163.870 218.151,162.835 218.216,164.100 218.296 M189.200 226.011 C 177.401 229.926,161.247 230.763,150.200 228.032 C 149.320 227.815,147.880 227.460,147.000 227.245 C 146.120 227.029,144.680 226.647,143.800 226.396 C 140.287 225.392,140.614 224.289,140.494 237.578 C 140.322 256.651,142.191 258.966,159.933 261.650 C 164.616 262.359,164.555 262.426,164.800 256.358 C 165.088 249.224,167.517 244.908,172.643 242.422 C 173.720 241.901,174.913 241.322,175.295 241.137 C 175.677 240.952,179.948 240.800,184.787 240.800 C 195.230 240.800,194.075 241.912,193.914 232.005 C 193.782 223.885,194.160 224.366,189.200 226.011 M193.600 232.600 L 193.600 240.000 186.255 240.000 C 169.991 240.000,164.000 244.904,164.000 258.220 C 164.000 260.329,163.841 261.600,163.577 261.600 C 162.016 261.600,153.473 260.101,152.200 259.604 C 151.760 259.432,150.590 259.056,149.600 258.769 C 145.803 257.667,142.984 254.986,141.577 251.138 C 140.440 248.028,140.371 225.733,141.500 226.211 C 148.895 229.344,166.160 230.901,176.780 229.391 C 182.537 228.573,191.200 226.405,192.180 225.537 C 193.450 224.412,193.600 225.157,193.600 232.600 M123.400 249.365 C 120.760 250.280,116.800 251.637,114.600 252.381 C 112.400 253.125,110.831 253.810,111.113 253.904 C 111.395 253.998,111.935 253.945,112.313 253.785 C 112.691 253.625,116.540 252.283,120.867 250.804 L 128.735 248.113 128.916 250.357 C 129.200 253.874,131.090 259.147,132.614 260.671 C 132.936 260.993,133.203 261.379,133.206 261.529 C 133.257 263.752,141.866 269.568,147.200 270.982 C 153.415 272.630,155.966 273.091,160.900 273.456 L 164.000 273.685 164.000 319.242 C 164.000 344.299,164.045 364.935,164.100 365.100 C 164.155 365.265,162.670 365.506,160.800 365.635 C 155.750 365.983,153.531 366.922,150.778 369.875 C 148.701 372.104,148.433 372.521,147.577 374.863 C 146.333 378.265,146.516 383.062,148.043 387.100 L 148.383 388.000 118.391 388.000 L 88.400 388.000 88.400 359.424 C 88.400 343.707,88.265 330.764,88.100 330.662 C 87.783 330.466,87.872 387.042,88.190 387.900 C 88.378 388.409,147.977 388.689,148.483 388.183 C 148.602 388.064,148.362 386.681,147.950 385.110 C 145.239 374.784,150.669 366.786,160.886 366.059 L 164.520 365.800 164.478 319.838 C 164.455 294.559,164.293 273.746,164.118 273.588 C 163.943 273.430,161.820 273.093,159.400 272.838 C 140.866 270.889,130.672 263.185,129.238 250.041 C 128.943 247.338,129.171 247.365,123.400 249.365 M220.300 251.900 C 243.235 251.957,280.765 251.957,303.700 251.900 C 326.635 251.843,307.870 251.796,262.000 251.796 C 216.130 251.796,197.365 251.843,220.300 251.900 M346.726 253.112 C 347.316 253.724,347.876 254.174,347.968 254.111 C 348.199 253.955,346.335 252.000,345.956 252.000 C 345.788 252.000,346.135 252.501,346.726 253.112 M103.200 256.266 C 99.790 257.482,96.640 258.628,96.200 258.812 C 95.760 258.997,94.230 259.531,92.800 260.000 C 91.370 260.469,89.840 261.008,89.400 261.198 C 88.523 261.576,83.645 263.305,80.800 264.245 C 79.810 264.573,78.640 265.003,78.200 265.201 C 77.760 265.400,75.193 266.297,72.495 267.197 C 59.498 271.528,54.060 277.916,51.213 292.200 C 50.950 293.520,50.584 295.320,50.400 296.200 C 50.216 297.080,49.856 298.880,49.600 300.200 C 49.344 301.520,48.984 303.320,48.800 304.200 C 48.616 305.080,48.256 306.880,48.000 308.200 C 47.744 309.520,47.384 311.320,47.200 312.200 C 47.016 313.080,46.670 314.790,46.431 316.000 C 46.193 317.210,45.705 319.640,45.347 321.400 C 44.598 325.087,44.238 326.921,43.662 330.000 C 43.436 331.210,42.892 333.997,42.453 336.194 C 41.852 339.205,41.772 340.262,42.128 340.490 C 42.387 340.656,50.250 340.749,59.600 340.696 L 76.600 340.600 76.800 335.800 C 76.914 333.071,77.215 330.624,77.499 330.128 C 79.107 327.319,83.477 326.659,86.109 328.829 C 86.929 329.505,87.600 329.874,87.600 329.649 C 87.600 327.626,80.917 326.278,78.991 327.913 C 76.731 329.832,76.400 330.837,76.400 335.774 L 76.400 340.425 65.700 340.221 C 59.815 340.109,52.165 339.915,48.700 339.789 L 42.400 339.561 42.400 338.580 C 42.400 338.041,42.580 337.600,42.800 337.600 C 43.020 337.600,43.200 336.700,43.200 335.600 C 43.200 334.500,43.380 333.600,43.600 333.600 C 43.820 333.600,44.000 332.801,44.000 331.824 C 44.000 330.847,44.180 329.936,44.400 329.800 C 44.620 329.664,44.800 328.764,44.800 327.800 C 44.800 326.836,44.980 325.936,45.200 325.800 C 45.420 325.664,45.600 324.764,45.600 323.800 C 45.600 322.836,45.780 321.936,46.000 321.800 C 46.220 321.664,46.400 320.764,46.400 319.800 C 46.400 318.836,46.580 317.936,46.800 317.800 C 47.020 317.664,47.200 316.764,47.200 315.800 C 47.200 314.836,47.380 313.936,47.600 313.800 C 47.820 313.664,48.000 312.789,48.000 311.856 C 48.000 310.923,48.162 309.989,48.359 309.780 C 48.556 309.571,48.817 308.680,48.939 307.800 C 49.143 306.316,49.367 305.124,50.385 300.100 C 50.597 299.055,50.874 297.570,51.001 296.800 C 51.129 296.030,51.392 294.770,51.587 294.000 C 51.781 293.230,52.159 291.520,52.426 290.200 C 54.891 278.035,61.319 271.300,74.600 266.970 C 79.002 265.535,84.154 263.735,85.400 263.198 C 85.840 263.008,86.920 262.624,87.800 262.345 C 88.680 262.065,89.571 261.693,89.780 261.518 C 89.989 261.343,90.538 261.200,91.000 261.200 C 91.462 261.200,92.011 261.051,92.220 260.870 C 92.429 260.688,93.410 260.295,94.400 259.998 C 95.390 259.700,96.380 259.342,96.600 259.202 C 96.820 259.063,98.350 258.523,100.000 258.002 C 101.650 257.482,103.171 256.908,103.380 256.728 C 103.589 256.548,104.163 256.400,104.656 256.400 C 105.149 256.400,105.642 256.256,105.751 256.079 C 105.860 255.903,106.872 255.507,108.000 255.200 C 109.924 254.676,111.088 253.967,109.924 254.027 C 109.636 254.042,106.610 255.049,103.200 256.266 M175.867 254.267 C 175.496 254.637,175.529 363.109,175.900 363.338 C 176.065 363.440,176.200 338.881,176.200 308.762 C 176.200 278.643,176.185 254.000,176.167 254.000 C 176.148 254.000,176.013 254.120,175.867 254.267 M348.173 267.200 C 348.202 280.877,348.273 281.331,350.557 282.443 L 351.400 282.854 350.583 282.127 C 348.574 280.340,348.613 280.605,348.373 267.239 L 348.147 254.600 348.173 267.200 M260.700 289.889 C 261.415 289.978,262.585 289.978,263.300 289.889 C 264.015 289.801,263.430 289.728,262.000 289.728 C 260.570 289.728,259.985 289.801,260.700 289.889 M256.400 290.400 C 255.867 290.745,255.867 290.788,256.400 290.788 C 256.730 290.788,257.270 290.613,257.600 290.400 C 258.133 290.055,258.133 290.012,257.600 290.012 C 257.270 290.012,256.730 290.187,256.400 290.400 M274.378 294.504 C 275.137 295.327,275.914 296.000,276.107 296.000 C 276.473 296.000,276.139 295.654,274.182 294.004 C 273.162 293.144,273.188 293.212,274.378 294.504 M278.000 298.590 C 278.000 298.695,278.359 299.370,278.799 300.090 C 279.738 301.631,279.869 301.281,278.990 299.580 C 278.441 298.519,278.000 298.078,278.000 298.590 M244.786 300.301 C 243.945 301.987,243.940 302.000,244.147 302.000 C 244.405 302.000,245.642 299.508,245.469 299.336 C 245.395 299.262,245.088 299.696,244.786 300.301 M349.775 301.300 L 348.600 302.600 349.998 301.400 C 350.767 300.740,351.472 300.155,351.565 300.100 C 351.657 300.045,351.557 300.000,351.342 300.000 C 351.126 300.000,350.421 300.585,349.775 301.300 M259.915 301.128 C 259.538 301.278,260.476 301.400,262.000 301.400 C 263.524 301.400,264.462 301.278,264.085 301.128 C 263.708 300.979,262.770 300.856,262.000 300.856 C 261.230 300.856,260.292 300.979,259.915 301.128 M265.400 301.833 C 267.981 304.218,268.897 304.910,268.377 304.081 C 268.060 303.575,267.170 302.779,266.400 302.312 C 265.630 301.845,265.180 301.629,265.400 301.833 M348.256 303.684 C 348.121 304.188,348.051 317.830,348.099 334.000 L 348.188 363.400 348.394 333.200 C 348.507 316.590,348.578 302.948,348.551 302.884 C 348.524 302.820,348.391 303.180,348.256 303.684 M255.127 304.900 C 254.073 306.379,253.779 311.139,254.686 312.046 C 255.067 312.427,255.080 312.198,254.743 310.980 C 254.188 308.970,254.575 306.239,255.624 304.766 C 256.081 304.125,256.364 303.600,256.254 303.600 C 256.144 303.600,255.637 304.185,255.127 304.900 M280.434 304.400 C 280.446 304.730,280.611 305.360,280.800 305.800 L 281.144 306.600 281.166 305.800 C 281.178 305.360,281.013 304.730,280.800 304.400 C 280.455 303.867,280.415 303.867,280.434 304.400 M242.937 309.000 C 242.939 310.760,243.009 311.430,243.093 310.489 C 243.178 309.549,243.177 308.109,243.091 307.289 C 243.005 306.470,242.936 307.240,242.937 309.000 M269.701 309.000 C 269.705 309.880,269.787 310.193,269.883 309.695 C 269.979 309.198,269.975 308.478,269.875 308.095 C 269.775 307.713,269.696 308.120,269.701 309.000 M280.673 312.153 C 280.523 312.545,280.411 313.166,280.425 313.533 C 280.442 313.975,280.581 313.874,280.837 313.234 C 281.049 312.703,281.161 312.082,281.085 311.854 C 281.009 311.627,280.824 311.761,280.673 312.153 M255.835 313.716 C 258.192 317.592,264.768 317.820,268.000 314.139 L 269.000 313.000 268.000 313.858 C 263.887 317.387,259.262 317.309,256.078 313.658 L 255.156 312.600 255.835 313.716 M245.468 318.726 C 246.711 320.772,249.185 323.601,249.720 323.588 C 249.986 323.581,249.914 323.409,249.559 323.201 C 249.206 322.995,248.135 321.785,247.180 320.513 C 245.003 317.615,244.430 317.017,245.468 318.726 M275.283 322.301 C 273.443 324.257,273.908 324.338,275.807 322.393 C 276.663 321.517,277.191 320.823,276.981 320.851 C 276.772 320.879,276.008 321.531,275.283 322.301 M257.400 327.600 C 258.596 328.114,259.595 328.114,258.800 327.600 C 258.470 327.387,257.840 327.222,257.400 327.234 L 256.600 327.256 257.400 327.600 M265.200 327.600 C 264.405 328.114,265.404 328.114,266.600 327.600 L 267.400 327.256 266.600 327.234 C 266.160 327.222,265.530 327.387,265.200 327.600 M39.046 352.696 C 38.930 353.083,38.019 357.630,37.021 362.800 C 36.023 367.970,35.025 373.069,34.803 374.131 C 33.466 380.532,35.810 385.805,40.794 387.607 C 42.852 388.351,44.041 388.400,59.898 388.400 L 76.808 388.400 76.704 370.300 L 76.600 352.200 57.928 352.096 C 40.401 351.998,39.244 352.035,39.046 352.696 M76.400 370.200 L 76.400 388.000 60.420 388.000 C 43.255 388.000,41.578 387.848,38.711 386.029 C 34.714 383.495,34.267 378.847,36.805 366.200 C 36.981 365.320,37.339 363.520,37.600 362.200 C 37.861 360.880,38.222 359.080,38.402 358.200 C 38.583 357.320,38.851 355.880,38.999 355.000 C 39.147 354.120,39.337 353.175,39.422 352.900 C 39.541 352.509,43.606 352.400,57.987 352.400 L 76.400 352.400 76.400 370.200 M177.200 365.108 C 177.200 365.332,177.485 365.624,177.833 365.757 C 178.757 366.112,345.919 366.055,346.138 365.700 C 346.240 365.535,308.515 365.446,262.305 365.502 C 200.430 365.577,178.143 365.485,177.743 365.153 C 177.405 364.872,177.200 364.855,177.200 365.108 M159.270 378.126 C 158.376 379.077,158.021 382.118,158.750 382.569 C 158.943 382.688,159.009 381.974,158.897 380.983 C 158.742 379.609,158.864 378.992,159.409 378.390 C 160.410 377.284,363.467 377.124,364.571 378.229 C 366.093 379.750,364.788 384.138,362.152 386.370 C 361.298 387.092,360.960 387.500,361.400 387.276 C 364.587 385.654,366.620 380.434,364.977 378.089 L 364.355 377.200 262.247 377.200 L 160.139 377.200 159.270 378.126 M159.200 383.444 C 159.200 383.677,159.785 384.492,160.500 385.257 C 161.215 386.021,161.513 386.276,161.162 385.823 C 160.812 385.370,160.227 384.555,159.862 384.011 C 159.498 383.467,159.200 383.212,159.200 383.444 M188.579 389.219 C 189.447 389.653,190.292 390.225,190.457 390.492 C 190.622 390.759,190.870 390.863,191.009 390.724 C 191.340 390.393,188.395 388.395,187.607 388.416 C 187.273 388.425,187.710 388.786,188.579 389.219 M208.898 390.900 C 208.499 391.399,207.732 393.580,208.089 393.200 C 208.370 392.901,209.558 390.400,209.418 390.400 C 209.352 390.400,209.118 390.625,208.898 390.900 " stroke="none" fill="#4c4e47" fill-rule="evenodd"></path><path id="path4" d="M203.537 84.131 C 193.504 92.258,179.546 99.279,166.600 102.710 C 161.940 103.945,161.993 103.934,154.500 105.183 C 146.675 106.488,133.474 106.688,125.000 105.630 C 116.593 104.580,114.592 104.643,111.905 106.039 C 111.523 106.238,111.016 106.400,110.777 106.400 C 108.162 106.400,102.759 112.575,101.369 117.153 C 100.654 119.511,100.544 156.687,101.239 161.293 C 102.088 166.919,103.761 173.577,105.185 177.000 C 109.211 186.672,112.632 191.884,119.376 198.621 C 125.550 204.790,131.059 208.504,140.000 212.530 C 141.778 213.330,148.042 215.378,150.400 215.930 C 151.390 216.161,152.650 216.459,153.200 216.591 C 163.830 219.149,179.093 217.913,189.800 213.627 C 190.240 213.451,191.050 213.128,191.600 212.910 C 206.595 206.958,221.045 192.166,226.680 177.000 C 227.007 176.120,227.419 175.040,227.597 174.600 C 228.093 173.368,228.660 171.578,229.181 169.600 C 229.441 168.610,229.822 167.247,230.027 166.572 C 230.232 165.896,230.400 164.815,230.400 164.169 C 230.400 163.523,230.580 162.367,230.800 161.600 C 231.236 160.080,231.621 119.986,231.319 107.575 L 231.139 100.151 228.536 99.458 C 220.062 97.200,212.707 91.935,208.200 84.903 C 206.295 81.931,206.260 81.925,203.537 84.131 M84.400 129.574 C 74.754 132.519,73.429 143.334,82.196 147.565 C 88.454 150.585,88.400 150.660,88.400 139.013 L 88.400 129.200 86.900 129.234 C 86.075 129.253,84.950 129.406,84.400 129.574 M243.693 139.095 C 243.817 150.517,243.482 149.798,248.008 148.370 C 259.647 144.697,257.367 129.200,245.189 129.200 L 243.586 129.200 243.693 139.095 M191.400 225.886 C 177.021 231.217,153.674 231.369,141.500 226.211 C 140.371 225.733,140.440 248.028,141.577 251.138 C 142.984 254.986,145.803 257.667,149.600 258.769 C 150.590 259.056,151.760 259.438,152.200 259.618 C 153.110 259.990,154.659 260.281,158.423 260.784 C 159.865 260.977,161.710 261.259,162.523 261.412 L 164.000 261.689 164.005 257.945 C 164.015 249.946,167.014 244.545,173.103 241.557 L 175.800 240.235 184.700 240.074 L 193.600 239.913 193.600 232.557 C 193.600 228.510,193.465 225.221,193.300 225.247 C 193.135 225.272,192.280 225.560,191.400 225.886 M39.415 352.900 C 39.327 353.175,39.162 354.030,39.050 354.800 C 38.937 355.570,38.654 357.100,38.422 358.200 C 38.190 359.300,37.827 361.100,37.616 362.200 C 37.405 363.300,37.065 365.010,36.860 366.000 C 33.994 379.846,34.743 384.353,40.338 386.939 C 42.137 387.771,42.774 387.804,59.300 387.920 L 76.400 388.040 76.400 370.220 L 76.400 352.400 57.987 352.400 C 43.609 352.400,39.540 352.510,39.415 352.900 " stroke="none" fill="#d99759" fill-rule="evenodd"></path></g></svg>