<svg id="svg" version="1.1" xmlns="http://www.w3.org/2000/svg" xmlns:xlink="http://www.w3.org/1999/xlink" width="400" height="400" viewBox="0, 0, 400,400"><g id="svgg"><path id="path0" d="M143.400 0.271 C 142.520 0.371,141.629 0.621,141.420 0.827 C 141.211 1.032,140.536 1.200,139.920 1.200 C 139.304 1.200,138.800 1.380,138.800 1.600 C 138.800 1.820,138.260 2.000,137.600 2.000 C 136.940 2.000,136.400 2.180,136.400 2.400 C 136.400 2.620,135.860 2.800,135.200 2.800 C 134.540 2.800,134.000 2.980,134.000 3.200 C 134.000 3.420,133.640 3.600,133.200 3.600 C 132.760 3.600,132.400 3.780,132.400 4.000 C 132.400 4.220,131.950 4.400,131.400 4.400 C 130.850 4.400,130.400 4.546,130.400 4.725 C 130.400 4.904,129.770 5.298,129.000 5.600 C 128.230 5.902,127.600 6.296,127.600 6.475 C 127.600 6.654,127.416 6.800,127.191 6.800 C 126.706 6.800,123.458 8.869,123.267 9.300 C 123.193 9.465,122.905 9.600,122.626 9.600 C 122.347 9.600,121.587 10.095,120.937 10.700 C 120.288 11.305,118.956 12.422,117.978 13.182 C 117.000 13.942,114.670 16.172,112.800 18.138 C 110.930 20.103,108.075 22.991,106.456 24.556 C 103.450 27.460,96.388 34.522,89.977 41.034 C 88.010 43.032,86.400 44.877,86.400 45.134 C 86.400 45.390,86.220 45.600,86.000 45.600 C 85.770 45.600,85.600 46.845,85.600 48.536 C 85.600 52.894,87.741 55.200,91.787 55.200 C 95.405 55.200,94.130 56.262,112.229 38.174 C 121.130 29.278,128.581 22.000,128.788 22.000 C 128.995 22.000,129.577 21.595,130.082 21.100 C 130.587 20.605,131.495 19.945,132.100 19.632 C 132.705 19.320,133.200 18.915,133.200 18.732 C 133.200 18.550,133.560 18.400,134.000 18.400 C 134.440 18.400,134.800 18.220,134.800 18.000 C 134.800 17.780,135.160 17.600,135.600 17.600 C 136.040 17.600,136.400 17.420,136.400 17.200 C 136.400 16.980,136.760 16.800,137.200 16.800 C 137.640 16.800,138.000 16.620,138.000 16.400 C 138.000 16.180,138.360 16.000,138.800 16.000 C 139.240 16.000,139.600 15.820,139.600 15.600 C 139.600 15.380,140.050 15.200,140.600 15.200 C 141.150 15.200,141.600 15.020,141.600 14.800 C 141.600 14.580,142.140 14.400,142.800 14.400 C 143.460 14.400,144.000 14.220,144.000 14.000 C 144.000 13.780,144.720 13.600,145.600 13.600 C 146.480 13.600,147.200 13.420,147.200 13.200 C 147.200 12.948,149.933 12.800,154.600 12.800 C 159.267 12.800,162.000 12.948,162.000 13.200 C 162.000 13.420,162.720 13.600,163.600 13.600 C 164.480 13.600,165.200 13.780,165.200 14.000 C 165.200 14.220,165.819 14.400,166.576 14.400 C 167.333 14.400,168.064 14.580,168.200 14.800 C 168.336 15.020,168.797 15.200,169.224 15.200 C 169.651 15.200,170.000 15.380,170.000 15.600 C 170.000 15.820,170.360 16.000,170.800 16.000 C 171.240 16.000,171.600 16.180,171.600 16.400 C 171.600 16.620,171.960 16.800,172.400 16.800 C 172.840 16.800,173.200 16.980,173.200 17.200 C 173.200 17.420,173.560 17.600,174.000 17.600 C 174.440 17.600,174.800 17.780,174.800 18.000 C 174.800 18.220,175.036 18.400,175.325 18.400 C 175.613 18.400,176.236 18.760,176.708 19.200 C 177.180 19.640,177.754 20.000,177.983 20.000 C 178.212 20.000,178.400 20.141,178.400 20.314 C 178.400 20.486,178.895 20.920,179.500 21.279 C 180.598 21.928,181.456 22.622,183.889 24.830 C 184.598 25.474,185.362 26.000,185.587 26.000 C 185.811 26.000,187.092 27.080,188.432 28.400 C 189.773 29.720,191.124 30.800,191.435 30.800 C 191.746 30.800,192.000 30.980,192.000 31.201 C 192.000 31.660,195.235 34.800,195.708 34.800 C 195.880 34.800,196.828 35.607,197.814 36.593 C 198.801 37.580,200.101 38.705,200.704 39.093 C 201.863 39.841,202.751 40.587,204.994 42.700 C 205.752 43.415,206.572 44.000,206.815 44.000 C 207.058 44.000,208.075 44.900,209.076 46.000 C 210.077 47.100,211.054 48.000,211.246 48.000 C 211.438 48.000,212.692 49.080,214.032 50.400 C 215.373 51.720,216.633 52.800,216.833 52.800 C 217.033 52.800,218.115 53.700,219.239 54.800 C 220.362 55.900,221.533 56.800,221.841 56.800 C 222.148 56.800,222.400 56.951,222.400 57.136 C 222.400 57.762,224.429 58.400,226.419 58.400 C 227.508 58.400,228.400 58.220,228.400 58.000 C 228.400 57.780,228.760 57.600,229.200 57.600 C 229.640 57.600,230.000 57.432,230.000 57.227 C 230.000 57.022,230.369 56.737,230.820 56.594 C 231.271 56.451,232.255 55.718,233.007 54.967 C 233.758 54.215,234.533 53.600,234.727 53.600 C 234.922 53.600,235.646 53.060,236.337 52.400 C 237.028 51.740,237.682 51.200,237.792 51.200 C 238.035 51.200,239.374 50.115,240.632 48.900 C 241.144 48.405,241.680 48.000,241.821 48.000 C 241.963 48.000,242.583 47.460,243.200 46.800 C 243.817 46.140,244.537 45.600,244.800 45.600 C 245.063 45.600,245.783 45.060,246.400 44.400 C 247.017 43.740,247.674 43.200,247.860 43.200 C 248.047 43.199,248.740 42.753,249.400 42.207 C 251.054 40.841,251.261 40.684,252.400 39.942 C 252.950 39.584,253.940 38.818,254.600 38.240 C 255.260 37.661,256.295 36.967,256.900 36.697 C 257.505 36.426,258.000 36.069,258.000 35.902 C 258.000 35.736,258.360 35.600,258.800 35.600 C 259.240 35.600,259.600 35.420,259.600 35.200 C 259.600 34.980,259.960 34.800,260.400 34.800 C 260.840 34.800,261.200 34.620,261.200 34.400 C 261.200 34.180,261.639 34.000,262.176 34.000 C 262.713 34.000,263.264 33.820,263.400 33.600 C 263.536 33.380,264.256 33.200,265.000 33.200 C 265.744 33.200,266.464 33.020,266.600 32.800 C 266.740 32.573,268.737 32.400,271.224 32.400 C 273.875 32.400,275.600 32.558,275.600 32.800 C 275.600 33.020,276.219 33.200,276.976 33.200 C 277.733 33.200,278.464 33.380,278.600 33.600 C 278.736 33.820,279.287 34.000,279.824 34.000 C 280.361 34.000,280.800 34.180,280.800 34.400 C 280.800 34.620,281.160 34.800,281.600 34.800 C 282.040 34.800,282.400 34.980,282.400 35.200 C 282.400 35.420,282.760 35.600,283.200 35.600 C 283.640 35.600,284.000 35.780,284.000 36.000 C 284.000 36.220,284.360 36.400,284.800 36.400 C 285.240 36.400,285.600 36.550,285.600 36.732 C 285.600 36.915,286.093 37.320,286.695 37.632 C 287.581 38.092,289.533 39.766,291.686 41.915 C 291.843 42.072,303.040 53.270,316.567 66.800 C 330.095 80.330,341.370 91.606,341.623 91.858 C 344.536 94.756,347.200 97.651,347.200 97.917 C 347.200 98.100,347.557 98.632,347.994 99.101 C 349.137 100.329,350.400 102.696,350.400 103.612 C 350.400 104.045,350.580 104.400,350.800 104.400 C 351.020 104.400,351.200 105.030,351.200 105.800 C 351.200 106.570,351.380 107.200,351.600 107.200 C 351.828 107.200,352.000 108.392,352.000 109.976 C 352.000 111.503,351.820 112.864,351.600 113.000 C 351.380 113.136,351.200 113.867,351.200 114.624 C 351.200 115.381,351.020 116.000,350.800 116.000 C 350.580 116.000,350.400 116.540,350.400 117.200 C 350.400 117.860,350.220 118.400,350.000 118.400 C 349.780 118.400,349.600 118.636,349.600 118.925 C 349.600 119.213,349.240 119.836,348.800 120.308 C 348.360 120.780,348.000 121.319,348.000 121.505 C 348.000 122.848,340.436 128.400,338.605 128.400 C 338.272 128.400,338.000 128.580,338.000 128.800 C 338.000 129.020,337.544 129.200,336.987 129.200 C 335.636 129.200,333.200 131.636,333.200 132.987 C 333.200 133.544,333.020 134.000,332.800 134.000 C 332.580 134.000,332.400 134.619,332.400 135.376 C 332.400 136.133,332.580 136.864,332.800 137.000 C 333.020 137.136,333.200 137.660,333.200 138.165 C 333.200 138.670,333.695 139.557,334.300 140.137 C 340.419 146.004,346.082 151.986,346.768 153.307 C 347.080 153.908,347.485 154.400,347.668 154.400 C 347.850 154.400,348.000 154.760,348.000 155.200 C 348.000 155.640,348.180 156.000,348.400 156.000 C 348.620 156.000,348.800 156.450,348.800 157.000 C 348.800 157.550,348.980 158.000,349.200 158.000 C 349.420 158.000,349.600 158.720,349.600 159.600 C 349.600 160.480,349.780 161.200,350.000 161.200 C 350.228 161.200,350.400 162.392,350.400 163.976 C 350.400 165.503,350.220 166.864,350.000 167.000 C 349.780 167.136,349.600 167.867,349.600 168.624 C 349.600 169.381,349.420 170.000,349.200 170.000 C 348.980 170.000,348.800 170.350,348.800 170.777 C 348.800 171.553,347.550 173.938,346.405 175.344 C 345.055 177.003,342.842 179.200,342.520 179.200 C 342.331 179.200,341.917 179.560,341.600 180.000 C 341.283 180.440,340.703 180.800,340.312 180.800 C 339.920 180.800,339.600 180.980,339.600 181.200 C 339.600 181.420,339.240 181.600,338.800 181.600 C 338.360 181.600,338.000 181.780,338.000 182.000 C 338.000 182.220,337.460 182.400,336.800 182.400 C 336.140 182.400,335.600 182.580,335.600 182.800 C 335.600 183.591,331.232 183.261,330.308 182.400 C 329.836 181.960,329.213 181.600,328.925 181.600 C 328.636 181.600,328.400 181.442,328.400 181.249 C 328.400 181.055,327.860 180.673,327.200 180.400 C 326.540 180.127,326.000 179.745,326.000 179.551 C 326.000 179.358,325.640 179.200,325.200 179.200 C 324.760 179.200,324.400 179.020,324.400 178.800 C 324.400 178.580,324.051 178.400,323.624 178.400 C 323.197 178.400,322.736 178.220,322.600 178.000 C 322.464 177.780,322.003 177.600,321.576 177.600 C 321.149 177.600,320.800 177.420,320.800 177.200 C 320.800 176.980,320.271 176.800,319.624 176.800 C 318.977 176.800,318.351 176.644,318.233 176.453 C 317.669 175.541,301.912 174.923,299.700 175.727 L 298.800 176.054 298.800 155.027 C 298.800 141.276,298.662 134.000,298.400 134.000 C 298.180 134.000,298.000 133.724,298.000 133.387 C 298.000 132.158,295.333 130.000,293.813 130.000 C 293.036 130.000,292.400 129.820,292.400 129.600 C 292.400 129.380,292.130 129.200,291.800 129.200 C 291.470 129.200,291.200 129.380,291.200 129.600 C 291.200 129.842,289.467 130.000,286.800 130.000 C 284.133 130.000,282.400 129.842,282.400 129.600 C 282.400 129.380,282.050 129.200,281.623 129.200 C 280.165 129.200,277.373 127.277,274.692 124.426 C 273.692 123.361,260.567 110.292,259.093 108.892 C 258.924 108.731,255.307 105.090,251.056 100.800 C 242.788 92.457,240.599 90.400,239.987 90.400 C 239.774 90.400,239.600 90.220,239.600 90.000 C 239.600 89.767,238.267 89.600,236.400 89.600 C 234.533 89.600,233.200 89.767,233.200 90.000 C 233.200 90.220,232.914 90.400,232.564 90.400 C 232.214 90.400,221.765 100.570,209.345 113.000 C 196.925 125.430,186.502 135.600,186.182 135.600 C 185.862 135.600,185.600 135.780,185.600 136.000 C 185.600 136.220,185.330 136.400,185.000 136.400 C 184.670 136.400,184.400 136.580,184.400 136.800 C 184.400 137.020,183.950 137.200,183.400 137.200 C 182.850 137.200,182.400 137.380,182.400 137.600 C 182.400 137.840,180.800 138.000,178.400 138.000 C 176.000 138.000,174.400 137.840,174.400 137.600 C 174.400 137.380,173.950 137.200,173.400 137.200 C 172.850 137.200,172.400 137.020,172.400 136.800 C 172.400 136.580,172.123 136.400,171.784 136.400 C 171.092 136.400,166.000 131.495,166.000 130.829 C 166.000 130.593,165.820 130.400,165.600 130.400 C 165.380 130.400,165.200 130.040,165.200 129.600 C 165.200 129.160,165.020 128.800,164.800 128.800 C 164.580 128.800,164.400 128.361,164.400 127.824 C 164.400 127.287,164.220 126.736,164.000 126.600 C 163.780 126.464,163.600 125.283,163.600 123.976 C 163.600 122.659,163.422 121.600,163.200 121.600 C 162.980 121.600,162.800 121.322,162.800 120.982 C 162.800 120.101,160.983 118.400,160.042 118.400 C 159.605 118.400,159.136 118.220,159.000 118.000 C 158.864 117.780,157.874 117.600,156.800 117.600 C 155.726 117.600,154.736 117.780,154.600 118.000 C 154.464 118.220,154.081 118.400,153.749 118.400 C 153.417 118.400,144.333 127.220,133.563 138.000 C 122.793 148.780,113.793 157.600,113.562 157.600 C 113.332 157.600,112.873 157.870,112.543 158.200 C 112.213 158.530,111.606 158.800,111.195 158.800 C 110.784 158.800,110.336 158.980,110.200 159.200 C 110.064 159.420,109.243 159.600,108.376 159.600 C 107.509 159.600,106.800 159.780,106.800 160.000 C 106.800 160.220,106.344 160.400,105.787 160.400 C 104.660 160.400,102.000 162.779,102.000 163.787 C 102.000 164.124,101.820 164.400,101.600 164.400 C 101.352 164.400,101.200 166.609,101.200 170.227 L 101.200 176.054 100.300 175.727 C 98.146 174.944,82.322 175.555,81.774 176.442 C 81.652 176.639,81.124 176.800,80.600 176.800 C 80.076 176.800,79.536 176.980,79.400 177.200 C 79.264 177.420,78.713 177.600,78.176 177.600 C 77.639 177.600,77.200 177.780,77.200 178.000 C 77.200 178.220,76.840 178.400,76.400 178.400 C 75.960 178.400,75.600 178.580,75.600 178.800 C 75.600 179.020,75.240 179.200,74.800 179.200 C 74.360 179.200,74.000 179.380,74.000 179.600 C 74.000 179.820,73.764 180.000,73.475 180.000 C 73.187 180.000,72.602 180.315,72.175 180.700 C 71.749 181.085,70.905 181.655,70.300 181.968 C 69.695 182.280,69.200 182.685,69.200 182.868 C 69.200 183.344,64.497 183.280,64.200 182.800 C 64.064 182.580,63.513 182.400,62.976 182.400 C 62.439 182.400,62.000 182.220,62.000 182.000 C 62.000 181.780,61.640 181.600,61.200 181.600 C 60.760 181.600,60.400 181.420,60.400 181.200 C 60.400 180.980,60.132 180.800,59.805 180.800 C 58.961 180.800,55.643 177.881,53.514 175.267 C 52.564 174.099,51.200 171.359,51.200 170.616 C 51.200 170.277,51.020 170.000,50.800 170.000 C 50.580 170.000,50.400 169.381,50.400 168.624 C 50.400 167.867,50.220 167.136,50.000 167.000 C 49.479 166.678,49.479 161.322,50.000 161.000 C 50.220 160.864,50.400 160.133,50.400 159.376 C 50.400 158.619,50.580 158.000,50.800 158.000 C 51.020 158.000,51.200 157.550,51.200 157.000 C 51.200 156.450,51.380 156.000,51.600 156.000 C 51.820 156.000,52.000 155.640,52.000 155.200 C 52.000 154.760,52.150 154.400,52.332 154.400 C 52.515 154.400,52.920 153.908,53.232 153.307 C 53.892 152.038,59.808 145.789,65.700 140.138 C 66.305 139.558,66.800 138.670,66.800 138.165 C 66.800 137.660,66.980 137.136,67.200 137.000 C 67.721 136.678,67.721 134.000,67.200 134.000 C 66.980 134.000,66.800 133.544,66.800 132.987 C 66.800 131.636,64.364 129.200,63.013 129.200 C 62.456 129.200,62.000 129.020,62.000 128.800 C 62.000 128.580,61.685 128.397,61.300 128.393 C 60.915 128.390,59.880 127.947,59.000 127.408 C 58.120 126.870,57.040 126.263,56.600 126.058 C 55.391 125.495,52.000 122.156,52.000 121.528 C 52.000 121.225,51.640 120.717,51.200 120.400 C 50.760 120.083,50.400 119.503,50.400 119.112 C 50.400 118.720,50.220 118.400,50.000 118.400 C 49.780 118.400,49.600 117.860,49.600 117.200 C 49.600 116.540,49.420 116.000,49.200 116.000 C 48.980 116.000,48.800 115.370,48.800 114.600 C 48.800 113.830,48.620 113.200,48.400 113.200 C 48.169 113.200,48.000 111.933,48.000 110.200 C 48.000 108.467,48.169 107.200,48.400 107.200 C 48.620 107.200,48.800 106.570,48.800 105.800 C 48.800 105.030,48.980 104.400,49.200 104.400 C 49.420 104.400,49.600 104.057,49.600 103.638 C 49.600 102.731,51.208 99.600,51.674 99.600 C 51.853 99.600,52.000 99.332,52.000 99.004 C 52.000 98.676,58.660 91.744,66.800 83.600 C 74.940 75.456,81.600 68.534,81.600 68.220 C 81.600 67.905,81.780 67.536,82.000 67.400 C 82.521 67.078,82.521 63.322,82.000 63.000 C 81.780 62.864,81.600 62.485,81.600 62.158 C 81.600 59.823,73.185 57.046,72.483 59.150 C 72.401 59.397,72.086 59.600,71.785 59.600 C 71.483 59.600,68.573 62.313,65.318 65.628 C 62.063 68.944,58.073 72.949,56.450 74.528 C 48.084 82.673,42.938 87.985,42.403 89.032 C 42.074 89.675,41.489 90.491,41.103 90.847 C 40.716 91.203,40.400 91.698,40.400 91.947 C 40.400 92.196,40.220 92.400,40.000 92.400 C 39.780 92.400,39.600 92.670,39.600 93.000 C 39.600 93.330,39.420 93.600,39.200 93.600 C 38.980 93.600,38.800 93.870,38.800 94.200 C 38.800 94.530,38.620 94.800,38.400 94.800 C 38.180 94.800,38.000 95.149,38.000 95.576 C 38.000 96.003,37.820 96.464,37.600 96.600 C 37.380 96.736,37.200 97.287,37.200 97.824 C 37.200 98.361,37.020 98.800,36.800 98.800 C 36.580 98.800,36.400 99.340,36.400 100.000 C 36.400 100.660,36.220 101.200,36.000 101.200 C 35.780 101.200,35.600 102.089,35.600 103.176 C 35.600 104.263,35.420 105.264,35.200 105.400 C 34.969 105.542,34.800 107.671,34.800 110.424 C 34.800 113.341,34.956 115.200,35.200 115.200 C 35.420 115.200,35.600 116.100,35.600 117.200 C 35.600 118.300,35.780 119.200,36.000 119.200 C 36.220 119.200,36.400 119.740,36.400 120.400 C 36.400 121.060,36.580 121.600,36.800 121.600 C 37.020 121.600,37.200 122.050,37.200 122.600 C 37.200 123.150,37.380 123.600,37.600 123.600 C 37.820 123.600,38.000 123.960,38.000 124.400 C 38.000 124.840,38.180 125.200,38.400 125.200 C 38.620 125.200,38.800 125.560,38.800 126.000 C 38.800 126.440,38.950 126.800,39.132 126.800 C 39.315 126.800,39.719 127.295,40.030 127.900 C 40.340 128.505,40.911 129.291,41.297 129.647 C 41.684 130.003,42.000 130.511,42.000 130.775 C 42.000 131.040,42.266 131.523,42.591 131.848 C 42.916 132.173,43.411 132.753,43.691 133.136 C 43.971 133.520,45.006 134.456,45.990 135.217 C 49.141 137.652,49.106 137.342,46.526 139.898 C 44.101 142.300,42.574 144.233,41.624 146.100 C 41.317 146.705,40.915 147.200,40.732 147.200 C 40.550 147.200,40.400 147.560,40.400 148.000 C 40.400 148.440,40.220 148.800,40.000 148.800 C 39.780 148.800,39.600 149.160,39.600 149.600 C 39.600 150.040,39.420 150.400,39.200 150.400 C 38.980 150.400,38.800 150.940,38.800 151.600 C 38.800 152.260,38.620 152.800,38.400 152.800 C 38.180 152.800,38.000 153.340,38.000 154.000 C 38.000 154.660,37.820 155.200,37.600 155.200 C 37.380 155.200,37.200 156.100,37.200 157.200 C 37.200 158.300,37.020 159.200,36.800 159.200 C 36.265 159.200,36.265 168.669,36.800 169.000 C 37.020 169.136,37.200 170.047,37.200 171.024 C 37.200 172.001,37.380 172.800,37.600 172.800 C 37.820 172.800,38.000 173.340,38.000 174.000 C 38.000 174.660,38.180 175.200,38.400 175.200 C 38.620 175.200,38.800 175.740,38.800 176.400 C 38.800 177.060,38.980 177.600,39.200 177.600 C 39.420 177.600,39.600 177.960,39.600 178.400 C 39.600 178.840,39.780 179.200,40.000 179.200 C 40.220 179.200,40.400 179.560,40.400 180.000 C 40.400 180.440,40.550 180.800,40.732 180.800 C 40.915 180.800,41.316 181.295,41.623 181.900 C 42.529 183.684,45.505 187.465,46.794 188.470 C 47.451 188.981,48.576 189.892,49.294 190.494 C 50.012 191.095,50.915 191.590,51.300 191.594 C 51.685 191.597,52.000 191.780,52.000 192.000 C 52.000 192.220,52.225 192.404,52.500 192.409 C 52.775 192.414,53.450 192.770,54.000 193.200 C 54.550 193.630,55.405 193.986,55.900 193.991 C 56.395 193.996,56.800 194.167,56.800 194.372 C 56.800 194.577,57.205 194.802,57.700 194.872 C 58.633 195.005,58.793 196.519,57.965 197.380 C 57.764 197.589,57.600 198.174,57.600 198.680 C 57.600 199.186,57.420 199.600,57.200 199.600 C 56.980 199.600,56.800 200.140,56.800 200.800 C 56.800 201.460,56.620 202.000,56.400 202.000 C 56.180 202.000,56.000 202.720,56.000 203.600 C 56.000 204.480,55.820 205.200,55.600 205.200 C 55.348 205.200,55.200 207.933,55.200 212.600 C 55.200 217.267,55.348 220.000,55.600 220.000 C 55.820 220.000,56.000 220.720,56.000 221.600 C 56.000 222.480,56.180 223.200,56.400 223.200 C 56.620 223.200,56.800 223.650,56.800 224.200 C 56.800 224.750,56.980 225.200,57.200 225.200 C 57.420 225.200,57.600 225.740,57.600 226.400 C 57.600 227.060,57.780 227.600,58.000 227.600 C 58.220 227.600,58.400 227.897,58.400 228.260 C 58.400 229.153,60.405 233.200,60.847 233.200 C 61.041 233.200,61.200 233.467,61.200 233.793 C 61.200 234.773,67.434 241.585,68.340 241.595 C 68.636 241.598,69.383 242.140,70.000 242.800 C 70.617 243.460,71.326 244.000,71.577 244.000 C 71.828 244.000,72.420 244.360,72.892 244.800 C 73.364 245.240,73.987 245.600,74.275 245.600 C 74.564 245.600,74.800 245.780,74.800 246.000 C 74.800 246.220,75.160 246.400,75.600 246.400 C 76.040 246.400,76.400 246.580,76.400 246.800 C 76.400 247.020,76.850 247.200,77.400 247.200 C 77.950 247.200,78.400 247.380,78.400 247.600 C 78.400 247.820,78.850 248.000,79.400 248.000 C 79.950 248.000,80.400 248.180,80.400 248.400 C 80.400 248.620,81.030 248.800,81.800 248.800 C 82.570 248.800,83.200 248.980,83.200 249.200 C 83.200 249.422,84.267 249.600,85.600 249.600 C 86.933 249.600,88.000 249.778,88.000 250.000 C 88.000 250.243,89.800 250.400,92.600 250.400 C 95.400 250.400,97.200 250.243,97.200 250.000 C 97.200 249.780,98.179 249.600,99.376 249.600 C 100.573 249.600,101.664 249.420,101.800 249.200 C 101.936 248.980,102.577 248.800,103.224 248.800 C 103.871 248.800,104.400 248.620,104.400 248.400 C 104.400 248.180,104.839 248.000,105.376 248.000 C 105.913 248.000,106.464 247.820,106.600 247.600 C 107.087 246.812,107.600 247.222,107.600 248.400 C 107.600 249.060,107.780 249.600,108.000 249.600 C 108.220 249.600,108.400 249.888,108.400 250.240 C 108.400 251.377,111.920 258.800,112.460 258.800 C 112.647 258.800,112.800 259.160,112.800 259.600 C 112.800 260.040,112.980 260.400,113.200 260.400 C 113.420 260.400,113.600 260.760,113.600 261.200 C 113.600 261.640,113.758 262.000,113.951 262.000 C 114.145 262.000,114.527 262.540,114.800 263.200 C 115.073 263.860,115.455 264.400,115.649 264.400 C 115.842 264.400,116.000 264.720,116.000 265.112 C 116.000 265.503,116.360 266.083,116.800 266.400 C 117.240 266.717,117.600 267.180,117.600 267.429 C 117.600 267.678,118.140 268.446,118.800 269.137 C 119.460 269.828,120.000 270.553,120.000 270.748 C 120.000 270.944,120.720 271.845,121.600 272.752 C 122.480 273.659,123.200 274.496,123.200 274.612 C 123.200 275.075,131.863 284.000,132.312 284.000 C 132.503 284.000,133.622 284.900,134.800 286.000 C 135.978 287.100,137.098 288.000,137.289 288.000 C 137.480 288.000,138.072 288.436,138.605 288.969 C 139.138 289.502,139.940 290.054,140.387 290.196 C 140.834 290.338,141.200 290.610,141.200 290.800 C 141.200 290.990,141.591 291.270,142.069 291.422 C 142.547 291.574,143.301 292.036,143.745 292.449 C 144.188 292.862,144.787 293.200,145.075 293.200 C 145.364 293.200,145.600 293.380,145.600 293.600 C 145.600 293.820,145.960 294.000,146.400 294.000 C 146.840 294.000,147.200 294.152,147.200 294.337 C 147.200 294.523,148.055 295.108,149.100 295.637 C 150.145 296.167,151.060 296.735,151.133 296.900 C 151.207 297.065,151.612 297.200,152.033 297.200 C 152.455 297.200,152.800 297.380,152.800 297.600 C 152.800 297.820,153.149 298.000,153.576 298.000 C 154.003 298.000,154.464 298.180,154.600 298.400 C 154.736 298.620,155.287 298.800,155.824 298.800 C 156.361 298.800,156.800 298.980,156.800 299.200 C 156.800 299.420,157.160 299.600,157.600 299.600 C 158.040 299.600,158.400 299.780,158.400 300.000 C 158.400 300.220,158.850 300.400,159.400 300.400 C 159.950 300.400,160.400 300.580,160.400 300.800 C 160.400 301.020,160.940 301.200,161.600 301.200 C 162.260 301.200,162.800 301.380,162.800 301.600 C 162.800 301.820,163.340 302.000,164.000 302.000 C 164.660 302.000,165.200 302.180,165.200 302.400 C 165.200 302.620,165.740 302.800,166.400 302.800 C 167.060 302.800,167.600 302.980,167.600 303.200 C 167.600 303.420,167.960 303.600,168.400 303.600 C 169.137 303.600,169.200 303.867,169.200 307.000 L 169.200 310.400 154.400 310.400 C 144.800 310.400,139.600 310.541,139.600 310.800 C 139.600 311.020,139.240 311.200,138.800 311.200 C 138.360 311.200,138.000 311.359,138.000 311.553 C 138.000 311.748,137.640 312.001,137.200 312.116 C 136.760 312.231,136.400 312.612,136.400 312.963 C 136.400 313.313,136.220 313.600,136.000 313.600 C 135.780 313.600,135.600 313.960,135.600 314.400 C 135.600 314.840,135.420 315.200,135.200 315.200 C 134.980 315.200,134.800 315.729,134.800 316.376 C 134.800 317.023,134.620 317.664,134.400 317.800 C 134.180 317.936,134.000 318.667,134.000 319.424 C 134.000 320.181,133.820 320.800,133.600 320.800 C 133.380 320.800,133.200 321.340,133.200 322.000 C 133.200 322.660,133.020 323.200,132.800 323.200 C 132.580 323.200,132.400 323.740,132.400 324.400 C 132.400 325.060,132.220 325.600,132.000 325.600 C 131.780 325.600,131.600 326.230,131.600 327.000 C 131.600 327.770,131.420 328.400,131.200 328.400 C 130.980 328.400,130.800 328.940,130.800 329.600 C 130.800 330.260,130.620 330.800,130.400 330.800 C 130.180 330.800,130.000 331.252,130.000 331.805 C 130.000 332.358,129.842 333.123,129.649 333.505 C 129.060 334.672,128.400 337.008,128.400 337.928 C 128.400 338.408,128.220 338.800,128.000 338.800 C 127.780 338.800,127.600 339.340,127.600 340.000 C 127.600 340.660,127.420 341.200,127.200 341.200 C 126.980 341.200,126.800 341.819,126.800 342.576 C 126.800 343.333,126.612 344.069,126.382 344.211 C 126.118 344.374,125.985 346.535,126.023 350.055 C 126.084 355.810,125.630 357.600,124.108 357.600 C 123.576 357.600,122.489 358.455,119.915 360.900 C 119.046 361.725,118.206 362.400,118.050 362.400 C 117.340 362.400,109.674 370.367,108.785 372.029 C 108.503 372.555,107.582 373.649,106.736 374.461 C 105.891 375.273,105.200 376.059,105.200 376.208 C 105.200 376.357,104.660 376.983,104.000 377.600 C 103.340 378.217,102.800 378.892,102.800 379.101 C 102.800 379.310,102.260 380.046,101.600 380.737 C 100.940 381.428,100.400 382.198,100.400 382.449 C 100.400 382.701,100.084 383.197,99.697 383.553 C 99.311 383.909,98.740 384.695,98.430 385.300 C 98.119 385.905,97.715 386.400,97.532 386.400 C 97.350 386.400,97.200 386.720,97.200 387.112 C 97.200 387.503,96.840 388.083,96.400 388.400 C 95.960 388.717,95.600 389.297,95.600 389.688 C 95.600 390.080,95.420 390.400,95.200 390.400 C 94.980 390.400,94.800 390.749,94.800 391.176 C 94.800 391.603,94.620 392.064,94.400 392.200 C 93.879 392.522,93.879 395.878,94.400 396.200 C 94.620 396.336,94.800 396.724,94.800 397.063 C 94.800 397.402,95.359 398.201,96.042 398.840 L 97.285 400.000 200.000 400.000 L 302.715 400.000 303.958 398.840 C 304.641 398.201,305.200 397.402,305.200 397.063 C 305.200 396.724,305.380 396.336,305.600 396.200 C 305.820 396.064,306.000 395.164,306.000 394.200 C 306.000 393.236,305.820 392.336,305.600 392.200 C 305.380 392.064,305.200 391.603,305.200 391.176 C 305.200 390.749,305.020 390.400,304.800 390.400 C 304.580 390.400,304.400 390.164,304.400 389.875 C 304.400 389.587,304.040 388.964,303.600 388.492 C 303.160 388.020,302.800 387.356,302.800 387.017 C 302.800 386.678,302.650 386.400,302.468 386.400 C 302.285 386.400,301.881 385.905,301.570 385.300 C 301.260 384.695,300.689 383.909,300.303 383.553 C 299.916 383.197,299.600 382.701,299.600 382.449 C 299.600 382.198,299.060 381.428,298.400 380.737 C 297.740 380.046,297.200 379.310,297.200 379.101 C 297.200 378.892,296.660 378.217,296.000 377.600 C 295.340 376.983,294.800 376.367,294.800 376.229 C 294.800 376.091,294.035 375.201,293.100 374.249 C 292.165 373.298,291.130 372.114,290.800 371.618 C 289.282 369.337,282.616 362.400,281.943 362.400 C 281.790 362.400,280.954 361.725,280.085 360.900 C 277.659 358.596,276.430 357.600,276.015 357.600 C 274.278 357.600,273.797 355.897,273.932 350.235 C 274.018 346.637,273.913 344.553,273.632 344.272 C 273.394 344.034,273.200 343.347,273.200 342.744 C 273.200 342.141,273.020 341.536,272.800 341.400 C 272.580 341.264,272.400 340.623,272.400 339.976 C 272.400 339.329,272.220 338.800,272.000 338.800 C 271.780 338.800,271.600 338.271,271.600 337.624 C 271.600 336.977,271.420 336.336,271.200 336.200 C 270.980 336.064,270.800 335.434,270.800 334.800 C 270.800 334.166,270.620 333.536,270.400 333.400 C 270.180 333.264,270.000 332.623,270.000 331.976 C 270.000 331.329,269.820 330.800,269.600 330.800 C 269.380 330.800,269.200 330.260,269.200 329.600 C 269.200 328.940,269.020 328.400,268.800 328.400 C 268.580 328.400,268.400 327.770,268.400 327.000 C 268.400 326.230,268.220 325.600,268.000 325.600 C 267.780 325.600,267.600 325.060,267.600 324.400 C 267.600 323.740,267.420 323.200,267.200 323.200 C 266.980 323.200,266.800 322.660,266.800 322.000 C 266.800 321.340,266.620 320.800,266.400 320.800 C 266.180 320.800,266.000 320.181,266.000 319.424 C 266.000 318.667,265.820 317.936,265.600 317.800 C 265.380 317.664,265.200 317.023,265.200 316.376 C 265.200 315.729,265.020 315.200,264.800 315.200 C 264.580 315.200,264.400 314.840,264.400 314.400 C 264.400 313.960,264.220 313.600,264.000 313.600 C 263.780 313.600,263.600 313.342,263.600 313.027 C 263.600 312.712,263.240 312.340,262.800 312.200 C 262.360 312.060,262.000 311.778,262.000 311.573 C 262.000 311.368,261.640 311.200,261.200 311.200 C 260.760 311.200,260.400 311.020,260.400 310.800 C 260.400 310.541,255.200 310.400,245.600 310.400 L 230.800 310.400 230.800 307.000 C 230.800 303.867,230.863 303.600,231.600 303.600 C 232.040 303.600,232.400 303.420,232.400 303.200 C 232.400 302.980,232.940 302.800,233.600 302.800 C 234.260 302.800,234.800 302.620,234.800 302.400 C 234.800 302.180,235.340 302.000,236.000 302.000 C 236.660 302.000,237.200 301.820,237.200 301.600 C 237.200 301.380,237.740 301.200,238.400 301.200 C 239.060 301.200,239.600 301.020,239.600 300.800 C 239.600 300.580,240.050 300.400,240.600 300.400 C 241.150 300.400,241.600 300.220,241.600 300.000 C 241.600 299.780,241.960 299.600,242.400 299.600 C 242.840 299.600,243.200 299.420,243.200 299.200 C 243.200 298.980,243.549 298.800,243.976 298.800 C 244.403 298.800,244.864 298.620,245.000 298.400 C 245.136 298.180,245.687 298.000,246.224 298.000 C 246.761 298.000,247.200 297.820,247.200 297.600 C 247.200 297.380,247.560 297.200,248.000 297.200 C 248.440 297.200,248.800 297.020,248.800 296.800 C 248.800 296.580,249.078 296.400,249.417 296.400 C 249.756 296.400,250.420 296.040,250.892 295.600 C 251.364 295.160,251.987 294.800,252.275 294.800 C 252.564 294.800,252.800 294.620,252.800 294.400 C 252.800 294.180,253.091 294.000,253.446 294.000 C 255.920 294.000,258.177 286.582,256.300 284.620 C 256.025 284.333,255.535 283.716,255.212 283.249 C 254.888 282.782,254.393 282.400,254.112 282.400 C 253.830 282.400,253.600 282.220,253.600 282.000 C 253.600 281.767,252.267 281.600,250.400 281.600 C 248.533 281.600,247.200 281.767,247.200 282.000 C 247.200 282.220,246.840 282.400,246.400 282.400 C 245.960 282.400,245.600 282.559,245.600 282.753 C 245.600 282.948,245.285 283.210,244.900 283.336 C 244.515 283.462,243.430 284.023,242.489 284.582 C 241.548 285.142,240.513 285.600,240.189 285.600 C 239.865 285.600,239.600 285.780,239.600 286.000 C 239.600 286.220,239.240 286.400,238.800 286.400 C 238.360 286.400,238.000 286.580,238.000 286.800 C 238.000 287.020,237.640 287.200,237.200 287.200 C 236.760 287.200,236.400 287.380,236.400 287.600 C 236.400 287.820,235.860 288.000,235.200 288.000 C 234.540 288.000,234.000 288.180,234.000 288.400 C 234.000 288.620,233.550 288.800,233.000 288.800 C 232.450 288.800,232.000 288.980,232.000 289.200 C 232.000 289.420,231.471 289.600,230.824 289.600 C 230.177 289.600,229.536 289.780,229.400 290.000 C 229.264 290.220,228.623 290.400,227.976 290.400 C 227.329 290.400,226.800 290.561,226.800 290.758 C 226.800 291.144,226.032 291.276,219.600 291.996 C 217.290 292.254,214.770 292.640,214.000 292.853 C 210.574 293.802,181.250 292.829,176.906 291.623 C 176.078 291.393,174.905 291.203,174.300 291.202 C 173.695 291.201,173.200 291.020,173.200 290.800 C 173.200 290.580,172.570 290.400,171.800 290.400 C 171.030 290.400,170.400 290.220,170.400 290.000 C 170.400 289.780,169.961 289.600,169.424 289.600 C 168.887 289.600,168.336 289.420,168.200 289.200 C 168.064 288.980,167.513 288.800,166.976 288.800 C 166.439 288.800,166.000 288.620,166.000 288.400 C 166.000 288.180,165.460 288.000,164.800 288.000 C 164.140 288.000,163.600 287.820,163.600 287.600 C 163.600 287.380,163.240 287.200,162.800 287.200 C 162.360 287.200,162.000 287.020,162.000 286.800 C 162.000 286.580,161.640 286.400,161.200 286.400 C 160.760 286.400,160.400 286.220,160.400 286.000 C 160.400 285.780,160.147 285.600,159.838 285.600 C 159.172 285.600,155.859 283.932,155.667 283.500 C 155.593 283.335,155.278 283.200,154.967 283.200 C 154.655 283.200,154.400 283.020,154.400 282.800 C 154.400 282.580,154.122 282.400,153.783 282.400 C 153.444 282.400,152.780 282.040,152.308 281.600 C 151.836 281.160,151.213 280.800,150.925 280.800 C 150.636 280.800,150.400 280.620,150.400 280.400 C 150.400 280.180,150.175 280.000,149.900 279.999 C 149.625 279.999,148.770 279.459,148.000 278.800 C 147.230 278.141,146.457 277.601,146.282 277.601 C 146.107 277.600,145.530 277.195,145.001 276.700 C 143.301 275.110,142.846 274.800,142.217 274.800 C 141.878 274.800,141.600 274.622,141.600 274.405 C 141.600 274.187,139.710 272.119,137.400 269.809 C 135.090 267.499,133.200 265.427,133.200 265.205 C 133.200 264.982,133.020 264.800,132.800 264.800 C 132.580 264.800,132.400 264.602,132.400 264.360 C 132.400 264.119,131.860 263.417,131.200 262.800 C 130.540 262.183,130.000 261.526,130.000 261.340 C 129.999 261.153,129.594 260.520,129.100 259.934 C 128.605 259.347,127.885 258.490,127.500 258.029 C 127.115 257.568,126.800 256.963,126.800 256.684 C 126.800 256.405,126.440 255.917,126.000 255.600 C 125.560 255.283,125.200 254.789,125.200 254.501 C 125.200 254.073,122.677 248.684,121.175 245.905 C 120.969 245.523,120.800 244.938,120.800 244.605 C 120.800 244.272,120.620 244.000,120.400 244.000 C 120.180 244.000,120.000 243.550,120.000 243.000 C 120.000 242.450,119.820 242.000,119.600 242.000 C 119.380 242.000,119.200 241.460,119.200 240.800 C 119.200 240.140,119.020 239.600,118.800 239.600 C 118.580 239.600,118.400 239.060,118.400 238.400 C 118.400 237.740,118.220 237.200,118.000 237.200 C 117.780 237.200,117.600 236.660,117.600 236.000 C 117.600 235.340,117.420 234.800,117.200 234.800 C 116.980 234.800,116.800 233.990,116.800 233.000 C 116.800 232.010,116.620 231.200,116.400 231.200 C 116.180 231.200,116.000 230.300,116.000 229.200 C 116.000 228.100,115.820 227.200,115.600 227.200 C 115.367 227.200,115.200 225.875,115.200 224.024 C 115.200 222.277,115.020 220.736,114.800 220.600 C 114.541 220.440,114.400 211.986,114.400 196.548 C 114.400 171.468,114.391 171.600,116.131 171.600 C 119.062 171.600,123.832 167.369,145.079 145.921 C 153.195 137.729,153.575 137.422,154.451 138.362 C 154.863 138.805,155.200 139.320,155.200 139.508 C 155.200 139.695,155.965 140.590,156.900 141.497 C 157.835 142.403,159.230 143.869,160.000 144.754 C 160.770 145.639,161.591 146.371,161.825 146.382 C 162.058 146.392,162.636 146.760,163.108 147.200 C 163.580 147.640,164.244 148.000,164.583 148.000 C 164.922 148.000,165.200 148.180,165.200 148.400 C 165.200 148.620,165.560 148.800,166.000 148.800 C 166.440 148.800,166.800 148.980,166.800 149.200 C 166.800 149.420,167.340 149.600,168.000 149.600 C 168.660 149.600,169.200 149.780,169.200 150.000 C 169.200 150.220,169.740 150.400,170.400 150.400 C 171.060 150.400,171.600 150.580,171.600 150.800 C 171.600 151.051,174.067 151.200,178.200 151.200 C 182.333 151.200,184.800 151.051,184.800 150.800 C 184.800 150.580,185.520 150.400,186.400 150.400 C 187.280 150.400,188.000 150.220,188.000 150.000 C 188.000 149.780,188.450 149.600,189.000 149.600 C 189.550 149.600,190.000 149.420,190.000 149.200 C 190.000 148.980,190.278 148.800,190.617 148.800 C 190.956 148.800,191.620 148.440,192.092 148.000 C 192.564 147.560,193.187 147.200,193.475 147.200 C 193.764 147.200,194.000 147.020,194.000 146.800 C 194.000 146.580,194.248 146.400,194.551 146.400 C 195.162 146.400,198.353 143.486,204.516 137.300 C 208.381 133.420,211.342 130.456,220.900 120.900 C 223.155 118.646,226.842 114.956,229.093 112.700 C 237.204 104.576,235.917 104.880,240.903 109.907 C 241.962 110.975,247.402 116.417,257.294 126.306 C 257.954 126.966,260.905 129.957,263.851 132.953 C 266.797 135.949,269.373 138.400,269.575 138.400 C 269.777 138.400,270.194 138.651,270.500 138.957 C 271.351 139.808,275.071 141.600,275.987 141.600 C 276.434 141.600,276.800 141.780,276.800 142.000 C 276.800 142.220,277.520 142.400,278.400 142.400 C 279.280 142.400,280.000 142.580,280.000 142.800 C 280.000 143.029,281.200 143.200,282.800 143.200 L 285.600 143.200 285.600 181.600 C 285.600 206.933,285.464 220.000,285.200 220.000 C 284.965 220.000,284.800 221.392,284.800 223.376 C 284.800 225.233,284.620 226.864,284.400 227.000 C 284.180 227.136,284.000 228.036,284.000 229.000 C 284.000 229.964,283.820 230.864,283.600 231.000 C 283.380 231.136,283.200 231.946,283.200 232.800 C 283.200 233.654,283.020 234.464,282.800 234.600 C 282.580 234.736,282.400 235.377,282.400 236.024 C 282.400 236.671,282.220 237.200,282.000 237.200 C 281.780 237.200,281.600 237.740,281.600 238.400 C 281.600 239.060,281.420 239.600,281.200 239.600 C 280.980 239.600,280.800 240.140,280.800 240.800 C 280.800 241.460,280.620 242.000,280.400 242.000 C 280.180 242.000,280.000 242.324,280.000 242.719 C 280.000 243.115,278.830 245.824,277.400 248.739 C 275.970 251.655,274.800 254.262,274.800 254.532 C 274.800 254.802,274.440 255.283,274.000 255.600 C 273.560 255.917,273.200 256.457,273.200 256.800 C 273.200 257.143,272.840 257.683,272.400 258.000 C 271.960 258.317,271.600 258.807,271.600 259.088 C 271.600 259.370,271.450 259.600,271.268 259.600 C 271.085 259.600,270.680 260.090,270.368 260.689 C 270.055 261.289,269.125 262.480,268.300 263.338 C 267.475 264.195,266.800 265.066,266.800 265.274 C 266.800 265.482,265.900 266.529,264.800 267.600 C 263.700 268.671,262.800 269.830,262.800 270.174 C 262.800 270.518,262.620 270.800,262.400 270.800 C 261.824 270.800,261.905 275.446,262.500 276.483 C 263.139 277.598,264.402 278.861,265.517 279.500 C 266.556 280.095,271.600 280.178,271.600 279.600 C 271.600 279.380,271.915 279.195,272.300 279.188 C 272.685 279.181,273.450 278.630,274.000 277.963 C 274.550 277.296,275.405 276.319,275.900 275.793 C 276.395 275.267,276.800 274.724,276.800 274.587 C 276.800 274.450,277.520 273.646,278.400 272.800 C 279.280 271.954,280.000 271.051,280.000 270.792 C 280.000 270.533,280.540 269.817,281.200 269.200 C 281.860 268.583,282.400 267.831,282.400 267.528 C 282.400 267.225,282.760 266.717,283.200 266.400 C 283.640 266.083,284.000 265.586,284.000 265.295 C 284.000 265.004,284.360 264.380,284.800 263.908 C 285.240 263.436,285.600 262.813,285.600 262.525 C 285.600 262.236,285.780 262.000,286.000 262.000 C 286.220 262.000,286.400 261.640,286.400 261.200 C 286.400 260.760,286.540 260.400,286.710 260.400 C 287.261 260.400,291.600 251.384,291.600 250.240 C 291.600 249.888,291.780 249.600,292.000 249.600 C 292.220 249.600,292.400 249.060,292.400 248.400 C 292.400 247.222,292.913 246.812,293.400 247.600 C 293.536 247.820,294.087 248.000,294.624 248.000 C 295.161 248.000,295.600 248.180,295.600 248.400 C 295.600 248.620,296.129 248.800,296.776 248.800 C 297.423 248.800,298.064 248.980,298.200 249.200 C 298.336 249.420,299.427 249.600,300.624 249.600 C 301.821 249.600,302.800 249.780,302.800 250.000 C 302.800 250.243,304.600 250.400,307.400 250.400 C 310.200 250.400,312.000 250.243,312.000 250.000 C 312.000 249.778,313.067 249.600,314.400 249.600 C 315.733 249.600,316.800 249.422,316.800 249.200 C 316.800 248.980,317.329 248.800,317.976 248.800 C 318.623 248.800,319.264 248.620,319.400 248.400 C 319.536 248.180,320.087 248.000,320.624 248.000 C 321.161 248.000,321.600 247.820,321.600 247.600 C 321.600 247.380,322.050 247.200,322.600 247.200 C 323.150 247.200,323.600 247.020,323.600 246.800 C 323.600 246.580,323.878 246.400,324.217 246.400 C 324.556 246.400,325.220 246.040,325.692 245.600 C 326.164 245.160,326.787 244.800,327.075 244.800 C 327.364 244.800,327.600 244.620,327.600 244.400 C 327.600 244.180,327.888 244.000,328.240 244.000 C 328.591 244.000,329.383 243.460,330.000 242.800 C 330.617 242.140,331.364 241.599,331.660 241.598 C 332.581 241.595,338.778 234.733,338.793 233.700 C 338.797 233.425,338.942 233.200,339.116 233.200 C 339.538 233.200,341.600 229.099,341.600 228.260 C 341.600 227.897,341.780 227.600,342.000 227.600 C 342.220 227.600,342.400 227.060,342.400 226.400 C 342.400 225.740,342.580 225.200,342.800 225.200 C 343.020 225.200,343.200 224.750,343.200 224.200 C 343.200 223.650,343.380 223.200,343.600 223.200 C 343.820 223.200,344.000 222.390,344.000 221.400 C 344.000 220.410,344.180 219.600,344.400 219.600 C 344.651 219.600,344.800 217.075,344.800 212.824 C 344.800 208.737,344.641 205.949,344.400 205.800 C 344.180 205.664,344.000 204.753,344.000 203.776 C 344.000 202.799,343.820 202.000,343.600 202.000 C 343.380 202.000,343.200 201.460,343.200 200.800 C 343.200 200.140,343.020 199.600,342.800 199.600 C 342.580 199.600,342.400 199.186,342.400 198.680 C 342.400 198.174,342.243 197.589,342.052 197.380 C 341.081 196.321,341.164 194.800,342.192 194.800 C 342.747 194.800,343.200 194.620,343.200 194.400 C 343.200 194.180,343.560 194.000,344.000 194.000 C 344.440 194.000,344.800 193.820,344.800 193.600 C 344.800 193.380,345.160 193.200,345.600 193.200 C 346.040 193.200,346.400 193.020,346.400 192.800 C 346.400 192.580,346.760 192.400,347.200 192.400 C 347.640 192.400,348.000 192.220,348.000 192.000 C 348.000 191.780,348.315 191.597,348.700 191.594 C 349.085 191.590,349.980 191.095,350.689 190.494 C 351.398 189.892,352.430 189.078,352.983 188.685 C 354.278 187.766,358.202 182.854,358.571 181.692 C 358.727 181.201,359.022 180.800,359.227 180.800 C 359.432 180.800,359.600 180.440,359.600 180.000 C 359.600 179.560,359.780 179.200,360.000 179.200 C 360.220 179.200,360.400 178.840,360.400 178.400 C 360.400 177.960,360.580 177.600,360.800 177.600 C 361.020 177.600,361.200 177.060,361.200 176.400 C 361.200 175.740,361.380 175.200,361.600 175.200 C 361.820 175.200,362.000 174.660,362.000 174.000 C 362.000 173.340,362.180 172.800,362.400 172.800 C 362.620 172.800,362.800 172.001,362.800 171.024 C 362.800 170.047,362.980 169.136,363.200 169.000 C 363.431 168.858,363.600 166.729,363.600 163.976 C 363.600 161.059,363.444 159.200,363.200 159.200 C 362.980 159.200,362.800 158.300,362.800 157.200 C 362.800 156.100,362.620 155.200,362.400 155.200 C 362.180 155.200,362.000 154.660,362.000 154.000 C 362.000 153.340,361.820 152.800,361.600 152.800 C 361.380 152.800,361.200 152.260,361.200 151.600 C 361.200 150.940,361.020 150.400,360.800 150.400 C 360.580 150.400,360.400 150.040,360.400 149.600 C 360.400 149.160,360.220 148.800,360.000 148.800 C 359.780 148.800,359.600 148.440,359.600 148.000 C 359.600 147.560,359.432 147.200,359.227 147.200 C 359.022 147.200,358.728 146.795,358.573 146.300 C 358.236 145.220,355.723 142.113,353.072 139.499 C 350.929 137.385,350.873 137.641,354.010 135.217 C 354.994 134.456,356.007 133.556,356.259 133.217 C 356.511 132.878,357.091 132.174,357.547 131.652 C 358.003 131.131,358.484 130.366,358.615 129.952 C 358.746 129.539,359.022 129.200,359.227 129.200 C 359.432 129.200,359.600 128.880,359.600 128.488 C 359.600 128.097,359.960 127.517,360.400 127.200 C 360.840 126.883,361.200 126.303,361.200 125.912 C 361.200 125.520,361.380 125.200,361.600 125.200 C 361.820 125.200,362.000 124.840,362.000 124.400 C 362.000 123.960,362.180 123.600,362.400 123.600 C 362.620 123.600,362.800 123.150,362.800 122.600 C 362.800 122.050,362.980 121.600,363.200 121.600 C 363.420 121.600,363.600 121.060,363.600 120.400 C 363.600 119.740,363.780 119.200,364.000 119.200 C 364.220 119.200,364.400 118.300,364.400 117.200 C 364.400 116.100,364.580 115.200,364.800 115.200 C 365.044 115.200,365.200 113.341,365.200 110.424 C 365.200 107.671,365.031 105.542,364.800 105.400 C 364.580 105.264,364.400 104.263,364.400 103.176 C 364.400 102.089,364.220 101.200,364.000 101.200 C 363.780 101.200,363.600 100.660,363.600 100.000 C 363.600 99.340,363.420 98.800,363.200 98.800 C 362.980 98.800,362.800 98.457,362.800 98.038 C 362.800 97.222,361.199 93.888,360.700 93.667 C 360.535 93.593,360.400 93.278,360.400 92.967 C 360.400 92.655,360.220 92.400,360.000 92.400 C 359.780 92.400,359.600 92.145,359.600 91.833 C 359.600 91.522,359.465 91.207,359.300 91.133 C 359.135 91.060,358.460 90.197,357.800 89.217 C 357.140 88.236,353.900 84.773,350.600 81.521 C 347.300 78.270,343.902 74.910,343.049 74.055 C 340.592 71.592,327.727 58.725,326.397 57.400 C 325.734 56.740,322.049 53.050,318.207 49.200 C 314.365 45.350,310.632 41.611,309.911 40.891 C 309.190 40.171,305.938 36.886,302.685 33.591 C 299.431 30.296,296.588 27.600,296.366 27.600 C 296.145 27.600,295.527 27.164,294.994 26.630 C 294.461 26.097,293.389 25.431,292.612 25.150 C 291.835 24.869,291.200 24.495,291.200 24.320 C 291.200 24.144,290.840 24.000,290.400 24.000 C 289.960 24.000,289.600 23.820,289.600 23.600 C 289.600 23.380,289.240 23.200,288.800 23.200 C 288.360 23.200,288.000 23.020,288.000 22.800 C 288.000 22.580,287.640 22.400,287.200 22.400 C 286.760 22.400,286.400 22.220,286.400 22.000 C 286.400 21.780,285.860 21.600,285.200 21.600 C 284.540 21.600,284.000 21.420,284.000 21.200 C 284.000 20.980,283.460 20.800,282.800 20.800 C 282.140 20.800,281.600 20.620,281.600 20.400 C 281.600 20.180,280.700 20.000,279.600 20.000 C 278.500 20.000,277.600 19.820,277.600 19.600 C 277.600 19.060,264.934 19.060,264.600 19.600 C 264.464 19.820,263.564 20.000,262.600 20.000 C 261.636 20.000,260.736 20.180,260.600 20.400 C 260.464 20.620,259.913 20.800,259.376 20.800 C 258.839 20.800,258.400 20.980,258.400 21.200 C 258.400 21.420,257.860 21.600,257.200 21.600 C 256.540 21.600,256.000 21.780,256.000 22.000 C 256.000 22.220,255.651 22.400,255.224 22.400 C 254.797 22.400,254.336 22.580,254.200 22.800 C 254.064 23.020,253.553 23.200,253.065 23.200 C 252.576 23.200,251.917 23.560,251.600 24.000 C 251.283 24.440,250.791 24.800,250.506 24.800 C 249.592 24.800,243.597 28.826,243.267 29.663 C 243.193 29.848,242.951 30.000,242.727 30.000 C 242.504 30.000,241.817 30.540,241.200 31.200 C 240.583 31.860,239.903 32.400,239.688 32.400 C 239.473 32.400,238.555 33.120,237.648 34.000 C 236.741 34.880,235.802 35.600,235.560 35.600 C 235.319 35.600,234.617 36.140,234.000 36.800 C 233.383 37.460,232.719 38.000,232.524 38.000 C 232.328 38.000,231.372 38.720,230.400 39.600 C 229.428 40.480,228.400 41.200,228.116 41.200 C 227.832 41.200,227.600 41.337,227.600 41.504 C 227.600 42.851,225.910 42.741,224.492 41.301 C 223.672 40.468,222.372 39.342,221.605 38.799 C 220.838 38.255,219.335 36.953,218.265 35.905 C 217.195 34.857,216.153 34.000,215.951 34.000 C 215.748 34.000,214.593 33.010,213.383 31.800 C 212.173 30.590,211.021 29.600,210.823 29.600 C 210.625 29.600,209.764 28.925,208.909 28.100 C 207.042 26.298,205.267 24.800,204.999 24.800 C 204.892 24.800,203.885 23.900,202.761 22.800 C 201.638 21.700,200.558 20.800,200.362 20.800 C 200.166 20.800,198.908 19.720,197.568 18.400 C 196.227 17.080,194.954 16.000,194.739 16.000 C 194.524 16.000,193.471 15.100,192.400 14.000 C 191.329 12.900,190.340 12.000,190.204 12.000 C 190.068 12.000,189.386 11.466,188.688 10.814 C 187.990 10.162,186.830 9.311,186.110 8.923 C 185.389 8.535,184.800 8.079,184.800 7.909 C 184.800 7.739,184.440 7.600,184.000 7.600 C 183.560 7.600,183.200 7.420,183.200 7.200 C 183.200 6.980,182.855 6.800,182.433 6.800 C 182.012 6.800,181.607 6.665,181.533 6.500 C 181.345 6.076,176.401 3.600,175.744 3.600 C 175.445 3.600,175.200 3.420,175.200 3.200 C 175.200 2.980,174.750 2.800,174.200 2.800 C 173.650 2.800,173.200 2.620,173.200 2.400 C 173.200 2.180,172.660 2.000,172.000 2.000 C 171.340 2.000,170.800 1.820,170.800 1.600 C 170.800 1.380,170.275 1.200,169.633 1.200 C 168.992 1.200,168.394 0.981,168.304 0.713 C 168.141 0.222,147.100 -0.152,143.400 0.271 M152.200 154.000 C 152.064 154.220,151.243 154.400,150.376 154.400 C 149.509 154.400,148.800 154.580,148.800 154.800 C 148.800 155.020,148.451 155.200,148.024 155.200 C 147.597 155.200,147.136 155.380,147.000 155.600 C 146.864 155.820,146.403 156.000,145.976 156.000 C 145.549 156.000,145.200 156.180,145.200 156.400 C 145.200 156.620,144.930 156.800,144.600 156.800 C 144.270 156.800,144.000 156.980,144.000 157.200 C 144.000 157.420,143.801 157.600,143.558 157.600 C 143.048 157.600,139.952 159.937,139.491 160.669 C 139.321 160.940,138.916 161.427,138.591 161.752 C 137.901 162.442,137.730 168.400,138.400 168.400 C 138.620 168.400,138.800 168.694,138.800 169.053 C 138.800 169.953,140.804 171.599,141.900 171.600 C 142.395 171.600,142.800 171.780,142.800 172.000 C 142.800 173.180,147.198 171.966,148.957 170.300 C 149.596 169.695,150.362 169.200,150.659 169.200 C 150.957 169.200,151.200 169.064,151.200 168.898 C 151.200 168.731,151.785 168.360,152.500 168.071 C 153.215 167.783,154.113 167.379,154.495 167.174 C 155.424 166.674,159.200 166.695,159.200 167.200 C 159.200 167.420,159.562 167.600,160.005 167.600 C 161.000 167.600,162.178 168.264,163.730 169.700 C 164.384 170.305,165.162 170.800,165.459 170.800 C 165.757 170.800,166.000 170.980,166.000 171.200 C 166.000 171.420,166.349 171.600,166.776 171.600 C 167.203 171.600,167.664 171.780,167.800 172.000 C 168.891 173.765,175.200 170.620,175.200 168.311 C 175.200 167.920,175.380 167.600,175.600 167.600 C 175.822 167.600,176.000 166.533,176.000 165.200 C 176.000 163.867,175.822 162.800,175.600 162.800 C 175.380 162.800,175.200 162.477,175.200 162.081 C 175.200 161.284,172.445 158.400,171.683 158.400 C 171.417 158.400,171.200 158.220,171.200 158.000 C 171.200 157.780,170.930 157.600,170.600 157.600 C 170.270 157.600,170.000 157.420,170.000 157.200 C 170.000 156.980,169.640 156.800,169.200 156.800 C 168.760 156.800,168.400 156.620,168.400 156.400 C 168.400 156.180,168.040 156.000,167.600 156.000 C 167.160 156.000,166.800 155.820,166.800 155.600 C 166.800 155.380,166.260 155.200,165.600 155.200 C 164.940 155.200,164.400 155.020,164.400 154.800 C 164.400 154.580,163.680 154.400,162.800 154.400 C 161.920 154.400,161.200 154.220,161.200 154.000 C 161.200 153.758,159.475 153.600,156.824 153.600 C 154.337 153.600,152.340 153.773,152.200 154.000 M239.600 154.000 C 239.600 154.220,238.880 154.400,238.000 154.400 C 237.120 154.400,236.400 154.580,236.400 154.800 C 236.400 155.020,235.860 155.200,235.200 155.200 C 234.540 155.200,234.000 155.380,234.000 155.600 C 234.000 155.820,233.640 156.000,233.200 156.000 C 232.760 156.000,232.400 156.180,232.400 156.400 C 232.400 156.620,232.080 156.800,231.688 156.800 C 231.297 156.800,230.717 157.160,230.400 157.600 C 230.083 158.040,229.585 158.400,229.294 158.400 C 228.334 158.400,225.733 161.186,225.208 162.776 C 224.116 166.083,225.352 169.981,227.866 171.161 C 228.490 171.454,229.313 171.852,229.695 172.047 C 230.077 172.241,230.844 172.400,231.400 172.400 C 231.956 172.400,232.723 172.241,233.105 172.047 C 233.487 171.852,234.340 171.447,235.000 171.147 C 235.660 170.846,236.677 170.105,237.260 169.500 C 237.844 168.895,238.609 168.400,238.960 168.400 C 239.312 168.400,239.600 168.220,239.600 168.000 C 239.600 167.780,240.050 167.600,240.600 167.600 C 241.150 167.600,241.600 167.420,241.600 167.200 C 241.600 166.978,242.667 166.800,244.000 166.800 C 245.333 166.800,246.400 166.978,246.400 167.200 C 246.400 167.420,246.816 167.600,247.325 167.600 C 247.833 167.600,248.636 167.960,249.108 168.400 C 249.580 168.840,250.172 169.200,250.423 169.200 C 250.674 169.200,251.356 169.696,251.940 170.301 C 253.520 171.942,258.000 173.198,258.000 172.000 C 258.000 171.780,258.458 171.600,259.018 171.600 C 260.027 171.600,262.000 170.024,262.000 169.218 C 262.000 168.988,262.180 168.800,262.400 168.800 C 262.635 168.800,262.800 167.400,262.800 165.400 C 262.800 163.400,262.635 162.000,262.400 162.000 C 262.180 162.000,262.000 161.812,262.000 161.582 C 262.000 160.638,255.881 156.000,254.636 156.000 C 254.286 156.000,254.000 155.820,254.000 155.600 C 254.000 155.380,253.550 155.200,253.000 155.200 C 252.450 155.200,252.000 155.020,252.000 154.800 C 252.000 154.580,251.291 154.400,250.424 154.400 C 249.557 154.400,248.736 154.220,248.600 154.000 C 248.460 153.773,246.463 153.600,243.976 153.600 C 241.325 153.600,239.600 153.758,239.600 154.000 M153.000 181.200 C 152.864 181.420,152.489 181.600,152.166 181.600 C 151.494 181.600,148.000 184.960,148.000 185.606 C 148.000 185.841,147.640 186.420,147.200 186.892 C 146.760 187.364,146.400 188.167,146.400 188.675 C 146.400 189.184,146.220 189.600,146.000 189.600 C 145.780 189.600,145.600 190.592,145.600 191.805 C 145.600 193.018,145.385 194.355,145.122 194.776 C 144.752 195.369,144.752 195.777,145.122 196.589 C 145.385 197.166,145.600 198.519,145.600 199.595 C 145.600 200.672,145.780 201.664,146.000 201.800 C 146.220 201.936,146.400 202.397,146.400 202.824 C 146.400 203.251,146.580 203.600,146.800 203.600 C 147.020 203.600,147.200 203.960,147.200 204.400 C 147.200 204.840,147.380 205.200,147.600 205.200 C 147.820 205.200,148.000 205.435,148.000 205.722 C 148.000 206.470,150.512 208.800,151.319 208.800 C 151.694 208.800,152.000 208.980,152.000 209.200 C 152.000 209.420,152.360 209.600,152.800 209.600 C 153.240 209.600,153.600 209.780,153.600 210.000 C 153.600 210.226,154.733 210.400,156.200 210.400 C 157.667 210.400,158.800 210.226,158.800 210.000 C 158.800 209.780,159.160 209.600,159.600 209.600 C 160.040 209.600,160.400 209.420,160.400 209.200 C 160.400 208.980,160.751 208.800,161.180 208.800 C 162.024 208.800,164.395 206.516,164.398 205.700 C 164.399 205.425,164.580 205.200,164.800 205.200 C 165.020 205.200,165.200 204.930,165.200 204.600 C 165.200 204.270,165.380 204.000,165.600 204.000 C 165.820 204.000,166.000 203.550,166.000 203.000 C 166.000 202.450,166.180 202.000,166.400 202.000 C 166.620 202.000,166.800 201.111,166.800 200.024 C 166.800 198.937,166.980 197.936,167.200 197.800 C 167.420 197.664,167.600 196.663,167.600 195.576 C 167.600 194.489,167.420 193.600,167.200 193.600 C 166.980 193.600,166.800 192.700,166.800 191.600 C 166.800 190.500,166.620 189.600,166.400 189.600 C 166.180 189.600,166.000 189.060,166.000 188.400 C 166.000 187.740,165.820 187.200,165.600 187.200 C 165.380 187.200,165.200 186.954,165.200 186.654 C 165.200 185.878,160.997 181.600,160.235 181.600 C 159.886 181.600,159.600 181.420,159.600 181.200 C 159.600 180.967,158.275 180.800,156.424 180.800 C 154.677 180.800,153.136 180.980,153.000 181.200 M240.400 181.200 C 240.400 181.420,240.126 181.600,239.791 181.600 C 238.999 181.600,234.800 185.799,234.800 186.591 C 234.800 186.926,234.620 187.200,234.400 187.200 C 234.180 187.200,234.000 187.740,234.000 188.400 C 234.000 189.060,233.820 189.600,233.600 189.600 C 233.380 189.600,233.200 190.309,233.200 191.176 C 233.200 192.043,233.020 192.864,232.800 193.000 C 232.580 193.136,232.400 194.317,232.400 195.624 C 232.400 196.941,232.578 198.000,232.800 198.000 C 233.020 198.000,233.200 198.900,233.200 200.000 C 233.200 201.100,233.380 202.000,233.600 202.000 C 233.820 202.000,234.000 202.416,234.000 202.925 C 234.000 203.433,234.360 204.236,234.800 204.708 C 235.240 205.180,235.600 205.746,235.600 205.965 C 235.600 206.971,239.260 209.600,240.661 209.600 C 240.958 209.600,241.200 209.780,241.200 210.000 C 241.200 210.226,242.333 210.400,243.800 210.400 C 245.267 210.400,246.400 210.226,246.400 210.000 C 246.400 209.780,246.760 209.600,247.200 209.600 C 247.640 209.600,248.000 209.420,248.000 209.200 C 248.000 208.980,248.331 208.800,248.736 208.800 C 249.490 208.800,252.000 206.348,252.000 205.611 C 252.000 205.385,252.180 205.200,252.400 205.200 C 252.620 205.200,252.800 204.840,252.800 204.400 C 252.800 203.960,252.980 203.600,253.200 203.600 C 253.420 203.600,253.600 203.251,253.600 202.824 C 253.600 202.397,253.780 201.936,254.000 201.800 C 254.220 201.664,254.400 200.429,254.400 199.056 C 254.400 197.683,254.597 196.363,254.837 196.123 C 255.153 195.807,255.153 195.460,254.837 194.869 C 254.597 194.420,254.400 193.051,254.400 191.826 C 254.400 190.602,254.220 189.600,254.000 189.600 C 253.780 189.600,253.600 189.366,253.600 189.080 C 253.600 188.344,252.659 186.407,252.300 186.403 C 252.135 186.401,252.000 186.125,252.000 185.789 C 252.000 184.857,248.780 181.863,247.172 181.300 C 245.464 180.702,240.400 180.627,240.400 181.200 M98.200 189.200 C 98.336 189.420,98.851 189.600,99.344 189.600 C 101.006 189.600,101.200 190.257,101.200 195.880 C 101.200 200.933,101.160 201.200,100.400 201.200 C 99.960 201.200,99.600 201.020,99.600 200.800 C 99.600 200.580,98.700 200.400,97.600 200.400 C 96.500 200.400,95.600 200.220,95.600 200.000 C 95.600 199.757,93.800 199.600,91.000 199.600 C 88.200 199.600,86.400 199.757,86.400 200.000 C 86.400 200.220,85.607 200.400,84.638 200.400 C 82.623 200.400,79.579 201.824,79.293 202.900 C 79.190 203.285,78.948 203.600,78.753 203.600 C 78.559 203.600,78.400 203.949,78.400 204.376 C 78.400 204.803,78.220 205.264,78.000 205.400 C 77.780 205.536,77.600 206.256,77.600 207.000 C 77.600 207.744,77.780 208.464,78.000 208.600 C 78.220 208.736,78.400 209.197,78.400 209.624 C 78.400 210.051,78.580 210.400,78.800 210.400 C 79.020 210.400,79.200 210.630,79.200 210.911 C 79.200 211.485,80.596 212.800,81.205 212.800 C 81.422 212.800,81.600 212.980,81.600 213.200 C 81.600 213.433,82.933 213.600,84.800 213.600 C 86.667 213.600,88.000 213.433,88.000 213.200 C 88.000 212.975,89.125 212.800,90.576 212.800 C 91.993 212.800,93.264 212.980,93.400 213.200 C 93.536 213.420,94.267 213.600,95.024 213.600 C 95.781 213.600,96.400 213.780,96.400 214.000 C 96.400 214.220,96.672 214.400,97.005 214.400 C 99.299 214.400,101.200 216.748,101.200 219.582 C 101.200 220.927,101.377 222.000,101.600 222.000 C 101.837 222.000,102.000 223.467,102.000 225.600 C 102.000 227.733,102.163 229.200,102.400 229.200 C 102.620 229.200,102.800 230.190,102.800 231.400 C 102.800 232.698,102.976 233.600,103.229 233.600 C 103.464 233.600,103.387 233.870,103.057 234.200 C 102.727 234.530,102.174 234.800,101.829 234.800 C 101.483 234.800,101.200 234.980,101.200 235.200 C 101.200 235.420,100.660 235.600,100.000 235.600 C 99.340 235.600,98.800 235.780,98.800 236.000 C 98.800 236.220,98.091 236.400,97.224 236.400 C 96.357 236.400,95.536 236.580,95.400 236.800 C 95.264 237.020,93.914 237.200,92.400 237.200 C 90.886 237.200,89.536 237.020,89.400 236.800 C 89.264 236.580,88.443 236.400,87.576 236.400 C 86.709 236.400,86.000 236.220,86.000 236.000 C 86.000 235.780,85.561 235.600,85.024 235.600 C 84.487 235.600,83.936 235.420,83.800 235.200 C 83.664 234.980,83.237 234.800,82.852 234.800 C 82.466 234.800,81.764 234.440,81.292 234.000 C 80.820 233.560,80.196 233.200,79.905 233.200 C 79.614 233.200,79.117 232.840,78.800 232.400 C 78.483 231.960,77.976 231.600,77.673 231.600 C 77.113 231.600,73.220 227.663,73.207 227.083 C 73.203 226.909,72.840 226.380,72.400 225.908 C 71.960 225.436,71.600 224.813,71.600 224.525 C 71.600 224.236,71.420 224.000,71.200 224.000 C 70.980 224.000,70.800 223.640,70.800 223.200 C 70.800 222.760,70.620 222.400,70.400 222.400 C 70.180 222.400,70.000 221.961,70.000 221.424 C 70.000 220.887,69.820 220.336,69.600 220.200 C 69.380 220.064,69.200 219.423,69.200 218.776 C 69.200 218.129,69.020 217.600,68.800 217.600 C 68.555 217.600,68.400 215.675,68.400 212.624 C 68.400 209.737,68.568 207.543,68.800 207.400 C 69.020 207.264,69.200 206.724,69.200 206.200 C 69.200 205.676,69.380 205.136,69.600 205.000 C 69.820 204.864,70.000 204.313,70.000 203.776 C 70.000 203.239,70.180 202.800,70.400 202.800 C 70.620 202.800,70.800 202.440,70.800 202.000 C 70.800 201.560,70.950 201.200,71.132 201.200 C 71.315 201.200,71.720 200.708,72.032 200.106 C 73.049 198.145,78.398 192.400,79.206 192.400 C 79.454 192.400,79.927 192.130,80.257 191.800 C 80.587 191.470,81.204 191.200,81.629 191.200 C 82.053 191.200,82.400 191.059,82.400 190.887 C 82.400 190.715,83.255 190.344,84.300 190.061 C 85.345 189.779,86.470 189.390,86.800 189.197 C 87.647 188.703,97.894 188.705,98.200 189.200 M313.105 189.173 C 313.487 189.379,314.655 189.778,315.700 190.061 C 316.745 190.343,317.600 190.715,317.600 190.887 C 317.600 191.059,317.947 191.200,318.371 191.200 C 318.796 191.200,319.413 191.470,319.743 191.800 C 320.073 192.130,320.546 192.400,320.794 192.400 C 321.228 192.400,324.949 196.036,326.600 198.073 C 328.134 199.965,330.000 203.444,330.000 204.412 C 330.000 204.845,330.180 205.200,330.400 205.200 C 330.620 205.200,330.800 205.729,330.800 206.376 C 330.800 207.023,330.980 207.664,331.200 207.800 C 331.431 207.942,331.600 210.071,331.600 212.824 C 331.600 215.741,331.444 217.600,331.200 217.600 C 330.980 217.600,330.800 218.129,330.800 218.776 C 330.800 219.423,330.620 220.064,330.400 220.200 C 330.180 220.336,330.000 220.887,330.000 221.424 C 330.000 221.961,329.820 222.400,329.600 222.400 C 329.380 222.400,329.200 222.760,329.200 223.200 C 329.200 223.640,329.020 224.000,328.800 224.000 C 328.580 224.000,328.400 224.178,328.400 224.396 C 328.400 225.436,323.187 231.600,322.306 231.600 C 322.015 231.600,321.517 231.960,321.200 232.400 C 320.883 232.840,320.303 233.200,319.912 233.200 C 319.520 233.200,319.199 233.335,319.197 233.500 C 319.193 233.859,317.256 234.800,316.520 234.800 C 316.234 234.800,316.000 234.980,316.000 235.200 C 316.000 235.420,315.550 235.600,315.000 235.600 C 314.450 235.600,314.000 235.780,314.000 236.000 C 314.000 236.220,313.291 236.400,312.424 236.400 C 311.557 236.400,310.736 236.580,310.600 236.800 C 310.464 237.020,309.013 237.200,307.376 237.200 C 305.659 237.200,304.400 237.031,304.400 236.800 C 304.400 236.580,303.680 236.400,302.800 236.400 C 301.920 236.400,301.200 236.220,301.200 236.000 C 301.200 235.780,300.660 235.600,300.000 235.600 C 299.340 235.600,298.800 235.420,298.800 235.200 C 298.800 234.980,298.517 234.800,298.171 234.800 C 297.327 234.800,296.271 233.727,296.797 233.402 C 297.019 233.265,297.200 232.274,297.200 231.200 C 297.200 230.126,297.380 229.136,297.600 229.000 C 297.820 228.864,298.000 227.154,298.000 225.200 C 298.000 223.246,298.180 221.536,298.400 221.400 C 298.620 221.264,298.800 220.255,298.800 219.158 C 298.800 216.405,302.049 213.600,305.238 213.600 C 305.877 213.600,306.400 213.420,306.400 213.200 C 306.400 212.971,307.600 212.800,309.200 212.800 C 310.800 212.800,312.000 212.971,312.000 213.200 C 312.000 213.429,313.203 213.600,314.809 213.600 C 317.751 213.600,320.800 212.250,320.800 210.947 C 320.800 210.646,320.941 210.400,321.113 210.400 C 322.378 210.400,322.429 204.686,321.173 203.600 C 321.046 203.490,320.842 203.130,320.721 202.800 C 320.347 201.781,317.264 200.400,315.362 200.400 C 314.393 200.400,313.600 200.220,313.600 200.000 C 313.600 199.757,311.800 199.600,309.000 199.600 C 306.200 199.600,304.400 199.757,304.400 200.000 C 304.400 200.220,303.500 200.400,302.400 200.400 C 301.300 200.400,300.400 200.580,300.400 200.800 C 300.400 201.020,300.040 201.200,299.600 201.200 C 298.840 201.200,298.800 200.933,298.800 195.880 C 298.800 190.257,298.994 189.600,300.656 189.600 C 301.149 189.600,301.664 189.420,301.800 189.200 C 302.115 188.690,312.162 188.666,313.105 189.173 M180.800 218.800 C 180.800 219.020,180.260 219.200,179.600 219.200 C 178.940 219.200,178.400 219.380,178.400 219.600 C 178.400 219.820,178.207 220.000,177.971 220.000 C 176.837 220.000,175.200 222.937,175.200 224.974 C 175.200 226.692,176.044 230.000,176.483 230.000 C 176.657 230.000,176.800 230.360,176.800 230.800 C 176.800 231.240,176.980 231.600,177.200 231.600 C 177.420 231.600,177.600 231.960,177.600 232.400 C 177.600 232.840,177.780 233.200,178.000 233.200 C 178.220 233.200,178.400 233.458,178.400 233.773 C 178.400 234.630,184.676 240.798,186.027 241.269 C 186.672 241.494,187.200 241.841,187.200 242.039 C 187.200 242.238,187.560 242.400,188.000 242.400 C 188.440 242.400,188.800 242.580,188.800 242.800 C 188.800 243.020,189.239 243.200,189.776 243.200 C 190.313 243.200,190.864 243.380,191.000 243.600 C 191.136 243.820,191.687 244.000,192.224 244.000 C 192.761 244.000,193.200 244.180,193.200 244.400 C 193.200 244.622,194.259 244.800,195.576 244.800 C 196.883 244.800,198.064 244.980,198.200 245.200 C 198.336 245.420,199.146 245.600,200.000 245.600 C 200.854 245.600,201.664 245.420,201.800 245.200 C 201.936 244.980,203.117 244.800,204.424 244.800 C 205.741 244.800,206.800 244.622,206.800 244.400 C 206.800 244.180,207.250 244.000,207.800 244.000 C 208.350 244.000,208.800 243.820,208.800 243.600 C 208.800 243.380,209.340 243.200,210.000 243.200 C 210.660 243.200,211.200 243.020,211.200 242.800 C 211.200 242.580,211.560 242.400,212.000 242.400 C 212.440 242.400,212.800 242.238,212.800 242.039 C 212.800 241.841,213.328 241.494,213.973 241.269 C 215.324 240.798,221.600 234.630,221.600 233.773 C 221.600 233.458,221.780 233.200,222.000 233.200 C 222.220 233.200,222.400 232.840,222.400 232.400 C 222.400 231.960,222.580 231.600,222.800 231.600 C 223.020 231.600,223.200 231.240,223.200 230.800 C 223.200 230.360,223.336 230.000,223.503 230.000 C 223.995 230.000,224.800 226.950,224.800 225.086 C 224.800 223.245,223.084 220.000,222.111 220.000 C 221.830 220.000,221.600 219.820,221.600 219.600 C 221.600 219.380,221.060 219.200,220.400 219.200 C 219.740 219.200,219.200 219.020,219.200 218.800 C 219.200 218.580,218.660 218.400,218.000 218.400 C 217.340 218.400,216.800 218.580,216.800 218.800 C 216.800 219.020,216.332 219.200,215.760 219.200 C 214.593 219.200,212.000 221.517,212.000 222.560 C 212.000 222.912,211.820 223.200,211.600 223.200 C 211.380 223.200,211.200 223.560,211.200 224.000 C 211.200 224.440,211.020 224.800,210.800 224.800 C 210.580 224.800,210.400 225.074,210.400 225.410 C 210.400 226.344,205.835 230.800,204.877 230.800 C 204.421 230.800,203.936 230.980,203.800 231.200 C 203.664 231.420,202.858 231.600,202.010 231.600 C 201.161 231.600,200.362 231.825,200.233 232.100 C 200.047 232.500,199.953 232.500,199.767 232.100 C 199.638 231.825,198.976 231.600,198.295 231.600 C 196.581 231.600,194.372 230.769,193.304 229.722 C 192.811 229.239,192.169 228.699,191.876 228.522 C 191.088 228.044,188.800 224.553,188.800 223.828 C 188.800 223.483,188.620 223.200,188.400 223.200 C 188.180 223.200,188.000 222.912,188.000 222.560 C 188.000 221.517,185.407 219.200,184.240 219.200 C 183.668 219.200,183.200 219.020,183.200 218.800 C 183.200 218.580,182.660 218.400,182.000 218.400 C 181.340 218.400,180.800 218.580,180.800 218.800 M185.800 306.400 C 185.957 306.654,191.130 306.800,200.000 306.800 C 208.870 306.800,214.043 306.654,214.200 306.400 C 214.336 306.180,215.157 306.000,216.024 306.000 L 217.600 306.000 217.600 324.029 C 217.600 342.793,217.627 342.477,215.931 343.426 C 215.015 343.938,211.801 346.642,209.662 348.700 C 208.690 349.635,207.727 350.400,207.521 350.400 C 207.316 350.400,206.271 351.300,205.200 352.400 C 204.129 353.500,203.042 354.400,202.786 354.400 C 202.530 354.400,201.799 354.959,201.160 355.642 L 200.000 356.885 198.840 355.642 C 198.201 354.959,197.482 354.400,197.242 354.400 C 197.001 354.400,195.885 353.500,194.761 352.400 C 193.638 351.300,192.581 350.400,192.412 350.400 C 192.243 350.400,191.310 349.635,190.338 348.700 C 188.199 346.642,184.985 343.938,184.069 343.426 C 182.373 342.477,182.400 342.793,182.400 324.029 L 182.400 306.000 183.976 306.000 C 184.843 306.000,185.664 306.180,185.800 306.400 M169.200 327.400 C 169.200 330.981,169.089 331.239,168.047 330.081 C 167.691 329.686,166.770 328.925,166.000 328.390 C 165.230 327.855,164.204 327.053,163.719 326.609 C 162.164 325.181,161.642 324.800,161.240 324.800 C 161.024 324.800,160.736 324.620,160.600 324.400 C 160.441 324.143,161.929 324.000,164.776 324.000 L 169.200 324.000 169.200 327.400 M239.400 324.400 C 239.264 324.620,238.976 324.800,238.760 324.800 C 238.313 324.800,237.739 325.245,235.792 327.100 C 235.041 327.815,234.267 328.400,234.073 328.400 C 233.878 328.400,233.154 328.940,232.463 329.600 C 230.770 331.218,230.800 331.258,230.800 327.400 L 230.800 324.000 235.224 324.000 C 238.071 324.000,239.559 324.143,239.400 324.400 M145.600 329.600 C 145.600 329.820,145.870 330.000,146.200 330.000 C 146.530 330.000,146.800 330.180,146.800 330.400 C 146.800 330.620,146.979 330.800,147.198 330.800 C 147.417 330.800,148.515 331.700,149.639 332.800 C 150.762 333.900,151.857 334.800,152.072 334.800 C 152.287 334.800,153.154 335.520,154.000 336.400 C 154.846 337.280,155.705 338.000,155.909 338.000 C 156.114 338.000,156.803 338.497,157.441 339.105 C 158.078 339.713,159.315 340.748,160.188 341.405 C 161.061 342.062,162.478 343.275,163.336 344.100 C 164.194 344.925,165.054 345.600,165.246 345.600 C 165.439 345.600,166.515 346.500,167.639 347.600 C 168.762 348.700,169.848 349.600,170.051 349.600 C 170.255 349.600,171.227 350.365,172.213 351.300 C 173.199 352.235,174.949 353.779,176.103 354.731 C 177.256 355.683,178.830 356.992,179.600 357.639 L 181.000 358.816 162.754 358.708 L 144.509 358.600 142.649 356.631 C 139.763 353.575,138.547 348.804,139.963 346.095 C 140.609 344.860,141.600 341.141,141.600 339.954 C 141.600 339.319,141.780 338.800,142.000 338.800 C 142.220 338.800,142.400 338.260,142.400 337.600 C 142.400 336.940,142.580 336.400,142.800 336.400 C 143.020 336.400,143.200 335.860,143.200 335.200 C 143.200 334.540,143.380 334.000,143.600 334.000 C 143.820 334.000,144.000 333.280,144.000 332.400 C 144.000 331.520,144.180 330.800,144.400 330.800 C 144.620 330.800,144.800 330.440,144.800 330.000 C 144.800 329.560,144.980 329.200,145.200 329.200 C 145.420 329.200,145.600 329.380,145.600 329.600 M255.200 329.976 C 255.200 330.403,255.380 330.864,255.600 331.000 C 255.820 331.136,256.000 331.867,256.000 332.624 C 256.000 333.381,256.180 334.000,256.400 334.000 C 256.620 334.000,256.800 334.540,256.800 335.200 C 256.800 335.860,256.980 336.400,257.200 336.400 C 257.420 336.400,257.600 336.940,257.600 337.600 C 257.600 338.260,257.780 338.800,258.000 338.800 C 258.220 338.800,258.408 339.385,258.418 340.100 C 258.427 340.815,258.695 342.120,259.012 343.000 C 259.329 343.880,259.591 345.005,259.594 345.500 C 259.597 345.995,259.780 346.400,260.000 346.400 C 260.664 346.400,260.482 352.113,259.773 353.534 C 257.191 358.710,256.817 358.792,235.800 358.789 L 219.000 358.787 220.288 357.694 C 220.996 357.092,222.576 355.790,223.799 354.800 C 225.022 353.810,226.823 352.235,227.801 351.300 C 228.779 350.365,229.745 349.600,229.949 349.600 C 230.152 349.600,231.238 348.700,232.361 347.600 C 233.485 346.500,234.561 345.600,234.754 345.600 C 234.946 345.600,235.806 344.925,236.664 344.100 C 237.522 343.275,238.939 342.064,239.812 341.410 C 240.685 340.755,241.813 339.810,242.318 339.310 C 242.823 338.809,243.403 338.400,243.608 338.400 C 243.812 338.400,244.789 337.590,245.779 336.600 C 246.769 335.610,247.745 334.800,247.949 334.800 C 248.152 334.800,249.198 333.945,250.272 332.900 C 251.346 331.855,252.714 330.745,253.312 330.432 C 253.911 330.120,254.400 329.715,254.400 329.532 C 254.400 329.350,254.580 329.200,254.800 329.200 C 255.020 329.200,255.200 329.549,255.200 329.976 M134.800 368.000 C 134.800 368.220,135.036 368.400,135.325 368.400 C 135.613 368.400,136.236 368.760,136.708 369.200 C 137.180 369.640,137.844 370.000,138.183 370.000 C 138.522 370.000,138.800 370.180,138.800 370.400 C 138.800 370.620,139.340 370.800,140.000 370.800 C 140.660 370.800,141.200 370.980,141.200 371.200 C 141.200 371.420,141.909 371.600,142.776 371.600 C 143.643 371.600,144.464 371.780,144.600 372.000 C 144.760 372.260,153.337 372.400,169.024 372.400 L 193.200 372.400 193.200 376.405 C 193.200 380.718,193.395 381.320,195.487 383.475 C 198.162 386.231,206.000 384.694,206.000 381.413 C 206.000 381.076,206.180 380.800,206.400 380.800 C 206.641 380.800,206.800 379.133,206.800 376.600 L 206.800 372.400 230.976 372.400 C 246.663 372.400,255.240 372.260,255.400 372.000 C 255.536 371.780,256.357 371.600,257.224 371.600 C 258.091 371.600,258.800 371.420,258.800 371.200 C 258.800 370.980,259.239 370.800,259.776 370.800 C 260.313 370.800,260.864 370.620,261.000 370.400 C 261.136 370.180,261.514 370.000,261.840 370.000 C 262.167 370.000,262.820 369.640,263.292 369.200 C 263.764 368.760,264.387 368.400,264.675 368.400 C 264.964 368.400,265.200 368.220,265.200 368.000 C 265.200 367.054,267.199 367.692,268.652 369.102 C 269.503 369.928,270.820 371.045,271.578 371.584 C 273.399 372.881,279.545 379.029,280.790 380.800 C 281.331 381.570,282.410 382.830,283.187 383.600 C 283.964 384.370,284.855 385.495,285.168 386.100 C 285.480 386.705,285.885 387.200,286.068 387.200 C 286.250 387.200,286.400 387.380,286.400 387.600 C 286.400 387.865,257.333 388.000,200.000 388.000 C 142.667 388.000,113.600 387.865,113.600 387.600 C 113.600 387.380,113.750 387.200,113.932 387.200 C 114.115 387.200,114.520 386.711,114.832 386.112 C 115.145 385.514,116.255 384.146,117.300 383.072 C 118.345 381.998,119.200 380.955,119.200 380.754 C 119.200 380.257,126.711 372.800,128.424 371.596 C 129.181 371.064,130.430 369.956,131.200 369.135 C 132.540 367.705,134.800 366.993,134.800 368.000 " stroke="none" fill="#04ccfc" fill-rule="evenodd"></path><path id="path1" d="" stroke="none" fill="#08ccfc" fill-rule="evenodd"></path><path id="path2" d="" stroke="none" fill="#08ccfc" fill-rule="evenodd"></path><path id="path3" d="" stroke="none" fill="#08ccfc" fill-rule="evenodd"></path><path id="path4" d="" stroke="none" fill="#08ccfc" fill-rule="evenodd"></path></g></svg>