<svg id="svg" version="1.1" xmlns="http://www.w3.org/2000/svg" xmlns:xlink="http://www.w3.org/1999/xlink" width="400" height="400" viewBox="0, 0, 400,400"><g id="svgg"><path id="path0" d="M123.200 2.400 C 123.200 2.637,121.733 2.800,119.600 2.800 C 117.467 2.800,116.000 2.963,116.000 3.200 C 116.000 3.420,115.190 3.600,114.200 3.600 C 113.210 3.600,112.400 3.780,112.400 4.000 C 112.400 4.220,111.770 4.400,111.000 4.400 C 110.230 4.400,109.600 4.580,109.600 4.800 C 109.600 5.020,109.150 5.200,108.600 5.200 C 108.050 5.200,107.600 5.380,107.600 5.600 C 107.600 5.820,107.060 6.000,106.400 6.000 C 105.740 6.000,105.200 6.180,105.200 6.400 C 105.200 6.620,104.851 6.800,104.424 6.800 C 103.997 6.800,103.536 6.980,103.400 7.200 C 103.264 7.420,102.713 7.600,102.176 7.600 C 101.639 7.600,101.200 7.780,101.200 8.000 C 101.200 8.220,100.945 8.400,100.632 8.400 C 99.965 8.400,97.460 9.665,97.267 10.100 C 97.193 10.265,96.923 10.401,96.667 10.402 C 96.410 10.403,95.251 11.123,94.092 12.002 C 92.932 12.881,91.893 13.600,91.783 13.600 C 91.066 13.600,80.000 24.818,80.000 25.544 C 80.000 25.727,79.640 26.202,79.200 26.600 C 78.760 26.998,78.400 27.566,78.400 27.862 C 78.400 28.158,78.249 28.400,78.065 28.400 C 77.881 28.400,77.048 29.795,76.213 31.500 C 75.379 33.205,74.540 34.913,74.348 35.295 C 74.157 35.677,74.000 36.262,74.000 36.595 C 74.000 36.928,73.820 37.200,73.600 37.200 C 73.380 37.200,73.200 37.560,73.200 38.000 C 73.200 38.440,73.020 38.800,72.800 38.800 C 72.580 38.800,72.400 39.340,72.400 40.000 C 72.400 40.660,72.220 41.200,72.000 41.200 C 71.780 41.200,71.600 41.639,71.600 42.176 C 71.600 42.713,71.420 43.264,71.200 43.400 C 70.980 43.536,70.800 44.267,70.800 45.024 C 70.800 45.781,70.620 46.400,70.400 46.400 C 70.180 46.400,70.000 47.300,70.000 48.400 C 70.000 49.500,69.820 50.400,69.600 50.400 C 69.345 50.400,69.200 53.667,69.200 59.400 L 69.200 68.400 61.000 68.400 C 55.800 68.400,52.800 68.546,52.800 68.800 C 52.800 69.033,51.467 69.200,49.600 69.200 C 47.733 69.200,46.400 69.367,46.400 69.600 C 46.400 69.820,45.590 70.000,44.600 70.000 C 43.610 70.000,42.800 70.180,42.800 70.400 C 42.800 70.620,42.181 70.800,41.424 70.800 C 40.667 70.800,39.936 70.980,39.800 71.200 C 39.664 71.420,39.124 71.600,38.600 71.600 C 38.076 71.600,37.536 71.780,37.400 72.000 C 37.264 72.220,36.803 72.400,36.376 72.400 C 35.949 72.400,35.600 72.580,35.600 72.800 C 35.600 73.020,35.161 73.200,34.624 73.200 C 34.087 73.200,33.536 73.380,33.400 73.600 C 33.264 73.820,32.803 74.000,32.376 74.000 C 31.949 74.000,31.600 74.180,31.600 74.400 C 31.600 74.620,31.326 74.800,30.992 74.800 C 30.658 74.800,29.671 75.250,28.800 75.800 C 27.929 76.350,27.115 76.800,26.992 76.800 C 26.715 76.800,24.510 78.352,23.440 79.300 C 23.005 79.685,22.489 80.000,22.293 80.000 C 22.097 80.000,21.246 80.720,20.400 81.600 C 19.554 82.480,18.696 83.200,18.492 83.200 C 18.004 83.200,13.600 87.612,13.600 88.100 C 13.600 88.309,13.100 88.956,12.490 89.540 C 11.081 90.885,8.400 94.565,8.400 95.154 C 8.400 95.399,8.220 95.600,8.000 95.600 C 7.780 95.600,7.600 95.960,7.600 96.400 C 7.600 96.840,7.420 97.200,7.200 97.200 C 6.980 97.200,6.800 97.455,6.800 97.767 C 6.800 98.078,6.665 98.393,6.500 98.467 C 6.001 98.688,4.400 102.022,4.400 102.838 C 4.400 103.257,4.220 103.600,4.000 103.600 C 3.780 103.600,3.600 103.960,3.600 104.400 C 3.600 104.840,3.420 105.200,3.200 105.200 C 2.980 105.200,2.800 105.740,2.800 106.400 C 2.800 107.060,2.620 107.600,2.400 107.600 C 2.180 107.600,2.000 108.039,2.000 108.576 C 2.000 109.113,1.820 109.664,1.600 109.800 C 1.380 109.936,1.200 110.652,1.200 111.390 C 1.200 112.129,0.975 112.808,0.700 112.900 C -0.035 113.145,-0.035 285.255,0.700 285.500 C 0.975 285.592,1.200 286.271,1.200 287.010 C 1.200 287.748,1.380 288.464,1.600 288.600 C 1.820 288.736,2.000 289.276,2.000 289.800 C 2.000 290.324,2.180 290.864,2.400 291.000 C 2.620 291.136,2.800 291.687,2.800 292.224 C 2.800 292.761,2.980 293.200,3.200 293.200 C 3.420 293.200,3.600 293.560,3.600 294.000 C 3.600 294.440,3.780 294.800,4.000 294.800 C 4.220 294.800,4.400 295.160,4.400 295.600 C 4.400 296.040,4.580 296.400,4.800 296.400 C 5.020 296.400,5.200 296.760,5.200 297.200 C 5.200 297.640,5.380 298.000,5.600 298.000 C 5.820 298.000,6.000 298.360,6.000 298.800 C 6.000 299.240,6.180 299.600,6.400 299.600 C 6.620 299.600,6.800 299.960,6.800 300.400 C 6.800 300.840,6.980 301.200,7.200 301.200 C 7.420 301.200,7.600 301.478,7.600 301.817 C 7.600 302.156,7.781 302.651,8.001 302.917 C 8.222 303.183,9.064 304.390,9.873 305.600 C 11.509 308.048,21.741 318.400,22.524 318.400 C 22.799 318.400,23.283 318.760,23.600 319.200 C 23.917 319.640,24.373 320.000,24.613 320.000 C 24.853 320.000,25.398 320.325,25.825 320.722 C 26.251 321.120,27.185 321.703,27.900 322.020 C 28.615 322.336,29.200 322.731,29.200 322.898 C 29.200 323.064,29.560 323.200,30.000 323.200 C 30.440 323.200,30.800 323.380,30.800 323.600 C 30.800 323.820,31.049 324.000,31.354 324.000 C 31.659 324.000,32.424 324.269,33.054 324.598 C 33.684 324.926,34.515 325.196,34.900 325.198 C 35.285 325.199,35.600 325.380,35.600 325.600 C 35.600 325.820,36.140 326.000,36.800 326.000 C 37.460 326.000,38.000 326.180,38.000 326.400 C 38.000 326.620,38.540 326.800,39.200 326.800 C 39.860 326.800,40.400 326.980,40.400 327.200 C 40.400 327.420,41.019 327.600,41.776 327.600 C 42.533 327.600,43.264 327.780,43.400 328.000 C 43.536 328.220,44.447 328.400,45.424 328.400 C 46.401 328.400,47.200 328.580,47.200 328.800 C 47.200 329.065,70.667 329.200,116.800 329.200 C 162.933 329.200,186.400 329.335,186.400 329.600 C 186.400 329.820,186.683 330.000,187.029 330.000 C 187.374 330.000,187.914 330.257,188.229 330.571 C 188.875 331.218,189.014 334.000,188.400 334.000 C 188.180 334.000,188.000 334.720,188.000 335.600 C 188.000 336.480,187.820 337.200,187.600 337.200 C 187.380 337.200,187.200 337.819,187.200 338.576 C 187.200 339.333,187.020 340.064,186.800 340.200 C 186.580 340.336,186.400 340.977,186.400 341.624 C 186.400 342.271,186.220 342.800,186.000 342.800 C 185.780 342.800,185.600 343.340,185.600 344.000 C 185.600 344.660,185.420 345.200,185.200 345.200 C 184.980 345.200,184.800 345.729,184.800 346.376 C 184.800 347.023,184.620 347.664,184.400 347.800 C 184.180 347.936,184.000 348.577,184.000 349.224 C 184.000 349.871,183.820 350.400,183.600 350.400 C 183.380 350.400,183.200 350.762,183.200 351.205 C 183.200 351.648,182.992 352.413,182.738 352.905 C 181.742 354.831,181.600 355.217,181.600 355.995 C 181.600 356.438,181.420 356.800,181.200 356.800 C 180.980 356.800,180.800 357.340,180.800 358.000 C 180.800 358.660,180.620 359.200,180.400 359.200 C 180.180 359.200,180.000 359.560,180.000 360.000 C 180.000 360.440,179.820 360.800,179.600 360.800 C 179.380 360.800,179.200 361.250,179.200 361.800 C 179.200 362.350,179.020 362.800,178.800 362.800 C 178.580 362.800,178.400 363.149,178.400 363.576 C 178.400 364.003,178.220 364.464,178.000 364.600 C 177.780 364.736,177.600 365.287,177.600 365.824 C 177.600 366.361,177.420 366.800,177.200 366.800 C 176.980 366.800,176.800 367.036,176.800 367.325 C 176.800 367.614,176.350 368.783,175.800 369.923 C 175.250 371.063,174.800 372.179,174.800 372.403 C 174.800 372.628,174.632 373.123,174.426 373.505 C 174.221 373.887,173.817 374.785,173.529 375.500 C 173.240 376.215,172.869 376.800,172.702 376.800 C 172.536 376.800,172.400 377.250,172.400 377.800 C 172.400 378.350,172.220 378.800,172.000 378.800 C 171.758 378.800,171.600 380.533,171.600 383.200 C 171.600 385.867,171.758 387.600,172.000 387.600 C 172.220 387.600,172.400 388.050,172.400 388.600 C 172.400 389.150,172.580 389.600,172.800 389.600 C 173.020 389.600,173.200 389.917,173.200 390.304 C 173.200 390.691,173.560 391.232,174.000 391.507 C 174.440 391.782,174.800 392.193,174.800 392.422 C 174.800 392.962,176.641 394.800,177.182 394.800 C 177.412 394.800,177.600 394.980,177.600 395.200 C 177.600 395.420,177.870 395.600,178.200 395.600 C 178.530 395.600,178.800 395.780,178.800 396.000 C 178.800 396.220,179.250 396.400,179.800 396.400 C 180.350 396.400,180.800 396.580,180.800 396.800 C 180.800 397.020,181.509 397.200,182.376 397.200 C 183.243 397.200,184.064 397.380,184.200 397.600 C 184.522 398.122,187.600 398.122,187.600 397.600 C 187.600 397.380,188.194 397.200,188.920 397.200 C 190.299 397.200,192.391 396.417,192.397 395.900 C 192.399 395.735,192.760 395.600,193.200 395.600 C 193.640 395.600,194.000 395.420,194.000 395.200 C 194.000 394.980,194.320 394.800,194.712 394.800 C 195.103 394.800,195.683 394.440,196.000 394.000 C 196.317 393.560,196.897 393.200,197.288 393.200 C 197.680 393.200,198.000 393.041,198.000 392.846 C 198.000 392.651,198.675 392.174,199.500 391.785 C 200.889 391.132,205.544 388.156,206.000 387.629 C 206.110 387.503,206.695 387.144,207.300 386.832 C 207.905 386.520,208.400 386.115,208.400 385.932 C 208.400 385.750,208.630 385.600,208.912 385.600 C 209.193 385.600,209.683 385.240,210.000 384.800 C 210.317 384.360,210.780 384.000,211.029 384.000 C 211.278 384.000,212.046 383.460,212.737 382.800 C 213.428 382.140,214.192 381.600,214.436 381.600 C 214.680 381.600,215.383 381.060,216.000 380.400 C 216.617 379.740,217.337 379.200,217.600 379.200 C 217.863 379.200,218.583 378.660,219.200 378.000 C 219.817 377.340,220.485 376.800,220.685 376.800 C 220.885 376.800,221.398 376.480,221.825 376.088 C 222.251 375.696,223.316 374.841,224.191 374.188 C 225.066 373.535,226.308 372.505,226.950 371.900 C 227.593 371.295,228.284 370.800,228.485 370.800 C 228.687 370.800,229.729 369.900,230.800 368.800 C 231.871 367.700,232.921 366.800,233.133 366.800 C 233.345 366.800,234.871 365.495,236.524 363.900 C 238.177 362.305,240.569 360.100,241.841 359.000 C 244.914 356.341,255.138 346.118,256.400 344.441 C 256.950 343.711,258.615 341.854,260.100 340.315 C 261.585 338.775,262.800 337.352,262.800 337.152 C 262.800 336.532,268.750 330.800,269.394 330.800 C 269.727 330.800,270.000 330.620,270.000 330.400 C 270.000 330.180,270.810 330.000,271.800 330.000 C 272.790 330.000,273.600 329.820,273.600 329.600 C 273.600 329.356,275.467 329.200,278.400 329.200 C 281.333 329.200,283.200 329.044,283.200 328.800 C 283.200 328.580,284.100 328.400,285.200 328.400 C 286.300 328.400,287.200 328.220,287.200 328.000 C 287.200 327.780,287.830 327.600,288.600 327.600 C 289.370 327.600,290.000 327.420,290.000 327.200 C 290.000 326.980,290.540 326.800,291.200 326.800 C 291.860 326.800,292.400 326.620,292.400 326.400 C 292.400 326.180,292.940 326.000,293.600 326.000 C 294.260 326.000,294.800 325.836,294.800 325.635 C 294.800 325.434,295.520 325.149,296.400 325.000 C 297.280 324.851,298.000 324.566,298.000 324.365 C 298.000 324.164,298.360 324.000,298.800 324.000 C 299.240 324.000,299.600 323.820,299.600 323.600 C 299.600 323.380,299.960 323.200,300.400 323.200 C 300.840 323.200,301.200 323.020,301.200 322.800 C 301.200 322.580,301.560 322.400,302.000 322.400 C 302.440 322.400,302.800 322.220,302.800 322.000 C 302.800 321.780,303.036 321.600,303.325 321.600 C 303.613 321.600,304.236 321.240,304.708 320.800 C 305.180 320.360,305.754 320.000,305.983 320.000 C 306.212 320.000,306.400 319.859,306.400 319.686 C 306.400 319.514,306.977 319.032,307.682 318.615 C 310.163 317.150,321.576 305.241,321.593 304.100 C 321.597 303.825,321.745 303.600,321.921 303.600 C 322.098 303.600,322.683 302.703,323.221 301.606 C 323.760 300.510,324.319 299.610,324.465 299.606 C 324.611 299.603,324.851 298.880,325.000 298.000 C 325.149 297.120,325.434 296.400,325.635 296.400 C 325.836 296.400,326.000 296.040,326.000 295.600 C 326.000 295.160,326.180 294.800,326.400 294.800 C 326.620 294.800,326.800 294.440,326.800 294.000 C 326.800 293.560,326.980 293.200,327.200 293.200 C 327.420 293.200,327.600 292.660,327.600 292.000 C 327.600 291.340,327.780 290.800,328.000 290.800 C 328.220 290.800,328.400 290.361,328.400 289.824 C 328.400 289.287,328.580 288.736,328.800 288.600 C 329.020 288.464,329.200 287.733,329.200 286.976 C 329.200 286.219,329.380 285.600,329.600 285.600 C 329.820 285.600,330.000 284.700,330.000 283.600 C 330.000 282.500,330.180 281.600,330.400 281.600 C 330.655 281.600,330.800 278.333,330.800 272.600 L 330.800 263.600 337.400 263.600 C 341.533 263.600,344.000 263.451,344.000 263.200 C 344.000 262.958,345.733 262.800,348.400 262.800 C 351.067 262.800,352.800 262.642,352.800 262.400 C 352.800 262.180,353.700 262.000,354.800 262.000 C 355.900 262.000,356.800 261.820,356.800 261.600 C 356.800 261.380,357.430 261.200,358.200 261.200 C 358.970 261.200,359.600 261.020,359.600 260.800 C 359.600 260.580,360.140 260.400,360.800 260.400 C 361.460 260.400,362.000 260.220,362.000 260.000 C 362.000 259.780,362.540 259.600,363.200 259.600 C 363.860 259.600,364.400 259.436,364.400 259.235 C 364.400 259.034,365.120 258.749,366.000 258.600 C 366.880 258.451,367.600 258.166,367.600 257.965 C 367.600 257.764,367.960 257.600,368.400 257.600 C 368.840 257.600,369.200 257.420,369.200 257.200 C 369.200 256.980,369.560 256.800,370.000 256.800 C 370.440 256.800,370.800 256.664,370.800 256.498 C 370.800 256.331,371.385 255.936,372.100 255.620 C 372.815 255.303,373.749 254.720,374.175 254.322 C 374.602 253.925,375.147 253.600,375.387 253.600 C 375.627 253.600,376.083 253.240,376.400 252.800 C 376.717 252.360,377.183 252.000,377.435 252.000 C 377.839 252.000,378.752 251.205,383.477 246.739 C 385.909 244.440,388.893 241.043,390.212 239.071 C 390.974 237.932,391.778 236.783,391.999 236.517 C 392.219 236.251,392.400 235.756,392.400 235.417 C 392.400 235.078,392.580 234.800,392.800 234.800 C 393.020 234.800,393.200 234.440,393.200 234.000 C 393.200 233.560,393.335 233.199,393.500 233.197 C 393.859 233.193,394.800 231.256,394.800 230.520 C 394.800 230.234,394.980 230.000,395.200 230.000 C 395.420 230.000,395.600 229.640,395.600 229.200 C 395.600 228.760,395.780 228.400,396.000 228.400 C 396.220 228.400,396.400 228.040,396.400 227.600 C 396.400 227.160,396.580 226.800,396.800 226.800 C 397.020 226.800,397.200 226.361,397.200 225.824 C 397.200 225.287,397.380 224.736,397.600 224.600 C 397.820 224.464,398.000 223.924,398.000 223.400 C 398.000 222.876,398.180 222.336,398.400 222.200 C 398.620 222.064,398.800 221.348,398.800 220.610 C 398.800 219.871,399.025 219.192,399.300 219.100 C 399.698 218.967,399.800 201.351,399.800 132.800 C 399.800 64.249,399.698 46.633,399.300 46.500 C 399.025 46.408,398.800 45.729,398.800 44.990 C 398.800 44.252,398.620 43.536,398.400 43.400 C 398.180 43.264,398.000 42.713,398.000 42.176 C 398.000 41.639,397.820 41.200,397.600 41.200 C 397.380 41.200,397.200 40.660,397.200 40.000 C 397.200 39.340,397.020 38.800,396.800 38.800 C 396.580 38.800,396.400 38.440,396.400 38.000 C 396.400 37.560,396.220 37.200,396.000 37.200 C 395.780 37.200,395.600 36.838,395.600 36.395 C 395.600 35.646,394.901 34.059,394.368 33.600 C 394.240 33.490,393.881 32.815,393.570 32.100 C 393.259 31.385,392.869 30.800,392.702 30.800 C 392.536 30.800,392.400 30.522,392.400 30.183 C 392.400 29.844,392.219 29.349,391.999 29.083 C 391.778 28.817,390.945 27.626,390.148 26.436 C 389.351 25.246,388.137 23.680,387.449 22.955 C 386.762 22.231,385.660 20.928,385.000 20.060 C 384.340 19.191,383.292 18.175,382.670 17.800 C 382.049 17.426,380.749 16.328,379.781 15.360 C 378.813 14.392,377.812 13.600,377.557 13.600 C 377.302 13.600,376.802 13.285,376.446 12.900 C 375.726 12.122,373.358 10.400,373.008 10.400 C 372.885 10.400,372.071 9.950,371.200 9.400 C 370.329 8.850,369.342 8.400,369.008 8.400 C 368.674 8.400,368.400 8.220,368.400 8.000 C 368.400 7.780,367.950 7.600,367.400 7.600 C 366.850 7.600,366.400 7.420,366.400 7.200 C 366.400 6.980,365.950 6.800,365.400 6.800 C 364.850 6.800,364.400 6.620,364.400 6.400 C 364.400 6.180,363.860 6.000,363.200 6.000 C 362.540 6.000,362.000 5.820,362.000 5.600 C 362.000 5.380,361.460 5.200,360.800 5.200 C 360.140 5.200,359.600 5.020,359.600 4.800 C 359.600 4.580,359.060 4.400,358.400 4.400 C 357.740 4.400,357.200 4.220,357.200 4.000 C 357.200 3.780,356.390 3.600,355.400 3.600 C 354.410 3.600,353.600 3.420,353.600 3.200 C 353.600 2.963,352.133 2.800,350.000 2.800 C 347.867 2.800,346.400 2.637,346.400 2.400 C 346.400 1.846,247.342 1.846,247.000 2.400 C 246.864 2.620,246.313 2.800,245.776 2.800 C 245.239 2.800,244.800 2.980,244.800 3.200 C 244.800 3.420,244.542 3.600,244.227 3.600 C 243.912 3.600,243.540 3.960,243.400 4.400 C 243.260 4.840,242.986 5.200,242.791 5.200 C 242.068 5.200,241.897 7.917,242.560 8.864 C 242.912 9.367,243.200 10.153,243.200 10.611 C 243.200 11.068,243.840 12.063,244.622 12.822 L 246.044 14.200 297.322 14.421 C 353.552 14.664,350.004 14.509,357.589 17.052 C 371.946 21.865,384.151 35.219,387.154 49.400 C 387.387 50.500,387.762 52.245,387.989 53.277 C 388.559 55.880,388.559 209.720,387.989 212.323 C 387.762 213.355,387.385 215.100,387.149 216.200 C 383.984 230.986,371.147 244.618,356.336 248.921 C 350.708 250.557,348.499 250.800,339.276 250.800 L 330.400 250.800 330.400 233.326 C 330.400 216.615,330.365 215.782,329.594 214.226 C 327.509 210.019,322.125 209.796,319.767 213.820 L 318.800 215.470 318.800 246.105 C 318.800 275.976,318.736 277.817,317.534 282.600 C 312.618 302.157,294.338 317.197,275.480 317.200 C 265.819 317.202,260.977 319.888,252.400 330.003 C 243.116 340.953,229.095 354.396,217.498 363.466 C 209.163 369.986,193.672 381.200,193.001 381.200 C 192.923 381.200,191.500 382.100,189.839 383.200 C 184.696 386.606,182.563 385.475,184.830 380.545 C 187.590 374.542,187.983 373.658,189.600 369.800 C 190.522 367.600,191.548 365.080,191.880 364.200 C 193.431 360.093,195.701 353.682,195.987 352.600 C 196.162 351.940,196.570 350.590,196.895 349.600 C 197.219 348.610,197.711 346.990,197.989 346.000 C 198.266 345.010,198.631 343.750,198.800 343.200 C 202.311 331.772,201.884 326.607,197.029 321.785 C 194.846 319.617,192.509 318.325,189.523 317.634 C 188.213 317.331,167.242 317.198,120.123 317.192 C 63.378 317.186,52.121 317.093,49.600 316.614 C 32.710 313.405,20.489 303.117,14.185 286.800 C 13.515 285.066,13.266 284.138,12.308 279.800 C 11.671 276.912,11.365 125.444,11.988 121.000 C 14.420 103.640,25.742 89.558,42.000 83.674 C 44.061 82.928,44.860 82.715,49.677 81.625 C 52.923 80.890,278.298 81.043,281.600 81.782 C 287.537 83.110,289.834 83.913,294.359 86.245 C 305.926 92.206,314.142 102.688,317.523 115.800 C 318.739 120.515,318.800 122.407,318.819 155.931 C 318.837 187.375,318.895 190.312,319.519 191.565 C 321.596 195.728,327.497 195.722,329.623 191.555 C 330.523 189.791,330.848 127.089,329.989 121.077 C 328.973 113.967,328.377 111.141,327.551 109.505 C 327.358 109.123,327.200 108.536,327.200 108.200 C 327.200 107.864,327.035 107.277,326.834 106.895 C 326.632 106.513,326.167 105.480,325.799 104.600 C 317.866 85.602,301.803 73.486,279.954 70.020 C 278.159 69.735,245.763 69.600,179.254 69.600 L 81.200 69.600 81.200 62.146 C 81.200 58.047,81.364 54.042,81.565 53.246 C 81.766 52.451,82.144 50.810,82.405 49.600 C 85.809 33.808,100.022 19.410,115.600 15.975 C 116.810 15.708,118.430 15.300,119.200 15.068 C 120.132 14.787,137.803 14.572,172.078 14.423 L 223.556 14.200 224.978 12.822 C 225.760 12.063,226.400 11.063,226.400 10.598 C 226.400 10.133,226.664 9.404,226.987 8.976 C 227.812 7.886,227.738 6.515,226.800 5.508 C 226.360 5.036,226.000 4.413,226.000 4.125 C 226.000 3.836,225.730 3.600,225.400 3.600 C 225.070 3.600,224.800 3.420,224.800 3.200 C 224.800 2.980,224.260 2.800,223.600 2.800 C 222.940 2.800,222.400 2.620,222.400 2.400 C 222.400 2.135,205.600 2.000,172.800 2.000 C 140.000 2.000,123.200 2.135,123.200 2.400 M105.800 110.961 C 96.541 113.897,94.405 118.591,94.405 136.000 C 94.405 153.332,96.146 157.300,105.400 161.050 C 105.840 161.228,109.530 161.470,113.600 161.587 L 121.000 161.800 121.237 168.000 C 121.513 175.199,121.632 175.702,123.527 177.692 C 130.908 185.446,145.995 171.761,149.569 154.069 C 150.153 151.181,150.150 123.791,149.566 121.960 C 147.835 116.533,144.283 112.778,139.340 111.147 C 136.483 110.204,108.672 110.050,105.800 110.961 M170.514 110.980 C 165.607 112.514,162.267 115.814,160.051 121.319 C 159.192 123.450,159.448 148.996,160.353 151.470 C 161.418 154.385,163.019 156.495,165.800 158.651 C 168.879 161.037,170.281 161.365,178.400 161.592 L 185.800 161.800 186.027 168.000 C 186.375 177.523,189.498 181.535,195.339 179.962 C 200.945 178.453,212.400 165.740,212.400 161.028 C 212.400 160.709,212.559 160.349,212.754 160.229 C 212.949 160.108,213.203 159.513,213.318 158.905 C 213.434 158.297,213.815 156.540,214.165 155.000 C 214.943 151.572,215.109 124.288,214.366 121.960 C 212.635 116.533,209.083 112.778,204.140 111.147 C 201.236 110.189,173.486 110.051,170.514 110.980 M136.675 122.381 C 138.606 123.558,138.799 124.906,138.769 137.000 C 138.733 151.829,138.382 154.666,136.008 159.314 C 133.705 163.819,132.803 164.265,132.794 160.900 C 132.773 152.950,129.429 150.700,117.200 150.406 C 105.103 150.116,106.000 151.290,106.000 135.741 L 106.000 124.320 107.360 122.960 L 108.720 121.600 122.060 121.601 C 134.567 121.603,135.480 121.652,136.675 122.381 M201.616 122.500 C 203.585 123.828,203.694 124.816,203.502 139.600 C 203.311 154.244,203.190 155.078,200.536 159.907 C 198.315 163.949,197.600 164.117,197.600 160.596 C 197.600 152.874,194.241 150.699,181.866 150.406 L 173.133 150.200 171.966 148.894 L 170.800 147.587 170.800 136.048 C 170.800 120.259,169.203 121.660,187.241 121.625 C 200.123 121.600,200.298 121.611,201.616 122.500 M61.800 197.814 C 58.271 199.605,57.588 203.988,60.400 206.800 L 62.000 208.400 164.875 208.400 L 267.750 208.400 269.076 207.500 C 272.640 205.080,272.098 199.403,268.146 197.752 C 266.050 196.876,63.528 196.937,61.800 197.814 M61.400 224.886 C 56.925 227.470,58.289 234.684,63.388 235.405 C 64.275 235.531,110.644 235.581,166.431 235.517 L 267.862 235.400 269.318 234.289 C 272.087 232.177,272.292 228.318,269.767 225.794 L 268.373 224.400 165.287 224.412 C 88.097 224.421,61.999 224.540,61.400 224.886 M61.759 251.771 C 57.812 253.492,57.720 259.793,61.612 261.806 C 62.619 262.327,75.398 262.400,165.289 262.400 L 267.818 262.400 269.299 261.179 C 272.107 258.865,272.230 255.120,269.583 252.583 L 268.347 251.400 165.674 251.314 C 80.060 251.243,62.794 251.319,61.759 251.771 M112.158 278.763 C 106.852 281.173,108.504 288.681,114.496 289.390 C 115.653 289.527,139.190 289.586,166.800 289.520 L 217.000 289.400 218.473 288.484 C 222.549 285.949,221.440 279.188,216.796 278.259 C 213.126 277.525,113.830 278.004,112.158 278.763 " stroke="none" fill="#040506" fill-rule="evenodd"></path><path id="path1" d="M227.159 9.977 C 226.428 12.420,224.716 14.225,222.636 14.749 C 221.356 15.071,206.741 15.200,171.386 15.200 C 116.650 15.200,118.675 15.112,111.360 17.808 C 92.334 24.820,81.600 41.182,81.600 63.171 L 81.600 69.189 181.500 69.304 L 281.400 69.419 285.000 70.277 C 289.262 71.293,293.998 72.849,297.137 74.265 C 301.762 76.352,302.204 76.563,302.400 76.780 C 302.510 76.902,303.059 77.237,303.620 77.525 C 304.589 78.023,309.712 81.723,310.634 82.591 C 310.873 82.816,311.785 83.645,312.661 84.433 C 318.099 89.326,323.606 97.277,326.489 104.400 C 326.711 104.950,327.052 105.713,327.247 106.095 C 327.441 106.477,327.600 107.152,327.600 107.595 C 327.600 108.038,327.780 108.400,328.000 108.400 C 328.220 108.400,328.400 108.929,328.400 109.576 C 328.400 110.223,328.560 110.852,328.756 110.973 C 328.951 111.094,329.226 111.869,329.367 112.696 C 329.507 113.523,329.825 115.190,330.073 116.400 C 330.767 119.779,330.990 190.657,330.311 192.000 C 329.619 193.369,328.479 194.359,326.700 195.134 L 325.200 195.789 325.200 202.915 L 325.200 210.041 326.700 210.659 C 328.438 211.375,330.000 212.705,330.000 213.470 C 330.000 213.761,330.180 214.000,330.400 214.000 C 330.661 214.000,330.800 220.333,330.800 232.200 L 330.800 250.400 337.900 250.387 C 344.518 250.375,350.527 249.797,354.000 248.838 C 354.770 248.626,356.395 248.203,357.610 247.899 C 360.128 247.270,363.818 245.577,366.272 243.925 C 367.192 243.306,368.137 242.800,368.372 242.800 C 368.607 242.800,368.800 242.659,368.800 242.486 C 368.800 242.314,369.295 241.878,369.900 241.519 C 371.000 240.865,376.819 235.309,378.057 233.729 C 382.888 227.567,385.970 220.527,387.403 212.384 C 388.315 207.204,388.295 58.842,387.382 53.211 C 385.553 41.929,377.601 28.626,370.004 24.139 C 369.342 23.748,368.800 23.286,368.800 23.114 C 368.800 22.941,368.607 22.800,368.372 22.800 C 368.137 22.800,367.192 22.294,366.272 21.675 C 362.599 19.203,357.363 17.174,351.649 16.010 C 347.785 15.222,346.301 15.200,298.214 15.200 C 240.326 15.200,244.237 15.566,242.393 9.978 L 241.872 8.400 234.752 8.400 L 227.632 8.400 227.159 9.977 M111.925 122.372 C 108.706 122.599,108.375 122.705,107.426 123.809 L 106.401 125.000 106.400 136.069 L 106.400 147.138 107.567 148.306 C 108.809 149.548,112.587 149.986,122.200 150.002 C 126.928 150.010,131.178 152.380,132.192 155.574 C 132.336 156.028,132.622 156.400,132.827 156.400 C 133.032 156.400,133.202 156.895,133.204 157.500 C 133.207 158.105,133.322 159.286,133.461 160.124 L 133.712 161.648 134.472 160.524 C 137.678 155.778,137.979 153.873,137.990 138.274 C 138.001 123.885,137.967 123.617,136.008 122.604 C 134.775 121.967,119.723 121.822,111.925 122.372 M176.930 122.369 C 171.096 122.750,171.076 122.804,171.271 137.400 C 171.444 150.318,170.689 149.447,182.059 149.827 C 188.915 150.056,190.502 150.226,192.115 150.905 C 194.034 151.713,197.200 154.796,197.200 155.856 C 197.200 156.155,197.380 156.400,197.600 156.400 C 197.820 156.400,198.002 156.895,198.004 157.500 C 198.023 162.053,198.737 162.261,200.589 158.252 C 202.846 153.365,202.883 153.090,203.094 139.440 C 203.382 120.769,204.276 121.974,190.200 122.066 C 184.920 122.101,178.949 122.237,176.930 122.369 " stroke="none" fill="#d4e8fb" fill-rule="evenodd"></path><path id="path2" d="M148.300 15.100 C 161.775 15.158,183.825 15.158,197.300 15.100 C 210.775 15.042,199.750 14.994,172.800 14.994 C 145.850 14.994,134.825 15.042,148.300 15.100 M272.300 15.100 C 285.775 15.158,307.825 15.158,321.300 15.100 C 334.775 15.042,323.750 14.994,296.800 14.994 C 269.850 14.994,258.825 15.042,272.300 15.100 M63.981 82.915 C 50.655 90.984,41.622 104.952,39.612 120.600 C 38.746 127.340,39.246 278.238,40.146 282.000 C 43.584 296.358,52.346 308.927,63.483 315.473 L 65.400 316.600 128.000 316.800 L 190.600 317.000 192.800 318.034 C 194.010 318.603,196.015 319.998,197.256 321.134 L 199.512 323.200 210.656 323.204 C 231.232 323.211,232.264 325.578,223.359 352.365 C 221.176 358.935,220.927 360.190,222.018 359.154 C 222.338 358.849,223.770 357.614,225.200 356.409 C 231.758 350.885,245.473 337.252,250.971 330.795 C 260.330 319.803,265.097 316.824,273.392 316.788 C 279.043 316.763,286.849 315.155,290.959 313.169 C 291.834 312.746,292.786 312.400,293.075 312.400 C 293.364 312.400,293.600 312.220,293.600 312.000 C 293.600 311.780,293.945 311.600,294.367 311.600 C 294.788 311.600,295.193 311.458,295.267 311.285 C 295.340 311.112,296.210 310.495,297.200 309.913 C 301.429 307.429,310.768 298.213,310.793 296.500 C 310.797 296.225,310.949 296.000,311.131 296.000 C 311.540 296.000,314.938 289.212,315.747 286.781 C 318.287 279.143,318.385 277.583,318.393 244.680 C 318.401 212.357,318.296 213.828,320.735 211.722 C 321.860 210.751,324.267 210.199,325.683 210.587 C 326.469 210.802,326.500 210.776,325.900 210.399 C 324.935 209.794,324.816 195.600,325.776 195.600 C 326.093 195.600,326.460 195.427,326.590 195.216 C 326.726 194.996,326.283 195.022,325.556 195.275 C 323.248 196.080,320.082 194.373,318.948 191.713 C 318.499 190.658,318.399 184.459,318.393 157.313 C 318.386 123.585,318.280 120.771,316.813 115.200 C 312.378 98.356,299.125 86.037,281.400 82.286 C 280.031 81.996,245.751 81.820,172.781 81.728 L 66.163 81.594 63.981 82.915 M313.791 85.920 C 315.545 87.724,317.054 89.200,317.143 89.200 C 317.441 89.200,314.217 85.815,312.400 84.220 C 311.410 83.352,312.036 84.117,313.791 85.920 M318.647 91.400 C 320.549 93.914,321.009 94.415,320.484 93.400 C 320.256 92.960,319.409 91.880,318.602 91.000 L 317.134 89.400 318.647 91.400 M321.786 95.900 C 322.135 96.615,322.506 97.200,322.610 97.200 C 323.008 97.200,322.752 96.563,321.967 95.600 L 321.152 94.600 321.786 95.900 M139.081 110.451 C 149.529 114.658,151.076 118.656,150.667 140.395 C 150.354 157.000,149.369 161.377,144.287 168.764 C 138.827 176.700,128.509 183.488,126.600 180.400 C 126.464 180.180,126.095 180.000,125.781 180.000 C 125.195 180.000,124.104 179.216,122.720 177.800 C 121.126 176.170,120.800 174.575,120.800 168.411 L 120.800 162.519 113.463 162.302 C 109.427 162.183,105.782 161.906,105.363 161.686 C 104.943 161.467,103.736 160.875,102.680 160.371 C 99.966 159.074,97.146 156.130,95.559 152.936 L 94.200 150.200 94.200 136.000 L 94.200 121.800 95.515 119.156 C 97.546 115.071,100.429 112.488,105.200 110.476 C 106.633 109.872,137.587 109.849,139.081 110.451 M203.905 110.337 C 204.287 110.522,205.500 111.105,206.600 111.632 C 209.444 112.995,212.425 116.113,214.037 119.411 L 215.400 122.200 215.400 137.400 C 215.400 153.289,215.306 154.397,213.497 159.800 C 210.640 168.330,204.623 175.718,197.086 179.952 C 195.120 181.056,192.488 181.058,190.512 179.957 C 186.251 177.583,185.600 176.075,185.600 168.581 L 185.600 162.519 178.263 162.302 C 174.227 162.183,170.582 161.901,170.163 161.676 C 169.743 161.451,168.764 160.992,167.987 160.656 C 166.449 159.991,165.384 159.177,163.136 156.946 C 161.841 155.662,161.239 154.665,159.449 150.839 C 158.815 149.484,158.824 122.489,159.459 121.161 C 159.712 120.632,160.236 119.481,160.625 118.602 C 161.320 117.027,165.387 112.400,166.075 112.400 C 166.269 112.400,166.907 112.085,167.492 111.700 C 168.077 111.315,169.105 110.796,169.778 110.548 C 171.240 110.007,202.822 109.811,203.905 110.337 M329.444 114.600 C 329.773 116.071,330.002 116.390,329.994 115.367 C 329.991 114.945,329.805 114.330,329.582 114.000 C 329.285 113.562,329.248 113.724,329.444 114.600 M330.296 119.846 C 330.412 120.921,330.572 121.875,330.653 121.967 C 330.972 122.329,330.765 118.965,330.437 118.446 C 330.222 118.107,330.168 118.651,330.296 119.846 M108.919 122.318 C 108.654 122.486,109.734 122.564,111.319 122.491 C 115.411 122.302,115.911 122.100,112.400 122.053 C 110.750 122.030,109.183 122.150,108.919 122.318 M173.719 122.318 C 173.454 122.486,174.534 122.565,176.119 122.494 C 180.447 122.298,180.989 122.115,177.400 122.061 C 175.640 122.034,173.983 122.150,173.719 122.318 M138.177 137.200 C 138.177 143.690,138.232 146.345,138.299 143.100 C 138.366 139.855,138.366 134.545,138.299 131.300 C 138.232 128.055,138.177 130.710,138.177 137.200 M171.254 146.669 C 171.122 148.790,173.326 150.008,177.131 149.918 L 180.600 149.835 177.140 149.703 C 173.418 149.560,171.881 148.736,171.478 146.669 L 171.309 145.800 171.254 146.669 M108.000 149.144 C 108.862 149.867,109.469 149.972,112.400 149.910 L 115.800 149.837 112.460 149.702 C 110.351 149.616,108.730 149.334,108.060 148.936 L 107.000 148.305 108.000 149.144 M134.523 160.429 L 133.800 161.658 133.547 160.529 C 133.320 159.511,133.290 159.552,133.247 160.949 C 133.211 162.148,133.313 162.403,133.700 162.080 C 134.289 161.587,135.736 159.200,135.445 159.200 C 135.335 159.200,134.920 159.753,134.523 160.429 M198.060 160.949 C 198.008 162.284,198.083 162.429,198.600 162.000 C 199.259 161.453,199.420 161.017,198.827 161.383 C 198.622 161.510,198.379 161.116,198.287 160.507 C 198.156 159.638,198.107 159.733,198.060 160.949 M269.104 197.598 C 272.580 199.717,273.098 204.123,270.211 207.011 L 268.421 208.800 165.011 208.800 L 61.600 208.800 60.063 207.263 C 57.107 204.307,57.482 200.020,60.896 197.723 L 62.200 196.846 165.000 196.825 C 266.893 196.803,267.811 196.810,269.104 197.598 M327.400 211.057 C 329.437 212.864,330.187 213.391,329.402 212.463 C 328.966 211.948,328.247 211.341,327.804 211.114 C 327.362 210.887,327.180 210.862,327.400 211.057 M269.280 224.533 C 272.798 226.920,272.890 232.404,269.456 234.968 L 268.341 235.800 166.071 235.914 C 109.822 235.976,63.227 235.926,62.527 235.801 C 56.986 234.813,56.807 224.730,62.315 223.884 C 66.673 223.214,268.268 223.846,269.280 224.533 M355.600 248.418 C 355.162 248.715,355.324 248.752,356.200 248.556 C 357.671 248.227,357.990 247.998,356.967 248.006 C 356.545 248.009,355.930 248.195,355.600 248.418 M349.505 249.883 C 350.002 249.979,350.722 249.975,351.105 249.875 C 351.487 249.775,351.080 249.696,350.200 249.701 C 349.320 249.705,349.007 249.787,349.505 249.883 M268.574 251.197 C 272.780 253.256,273.253 258.889,269.463 261.779 L 268.124 262.800 165.242 262.800 C 75.039 262.800,62.219 262.727,61.212 262.206 C 56.887 259.970,57.223 253.223,61.760 251.162 C 64.425 249.952,266.102 249.986,268.574 251.197 M334.300 250.698 C 336.335 250.771,339.665 250.771,341.700 250.698 C 343.735 250.625,342.070 250.566,338.000 250.566 C 333.930 250.566,332.265 250.625,334.300 250.698 M216.818 277.706 C 222.511 279.690,223.392 286.304,218.346 289.173 C 216.408 290.275,114.331 290.503,112.141 289.410 C 108.617 287.653,107.366 283.545,109.413 280.452 C 110.429 278.917,111.166 278.401,113.400 277.661 C 115.304 277.030,215.003 277.074,216.818 277.706 " stroke="none" fill="#63bbfb" fill-rule="evenodd"></path><path id="path3" d="M50.400 82.045 C 45.394 83.044,43.962 83.426,41.206 84.500 C 25.245 90.718,14.709 104.288,12.400 121.600 C 11.788 126.191,12.075 275.957,12.702 279.200 C 12.936 280.410,13.336 282.120,13.592 283.000 C 13.847 283.880,14.152 285.050,14.269 285.600 C 16.608 296.548,29.752 309.963,42.342 314.250 C 48.065 316.198,49.560 316.431,57.800 316.658 L 65.800 316.878 63.442 315.433 C 51.917 308.372,43.604 296.441,40.146 282.000 C 39.246 278.238,38.746 127.340,39.612 120.600 C 41.622 104.955,50.655 90.984,63.976 82.918 L 66.153 81.600 59.176 81.643 C 55.339 81.666,51.390 81.847,50.400 82.045 M199.657 324.208 C 202.445 328.930,202.185 334.484,198.651 345.713 C 198.359 346.641,197.531 349.290,196.812 351.600 C 196.093 353.910,195.364 356.160,195.193 356.600 C 195.021 357.040,194.664 358.030,194.400 358.800 C 193.894 360.274,193.565 361.156,192.907 362.800 C 192.687 363.350,192.327 364.250,192.107 364.800 C 191.887 365.350,191.479 366.340,191.200 367.000 C 190.572 368.487,189.985 369.952,189.597 371.000 C 189.227 372.000,188.150 374.394,186.040 378.907 C 183.180 385.025,184.255 386.379,189.292 383.000 C 190.767 382.010,192.058 381.200,192.159 381.200 C 192.468 381.200,197.347 377.892,198.175 377.121 C 198.602 376.725,199.187 376.400,199.475 376.400 C 199.764 376.400,200.000 376.259,200.000 376.086 C 200.000 375.914,200.504 375.475,201.119 375.111 C 204.886 372.886,221.200 360.090,221.200 359.361 C 221.200 359.086,222.177 355.923,223.371 352.331 C 228.037 338.294,229.421 331.584,228.236 328.749 C 226.165 323.792,225.061 323.442,210.772 323.200 L 198.944 323.000 199.657 324.208 " stroke="none" fill="#23abfb" fill-rule="evenodd"></path><path id="path4" d="M226.832 9.139 C 226.595 9.584,226.400 10.284,226.400 10.695 C 226.400 11.107,225.760 12.063,224.978 12.822 L 223.556 14.200 174.678 14.404 L 125.800 14.608 174.400 14.702 C 230.771 14.812,225.182 15.309,227.070 10.015 C 227.629 8.449,227.485 7.920,226.832 9.139 M242.213 9.000 C 242.366 9.440,242.588 10.160,242.706 10.600 C 242.825 11.040,243.268 11.898,243.692 12.506 C 245.391 14.944,242.213 14.809,295.280 14.704 L 343.800 14.608 294.922 14.404 L 246.044 14.200 244.622 12.822 C 243.840 12.063,243.200 11.063,243.200 10.598 C 243.200 10.133,242.915 9.404,242.567 8.976 C 241.944 8.211,241.939 8.211,242.213 9.000 M119.200 15.221 C 118.569 15.437,119.232 15.478,121.000 15.332 C 122.540 15.205,123.875 15.034,123.967 14.951 C 124.296 14.653,120.179 14.887,119.200 15.221 M345.633 14.951 C 345.725 15.034,347.060 15.205,348.600 15.332 C 350.368 15.478,351.031 15.437,350.400 15.221 C 349.421 14.887,345.304 14.653,345.633 14.951 M114.400 16.205 C 105.143 18.803,96.026 25.110,90.114 33.003 C 87.985 35.847,84.993 41.127,85.324 41.457 C 85.438 41.572,85.851 40.975,86.242 40.132 C 91.537 28.715,102.739 19.888,116.800 16.054 C 117.876 15.760,117.969 15.675,117.200 15.686 C 116.650 15.693,115.390 15.927,114.400 16.205 M354.600 16.577 C 356.360 17.084,358.790 17.893,360.000 18.377 C 362.055 19.198,362.830 19.597,367.000 21.981 C 372.282 25.001,381.244 34.771,382.939 39.357 C 383.093 39.774,383.329 40.005,383.463 39.870 C 384.187 39.147,378.583 31.415,374.356 27.304 C 368.621 21.727,356.798 15.479,352.264 15.629 C 351.789 15.644,352.840 16.071,354.600 16.577 M84.616 42.443 C 82.911 47.130,81.991 50.416,82.019 51.720 C 82.030 52.204,82.454 51.070,82.962 49.200 C 83.470 47.330,84.174 44.997,84.525 44.016 C 84.877 43.034,85.087 42.153,84.992 42.058 C 84.897 41.963,84.728 42.136,84.616 42.443 M384.580 42.600 C 384.985 43.686,386.668 49.072,387.143 50.800 C 387.355 51.570,387.544 51.894,387.564 51.520 C 387.637 50.133,385.408 42.910,384.688 42.200 C 384.414 41.930,384.379 42.061,384.580 42.600 M81.452 53.700 C 81.319 54.195,81.208 57.975,81.205 62.100 L 81.200 69.600 179.500 69.501 L 277.800 69.402 179.654 69.300 L 81.508 69.198 81.663 60.999 C 81.748 56.490,81.789 52.800,81.755 52.800 C 81.721 52.800,81.585 53.205,81.452 53.700 M387.800 132.800 C 387.800 176.826,387.917 212.432,388.060 211.924 C 388.203 211.416,388.320 175.810,388.320 132.800 C 388.320 89.790,388.203 54.184,388.060 53.676 C 387.917 53.168,387.800 88.774,387.800 132.800 M279.400 70.000 C 280.060 70.168,281.320 70.305,282.200 70.305 C 283.717 70.305,283.738 70.290,282.600 70.000 C 281.940 69.832,280.680 69.695,279.800 69.695 C 278.283 69.695,278.262 69.710,279.400 70.000 M285.200 70.835 C 285.970 71.067,287.320 71.448,288.200 71.682 C 304.975 76.139,319.065 88.475,325.799 104.600 C 326.167 105.480,326.632 106.513,326.834 106.895 C 327.035 107.277,327.200 107.864,327.200 108.200 C 327.200 108.536,327.358 109.123,327.551 109.505 C 328.377 111.141,328.973 113.967,329.989 121.077 C 330.848 127.089,330.523 189.791,329.623 191.555 C 327.497 195.722,321.596 195.728,319.519 191.565 C 318.895 190.312,318.837 187.375,318.819 155.931 C 318.800 122.407,318.739 120.515,317.523 115.800 C 314.142 102.688,305.926 92.206,294.359 86.245 C 289.834 83.913,287.537 83.110,281.600 81.782 C 278.298 81.043,52.923 80.890,49.677 81.625 C 44.860 82.715,44.061 82.928,42.000 83.674 C 25.742 89.558,14.420 103.640,11.988 121.000 C 11.365 125.444,11.671 276.912,12.308 279.800 C 13.266 284.138,13.515 285.066,14.185 286.800 C 15.273 289.617,17.455 294.119,18.159 295.000 C 18.511 295.440,17.827 293.730,16.641 291.200 C 15.454 288.670,14.387 286.150,14.269 285.600 C 14.152 285.050,13.847 283.880,13.592 283.000 C 12.317 278.603,12.275 276.310,12.112 201.000 C 11.948 125.730,12.003 121.554,13.209 116.800 C 18.064 97.665,31.731 85.079,51.000 81.999 C 54.825 81.388,278.473 81.666,281.400 82.286 C 292.607 84.659,302.733 90.891,309.220 99.409 C 312.582 103.823,315.313 109.502,316.813 115.200 C 318.280 120.771,318.386 123.585,318.393 157.313 C 318.399 184.459,318.499 190.658,318.948 191.713 C 321.021 196.576,327.651 196.653,329.980 191.841 C 330.893 189.956,331.266 126.535,330.402 120.200 C 328.464 105.987,322.680 94.460,312.743 85.000 C 307.242 79.764,303.378 77.203,295.800 73.772 C 293.466 72.715,287.376 70.838,285.600 70.627 C 283.834 70.418,283.827 70.422,285.200 70.835 M105.200 110.476 C 100.429 112.488,97.546 115.071,95.515 119.156 L 94.200 121.800 94.200 136.000 L 94.200 150.200 95.559 152.936 C 97.146 156.130,99.966 159.074,102.680 160.371 C 103.736 160.875,104.943 161.467,105.363 161.686 C 105.782 161.906,109.427 162.183,113.463 162.302 L 120.800 162.519 120.800 168.411 C 120.800 174.575,121.126 176.170,122.720 177.800 C 124.104 179.216,125.195 180.000,125.781 180.000 C 126.095 180.000,126.464 180.180,126.600 180.400 C 128.509 183.488,138.827 176.700,144.287 168.764 C 149.369 161.377,150.354 157.000,150.667 140.395 C 151.076 118.656,149.529 114.658,139.081 110.451 C 137.587 109.849,106.633 109.872,105.200 110.476 M169.778 110.548 C 169.105 110.796,168.077 111.315,167.492 111.700 C 166.907 112.085,166.269 112.400,166.075 112.400 C 165.387 112.400,161.320 117.027,160.625 118.602 C 160.236 119.481,159.712 120.632,159.459 121.161 C 158.824 122.489,158.815 149.484,159.449 150.839 C 161.239 154.665,161.841 155.662,163.136 156.946 C 165.384 159.177,166.449 159.991,167.987 160.656 C 168.764 160.992,169.743 161.451,170.163 161.676 C 170.582 161.901,174.227 162.183,178.263 162.302 L 185.600 162.519 185.600 168.581 C 185.600 174.550,185.617 174.671,186.732 176.422 C 189.299 180.456,193.586 181.917,197.086 179.952 C 204.623 175.718,210.640 168.330,213.497 159.800 C 215.306 154.397,215.400 153.289,215.400 137.400 L 215.400 122.200 214.037 119.411 C 212.425 116.113,209.444 112.995,206.600 111.632 C 205.500 111.105,204.287 110.522,203.905 110.337 C 202.822 109.811,171.240 110.007,169.778 110.548 M139.340 111.147 C 144.283 112.778,147.835 116.533,149.566 121.960 C 150.150 123.791,150.153 151.181,149.569 154.069 C 146.643 168.552,134.469 182.347,126.848 179.816 C 122.498 178.371,121.559 176.393,121.237 168.000 L 121.000 161.800 113.600 161.587 C 109.530 161.470,105.840 161.228,105.400 161.050 C 96.146 157.300,94.405 153.332,94.405 136.000 C 94.405 118.591,96.541 113.897,105.800 110.961 C 108.672 110.050,136.483 110.204,139.340 111.147 M204.140 111.147 C 209.083 112.778,212.635 116.533,214.366 121.960 C 215.109 124.288,214.943 151.572,214.165 155.000 C 213.815 156.540,213.434 158.297,213.318 158.905 C 213.203 159.513,212.949 160.108,212.754 160.229 C 212.559 160.349,212.400 160.709,212.400 161.028 C 212.400 165.740,200.945 178.453,195.339 179.962 C 189.498 181.535,186.375 177.523,186.027 168.000 L 185.800 161.800 178.400 161.592 C 170.281 161.365,168.879 161.037,165.800 158.651 C 163.019 156.495,161.418 154.385,160.353 151.470 C 159.448 148.996,159.192 123.450,160.051 121.319 C 162.267 115.814,165.607 112.514,170.514 110.980 C 173.486 110.051,201.236 110.189,204.140 111.147 M107.360 122.960 L 106.000 124.320 106.000 135.786 C 106.000 147.449,106.105 148.366,107.565 149.487 C 108.802 150.437,108.844 149.982,107.631 148.769 L 106.400 147.538 106.409 136.069 C 106.421 120.600,104.820 122.000,122.489 122.000 L 135.430 122.000 136.815 123.156 L 138.200 124.312 138.200 136.656 C 138.200 143.445,138.072 150.260,137.915 151.800 C 137.690 154.018,137.728 154.434,138.096 153.800 C 138.767 152.645,139.057 127.213,138.425 124.882 C 137.543 121.628,137.418 121.603,122.060 121.601 L 108.720 121.600 107.360 122.960 M173.355 121.992 C 170.883 122.991,170.800 123.446,170.800 136.023 L 170.800 147.539 171.836 148.769 C 172.405 149.446,173.049 150.000,173.266 150.000 C 173.484 150.000,173.108 149.446,172.431 148.769 L 171.200 147.538 171.209 136.069 C 171.221 120.611,169.652 122.000,187.094 122.000 C 200.706 122.000,201.341 122.082,202.580 123.992 C 203.116 124.819,203.212 124.859,203.114 124.214 C 202.748 121.810,201.450 121.598,187.241 121.625 C 180.068 121.639,173.820 121.804,173.355 121.992 M203.378 137.600 C 203.378 144.530,203.433 147.365,203.499 143.900 C 203.566 140.435,203.566 134.765,203.499 131.300 C 203.433 127.835,203.378 130.670,203.378 137.600 M117.400 150.378 C 129.404 150.697,132.773 152.999,132.794 160.900 C 132.800 163.324,133.070 163.649,134.115 162.494 C 135.088 161.418,137.586 156.305,137.580 155.400 C 137.577 154.960,137.040 155.860,136.387 157.400 C 135.734 158.940,134.756 160.740,134.214 161.400 L 133.229 162.600 133.197 160.400 C 133.082 152.467,129.182 149.962,117.125 150.078 L 109.000 150.156 117.400 150.378 M182.200 150.378 C 194.203 150.697,197.600 152.950,197.600 160.596 C 197.600 162.028,197.752 163.200,197.938 163.200 C 199.408 163.200,203.257 154.822,203.160 151.834 C 203.133 150.995,202.938 151.431,202.552 153.197 C 201.926 156.065,200.179 160.052,198.871 161.600 L 198.027 162.600 198.005 160.200 C 197.933 152.477,193.939 149.963,181.925 150.078 L 173.800 150.156 182.200 150.378 M60.896 197.723 C 57.482 200.020,57.107 204.307,60.063 207.263 L 61.600 208.800 165.011 208.800 L 268.421 208.800 270.211 207.011 C 273.098 204.123,272.580 199.717,269.104 197.598 C 267.811 196.810,266.893 196.803,165.000 196.825 L 62.200 196.846 60.896 197.723 M268.146 197.752 C 272.098 199.403,272.640 205.080,269.076 207.500 L 267.750 208.400 164.875 208.400 L 62.000 208.400 60.400 206.800 C 57.588 203.988,58.271 199.605,61.800 197.814 C 63.528 196.937,266.050 196.876,268.146 197.752 M322.582 210.652 C 321.432 210.908,319.837 212.370,319.059 213.880 C 318.465 215.035,318.399 218.055,318.393 244.680 C 318.385 277.583,318.287 279.143,315.747 286.781 C 314.938 289.212,311.540 296.000,311.131 296.000 C 310.949 296.000,310.797 296.225,310.793 296.500 C 310.768 298.213,301.429 307.429,297.200 309.913 C 296.210 310.495,295.340 311.112,295.267 311.285 C 295.193 311.458,294.788 311.600,294.367 311.600 C 293.945 311.600,293.600 311.780,293.600 312.000 C 293.600 312.220,293.364 312.400,293.075 312.400 C 292.786 312.400,291.834 312.746,290.959 313.169 C 286.849 315.155,279.043 316.763,273.392 316.788 C 265.097 316.824,260.330 319.803,250.971 330.795 C 245.466 337.261,231.732 350.910,225.200 356.407 C 223.770 357.610,222.510 358.696,222.400 358.819 C 221.204 360.160,203.562 373.668,201.133 375.103 C 200.510 375.471,200.000 375.914,200.000 376.086 C 200.000 376.259,199.764 376.400,199.475 376.400 C 199.187 376.400,198.573 376.752,198.112 377.182 C 197.650 377.612,196.251 378.617,195.003 379.415 C 193.755 380.214,192.816 380.949,192.916 381.049 C 193.306 381.440,207.482 371.301,217.498 363.466 C 229.095 354.396,243.116 340.953,252.400 330.003 C 260.977 319.888,265.819 317.202,275.480 317.200 C 294.338 317.197,312.618 302.157,317.534 282.600 C 318.736 277.817,318.800 275.976,318.800 246.105 L 318.800 215.470 319.767 213.820 C 322.003 210.004,327.139 209.994,329.466 213.800 C 330.140 214.902,330.217 216.463,330.410 233.000 L 330.620 251.000 330.710 233.287 C 330.810 213.701,330.817 213.769,328.306 211.854 C 326.943 210.814,324.322 210.264,322.582 210.652 M387.087 214.600 C 386.849 215.988,385.485 220.556,384.579 223.000 C 384.384 223.527,384.417 223.663,384.676 223.400 C 385.540 222.524,387.772 214.946,387.519 213.748 C 387.427 213.310,387.248 213.664,387.087 214.600 M62.315 223.884 C 56.807 224.730,56.986 234.813,62.527 235.801 C 63.227 235.926,109.822 235.976,166.071 235.914 L 268.341 235.800 269.456 234.968 C 272.890 232.404,272.798 226.920,269.280 224.533 C 268.268 223.846,66.673 223.214,62.315 223.884 M269.767 225.794 C 272.292 228.318,272.087 232.177,269.318 234.289 L 267.862 235.400 166.431 235.517 C 110.644 235.581,64.275 235.531,63.388 235.405 C 58.289 234.684,56.925 227.470,61.400 224.886 C 61.999 224.540,88.097 224.421,165.287 224.412 L 268.373 224.400 269.767 225.794 M382.909 226.242 C 382.546 227.133,380.420 230.735,379.746 231.600 C 375.498 237.054,370.632 241.564,366.341 244.026 C 361.976 246.530,358.996 247.739,352.800 249.517 C 352.005 249.745,351.737 249.936,352.179 249.959 C 356.047 250.162,366.501 245.086,372.198 240.240 C 377.213 235.974,384.414 226.681,383.452 225.718 C 383.323 225.589,383.078 225.825,382.909 226.242 M346.600 250.400 L 345.000 250.686 347.000 250.703 C 348.100 250.713,349.450 250.576,350.000 250.400 C 351.331 249.974,348.981 249.974,346.600 250.400 M61.760 251.162 C 57.223 253.223,56.887 259.970,61.212 262.206 C 62.219 262.727,75.039 262.800,165.242 262.800 L 268.124 262.800 269.463 261.779 C 273.253 258.889,272.780 253.256,268.574 251.197 C 266.102 249.986,64.425 249.952,61.760 251.162 M269.583 252.583 C 272.230 255.120,272.107 258.865,269.299 261.179 L 267.818 262.400 165.289 262.400 C 52.800 262.400,61.446 262.593,59.632 260.044 C 58.475 258.420,58.488 255.161,59.659 253.518 C 61.408 251.061,53.719 251.221,165.674 251.314 L 268.347 251.400 269.583 252.583 M113.400 277.661 C 108.246 279.369,106.802 283.966,110.179 287.910 C 112.067 290.115,109.048 290.000,165.107 290.000 C 216.720 290.000,216.896 289.997,218.346 289.173 C 223.392 286.304,222.511 279.690,216.818 277.706 C 215.003 277.074,115.304 277.030,113.400 277.661 M216.796 278.259 C 221.440 279.188,222.549 285.949,218.473 288.484 L 217.000 289.400 166.800 289.520 C 139.190 289.586,115.653 289.527,114.496 289.390 C 108.504 288.681,106.852 281.173,112.158 278.763 C 113.830 278.004,213.126 277.525,216.796 278.259 M18.800 296.217 C 18.800 297.718,27.355 306.561,31.410 309.251 C 36.127 312.380,44.023 315.927,45.311 315.495 C 45.580 315.405,44.514 314.932,42.943 314.445 C 34.769 311.912,25.800 305.342,20.631 298.100 C 19.227 296.133,18.800 295.694,18.800 296.217 M46.400 316.000 C 46.730 316.213,47.540 316.373,48.200 316.354 C 49.376 316.321,49.380 316.314,48.400 316.000 C 46.870 315.510,45.642 315.510,46.400 316.000 M50.621 316.853 C 51.269 316.992,82.365 317.127,119.723 317.153 C 190.395 317.202,189.523 317.181,193.200 318.919 C 200.485 322.364,202.812 330.164,199.606 340.400 C 199.434 340.950,199.071 342.210,198.800 343.200 C 198.529 344.190,198.170 345.450,198.002 346.000 C 197.834 346.550,197.292 348.350,196.798 350.000 C 196.304 351.650,195.633 353.720,195.307 354.600 C 194.981 355.480,194.392 357.190,193.998 358.400 C 193.605 359.610,192.897 361.568,192.427 362.752 C 191.956 363.936,191.663 364.996,191.776 365.109 C 191.889 365.222,192.092 364.974,192.227 364.557 C 192.362 364.141,192.660 363.350,192.890 362.800 C 193.472 361.404,193.843 360.422,194.400 358.800 C 194.664 358.030,195.021 357.040,195.193 356.600 C 195.364 356.160,196.093 353.910,196.812 351.600 C 197.531 349.290,198.359 346.641,198.651 345.713 C 203.071 331.669,202.411 325.078,196.083 320.066 C 192.054 316.875,193.246 317.012,168.600 316.901 C 113.058 316.649,49.551 316.624,50.621 316.853 M189.463 370.063 C 188.439 372.522,187.676 374.609,187.766 374.700 C 187.916 374.849,188.694 373.273,189.641 370.900 C 189.838 370.405,190.180 369.550,190.400 369.000 C 190.620 368.450,191.010 367.550,191.267 367.001 C 191.524 366.451,191.642 365.909,191.529 365.796 C 191.416 365.683,190.486 367.603,189.463 370.063 M186.852 376.045 C 186.648 376.570,185.824 378.414,185.022 380.142 C 183.392 383.651,183.629 385.200,185.797 385.200 C 186.775 385.200,192.630 381.696,192.264 381.330 C 192.157 381.224,190.841 381.961,189.339 382.968 C 184.263 386.373,183.144 385.021,186.050 378.991 C 186.958 377.108,187.593 375.459,187.461 375.328 C 187.330 375.197,187.056 375.519,186.852 376.045 " stroke="none" fill="#467ba7" fill-rule="evenodd"></path></g></svg>