<svg id="svg" version="1.1" xmlns="http://www.w3.org/2000/svg" xmlns:xlink="http://www.w3.org/1999/xlink" width="400" height="400" viewBox="0, 0, 400,400"><g id="svgg"><path id="path0" d="M123.200 2.400 C 123.200 2.637,121.733 2.800,119.600 2.800 C 117.467 2.800,116.000 2.963,116.000 3.200 C 116.000 3.420,115.190 3.600,114.200 3.600 C 113.210 3.600,112.400 3.780,112.400 4.000 C 112.400 4.220,111.770 4.400,111.000 4.400 C 110.230 4.400,109.600 4.580,109.600 4.800 C 109.600 5.020,109.150 5.200,108.600 5.200 C 108.050 5.200,107.600 5.380,107.600 5.600 C 107.600 5.820,107.060 6.000,106.400 6.000 C 105.740 6.000,105.200 6.180,105.200 6.400 C 105.200 6.620,104.851 6.800,104.424 6.800 C 103.997 6.800,103.536 6.980,103.400 7.200 C 103.264 7.420,102.713 7.600,102.176 7.600 C 101.639 7.600,101.200 7.780,101.200 8.000 C 101.200 8.220,100.926 8.400,100.592 8.400 C 100.258 8.400,99.271 8.850,98.400 9.400 C 97.529 9.950,96.677 10.401,96.508 10.402 C 96.339 10.403,95.251 11.123,94.092 12.002 C 92.932 12.881,91.893 13.600,91.783 13.600 C 91.066 13.600,80.000 24.818,80.000 25.544 C 80.000 25.727,79.640 26.202,79.200 26.600 C 78.760 26.998,78.400 27.566,78.400 27.862 C 78.400 28.158,78.249 28.400,78.065 28.400 C 77.881 28.400,77.048 29.795,76.213 31.500 C 75.379 33.205,74.540 34.913,74.348 35.295 C 74.157 35.677,74.000 36.262,74.000 36.595 C 74.000 36.928,73.820 37.200,73.600 37.200 C 73.380 37.200,73.200 37.560,73.200 38.000 C 73.200 38.440,73.020 38.800,72.800 38.800 C 72.580 38.800,72.400 39.340,72.400 40.000 C 72.400 40.660,72.220 41.200,72.000 41.200 C 71.780 41.200,71.600 41.639,71.600 42.176 C 71.600 42.713,71.420 43.264,71.200 43.400 C 70.980 43.536,70.800 44.267,70.800 45.024 C 70.800 45.781,70.620 46.400,70.400 46.400 C 70.180 46.400,70.000 47.300,70.000 48.400 C 70.000 49.500,69.820 50.400,69.600 50.400 C 69.345 50.400,69.200 53.667,69.200 59.400 L 69.200 68.400 61.000 68.400 C 55.800 68.400,52.800 68.546,52.800 68.800 C 52.800 69.033,51.467 69.200,49.600 69.200 C 47.733 69.200,46.400 69.367,46.400 69.600 C 46.400 69.820,45.590 70.000,44.600 70.000 C 43.610 70.000,42.800 70.180,42.800 70.400 C 42.800 70.620,42.181 70.800,41.424 70.800 C 40.667 70.800,39.936 70.980,39.800 71.200 C 39.664 71.420,39.124 71.600,38.600 71.600 C 38.076 71.600,37.536 71.780,37.400 72.000 C 37.264 72.220,36.803 72.400,36.376 72.400 C 35.949 72.400,35.600 72.580,35.600 72.800 C 35.600 73.020,35.161 73.200,34.624 73.200 C 34.087 73.200,33.536 73.380,33.400 73.600 C 33.264 73.820,32.803 74.000,32.376 74.000 C 31.949 74.000,31.600 74.180,31.600 74.400 C 31.600 74.620,31.326 74.800,30.992 74.800 C 30.658 74.800,29.671 75.250,28.800 75.800 C 27.929 76.350,27.115 76.800,26.992 76.800 C 26.715 76.800,24.510 78.352,23.440 79.300 C 23.005 79.685,22.489 80.000,22.293 80.000 C 22.097 80.000,21.246 80.720,20.400 81.600 C 19.554 82.480,18.676 83.200,18.448 83.200 C 17.941 83.200,13.600 87.596,13.600 88.110 C 13.600 88.313,13.100 88.956,12.490 89.540 C 11.081 90.885,8.400 94.565,8.400 95.154 C 8.400 95.399,8.220 95.600,8.000 95.600 C 7.780 95.600,7.600 95.960,7.600 96.400 C 7.600 96.840,7.420 97.200,7.200 97.200 C 6.980 97.200,6.800 97.455,6.800 97.767 C 6.800 98.078,6.665 98.393,6.500 98.467 C 6.001 98.688,4.400 102.022,4.400 102.838 C 4.400 103.257,4.220 103.600,4.000 103.600 C 3.780 103.600,3.600 103.960,3.600 104.400 C 3.600 104.840,3.420 105.200,3.200 105.200 C 2.980 105.200,2.800 105.740,2.800 106.400 C 2.800 107.060,2.620 107.600,2.400 107.600 C 2.180 107.600,2.000 108.039,2.000 108.576 C 2.000 109.113,1.820 109.664,1.600 109.800 C 1.380 109.936,1.200 110.652,1.200 111.390 C 1.200 112.129,0.975 112.808,0.700 112.900 C -0.035 113.145,-0.035 285.255,0.700 285.500 C 0.975 285.592,1.200 286.271,1.200 287.010 C 1.200 287.748,1.380 288.464,1.600 288.600 C 1.820 288.736,2.000 289.276,2.000 289.800 C 2.000 290.324,2.180 290.864,2.400 291.000 C 2.620 291.136,2.800 291.687,2.800 292.224 C 2.800 292.761,2.980 293.200,3.200 293.200 C 3.420 293.200,3.600 293.560,3.600 294.000 C 3.600 294.440,3.780 294.800,4.000 294.800 C 4.220 294.800,4.400 295.160,4.400 295.600 C 4.400 296.040,4.580 296.400,4.800 296.400 C 5.020 296.400,5.200 296.760,5.200 297.200 C 5.200 297.640,5.380 298.000,5.600 298.000 C 5.820 298.000,6.000 298.360,6.000 298.800 C 6.000 299.240,6.180 299.600,6.400 299.600 C 6.620 299.600,6.800 299.960,6.800 300.400 C 6.800 300.840,6.980 301.200,7.200 301.200 C 7.420 301.200,7.600 301.478,7.600 301.817 C 7.600 302.156,7.781 302.651,8.001 302.917 C 8.222 303.183,9.064 304.390,9.873 305.600 C 11.509 308.048,21.741 318.400,22.524 318.400 C 22.799 318.400,23.283 318.760,23.600 319.200 C 23.917 319.640,24.373 320.000,24.613 320.000 C 24.853 320.000,25.398 320.325,25.825 320.722 C 26.251 321.120,27.185 321.703,27.900 322.020 C 28.615 322.336,29.200 322.731,29.200 322.898 C 29.200 323.064,29.439 323.200,29.732 323.200 C 30.025 323.200,31.150 323.649,32.232 324.198 C 33.314 324.747,34.515 325.197,34.900 325.198 C 35.285 325.199,35.600 325.380,35.600 325.600 C 35.600 325.820,36.140 326.000,36.800 326.000 C 37.460 326.000,38.000 326.180,38.000 326.400 C 38.000 326.620,38.540 326.800,39.200 326.800 C 39.860 326.800,40.400 326.980,40.400 327.200 C 40.400 327.420,41.019 327.600,41.776 327.600 C 42.533 327.600,43.264 327.780,43.400 328.000 C 43.536 328.220,44.447 328.400,45.424 328.400 C 46.401 328.400,47.200 328.580,47.200 328.800 C 47.200 329.065,70.667 329.200,116.800 329.200 C 162.933 329.200,186.400 329.335,186.400 329.600 C 186.400 329.820,186.683 330.000,187.029 330.000 C 187.374 330.000,187.914 330.257,188.229 330.571 C 188.875 331.218,189.014 334.000,188.400 334.000 C 188.180 334.000,188.000 334.720,188.000 335.600 C 188.000 336.480,187.820 337.200,187.600 337.200 C 187.380 337.200,187.200 337.819,187.200 338.576 C 187.200 339.333,187.020 340.064,186.800 340.200 C 186.580 340.336,186.400 340.977,186.400 341.624 C 186.400 342.271,186.220 342.800,186.000 342.800 C 185.780 342.800,185.600 343.340,185.600 344.000 C 185.600 344.660,185.420 345.200,185.200 345.200 C 184.980 345.200,184.800 345.729,184.800 346.376 C 184.800 347.023,184.620 347.664,184.400 347.800 C 184.180 347.936,184.000 348.577,184.000 349.224 C 184.000 349.871,183.820 350.400,183.600 350.400 C 183.380 350.400,183.200 350.762,183.200 351.205 C 183.200 351.648,182.992 352.413,182.738 352.905 C 181.742 354.831,181.600 355.217,181.600 355.995 C 181.600 356.438,181.420 356.800,181.200 356.800 C 180.980 356.800,180.800 357.239,180.800 357.776 C 180.800 358.313,180.620 358.864,180.400 359.000 C 180.180 359.136,180.000 359.597,180.000 360.024 C 180.000 360.451,179.820 360.800,179.600 360.800 C 179.380 360.800,179.200 361.250,179.200 361.800 C 179.200 362.350,179.020 362.800,178.800 362.800 C 178.580 362.800,178.400 363.149,178.400 363.576 C 178.400 364.003,178.220 364.464,178.000 364.600 C 177.780 364.736,177.600 365.287,177.600 365.824 C 177.600 366.361,177.420 366.800,177.200 366.800 C 176.980 366.800,176.800 367.036,176.800 367.325 C 176.800 367.614,176.350 368.783,175.800 369.923 C 175.250 371.063,174.800 372.179,174.800 372.403 C 174.800 372.628,174.632 373.123,174.426 373.505 C 174.221 373.887,173.817 374.785,173.529 375.500 C 173.240 376.215,172.869 376.800,172.702 376.800 C 172.536 376.800,172.400 377.250,172.400 377.800 C 172.400 378.350,172.220 378.800,172.000 378.800 C 171.758 378.800,171.600 380.533,171.600 383.200 C 171.600 385.867,171.758 387.600,172.000 387.600 C 172.220 387.600,172.400 388.050,172.400 388.600 C 172.400 389.150,172.580 389.600,172.800 389.600 C 173.020 389.600,173.200 389.917,173.200 390.304 C 173.200 390.691,173.560 391.232,174.000 391.507 C 174.440 391.782,174.800 392.193,174.800 392.422 C 174.800 392.962,176.641 394.800,177.182 394.800 C 177.412 394.800,177.600 394.980,177.600 395.200 C 177.600 395.420,177.870 395.600,178.200 395.600 C 178.530 395.600,178.800 395.780,178.800 396.000 C 178.800 396.220,179.250 396.400,179.800 396.400 C 180.350 396.400,180.800 396.580,180.800 396.800 C 180.800 397.020,181.509 397.200,182.376 397.200 C 183.243 397.200,184.064 397.380,184.200 397.600 C 184.522 398.122,187.600 398.122,187.600 397.600 C 187.600 397.380,188.194 397.200,188.920 397.200 C 190.299 397.200,192.391 396.417,192.397 395.900 C 192.399 395.735,192.760 395.600,193.200 395.600 C 193.640 395.600,194.000 395.420,194.000 395.200 C 194.000 394.980,194.320 394.800,194.712 394.800 C 195.103 394.800,195.683 394.440,196.000 394.000 C 196.317 393.560,196.897 393.200,197.288 393.200 C 197.680 393.200,198.000 393.041,198.000 392.846 C 198.000 392.651,198.675 392.174,199.500 391.785 C 200.889 391.132,205.544 388.156,206.000 387.629 C 206.110 387.503,206.695 387.144,207.300 386.832 C 207.905 386.520,208.400 386.115,208.400 385.932 C 208.400 385.750,208.630 385.600,208.912 385.600 C 209.193 385.600,209.683 385.240,210.000 384.800 C 210.317 384.360,210.780 384.000,211.029 384.000 C 211.278 384.000,212.046 383.460,212.737 382.800 C 213.428 382.140,214.192 381.600,214.436 381.600 C 214.680 381.600,215.383 381.060,216.000 380.400 C 216.617 379.740,217.337 379.200,217.600 379.200 C 217.863 379.200,218.583 378.660,219.200 378.000 C 219.817 377.340,220.485 376.800,220.685 376.800 C 220.885 376.800,221.398 376.480,221.825 376.088 C 222.251 375.696,223.316 374.841,224.191 374.188 C 225.066 373.535,226.308 372.505,226.950 371.900 C 227.593 371.295,228.284 370.800,228.485 370.800 C 228.687 370.800,229.729 369.900,230.800 368.800 C 231.871 367.700,232.921 366.800,233.133 366.800 C 233.345 366.800,234.871 365.495,236.524 363.900 C 238.177 362.305,240.569 360.100,241.841 359.000 C 244.914 356.341,255.138 346.118,256.400 344.441 C 256.950 343.711,258.615 341.854,260.100 340.315 C 261.585 338.775,262.800 337.352,262.800 337.152 C 262.800 336.532,268.750 330.800,269.394 330.800 C 269.727 330.800,270.000 330.620,270.000 330.400 C 270.000 330.180,270.810 330.000,271.800 330.000 C 272.790 330.000,273.600 329.820,273.600 329.600 C 273.600 329.356,275.467 329.200,278.400 329.200 C 281.333 329.200,283.200 329.044,283.200 328.800 C 283.200 328.580,284.100 328.400,285.200 328.400 C 286.300 328.400,287.200 328.220,287.200 328.000 C 287.200 327.780,287.830 327.600,288.600 327.600 C 289.370 327.600,290.000 327.420,290.000 327.200 C 290.000 326.980,290.540 326.800,291.200 326.800 C 291.860 326.800,292.400 326.620,292.400 326.400 C 292.400 326.180,292.940 326.000,293.600 326.000 C 294.260 326.000,294.800 325.836,294.800 325.635 C 294.800 325.434,295.520 325.149,296.400 325.000 C 297.280 324.851,298.000 324.566,298.000 324.365 C 298.000 324.164,298.360 324.000,298.800 324.000 C 299.240 324.000,299.600 323.820,299.600 323.600 C 299.600 323.380,299.960 323.200,300.400 323.200 C 300.840 323.200,301.200 323.020,301.200 322.800 C 301.200 322.580,301.560 322.400,302.000 322.400 C 302.440 322.400,302.800 322.220,302.800 322.000 C 302.800 321.780,303.036 321.600,303.325 321.600 C 303.613 321.600,304.236 321.240,304.708 320.800 C 305.180 320.360,305.754 320.000,305.983 320.000 C 306.212 320.000,306.400 319.859,306.400 319.686 C 306.400 319.514,306.977 319.032,307.682 318.615 C 310.163 317.150,321.576 305.241,321.593 304.100 C 321.597 303.825,321.745 303.600,321.921 303.600 C 322.098 303.600,322.683 302.703,323.221 301.606 C 323.760 300.510,324.319 299.610,324.465 299.606 C 324.611 299.603,324.851 298.880,325.000 298.000 C 325.149 297.120,325.434 296.400,325.635 296.400 C 325.836 296.400,326.000 296.040,326.000 295.600 C 326.000 295.160,326.180 294.800,326.400 294.800 C 326.620 294.800,326.800 294.440,326.800 294.000 C 326.800 293.560,326.980 293.200,327.200 293.200 C 327.420 293.200,327.600 292.660,327.600 292.000 C 327.600 291.340,327.780 290.800,328.000 290.800 C 328.220 290.800,328.400 290.361,328.400 289.824 C 328.400 289.287,328.580 288.736,328.800 288.600 C 329.020 288.464,329.200 287.733,329.200 286.976 C 329.200 286.219,329.380 285.600,329.600 285.600 C 329.820 285.600,330.000 284.700,330.000 283.600 C 330.000 282.500,330.180 281.600,330.400 281.600 C 330.655 281.600,330.800 278.333,330.800 272.600 L 330.800 263.600 337.400 263.600 C 341.533 263.600,344.000 263.451,344.000 263.200 C 344.000 262.958,345.733 262.800,348.400 262.800 C 351.067 262.800,352.800 262.642,352.800 262.400 C 352.800 262.180,353.700 262.000,354.800 262.000 C 355.900 262.000,356.800 261.820,356.800 261.600 C 356.800 261.380,357.430 261.200,358.200 261.200 C 358.970 261.200,359.600 261.020,359.600 260.800 C 359.600 260.580,360.140 260.400,360.800 260.400 C 361.460 260.400,362.000 260.220,362.000 260.000 C 362.000 259.780,362.540 259.600,363.200 259.600 C 363.860 259.600,364.400 259.436,364.400 259.235 C 364.400 259.034,365.120 258.749,366.000 258.600 C 366.880 258.451,367.600 258.166,367.600 257.965 C 367.600 257.764,367.960 257.600,368.400 257.600 C 368.840 257.600,369.200 257.420,369.200 257.200 C 369.200 256.980,369.560 256.800,370.000 256.800 C 370.440 256.800,370.800 256.664,370.800 256.498 C 370.800 256.331,371.385 255.936,372.100 255.620 C 372.815 255.303,373.749 254.720,374.175 254.322 C 374.602 253.925,375.147 253.600,375.387 253.600 C 375.627 253.600,376.083 253.240,376.400 252.800 C 376.717 252.360,377.183 252.000,377.435 252.000 C 377.839 252.000,378.752 251.205,383.477 246.739 C 385.909 244.440,388.893 241.043,390.212 239.071 C 390.974 237.932,391.778 236.783,391.999 236.517 C 392.219 236.251,392.400 235.756,392.400 235.417 C 392.400 235.078,392.580 234.800,392.800 234.800 C 393.020 234.800,393.200 234.440,393.200 234.000 C 393.200 233.560,393.335 233.199,393.500 233.197 C 393.859 233.193,394.800 231.256,394.800 230.520 C 394.800 230.234,394.980 230.000,395.200 230.000 C 395.420 230.000,395.600 229.640,395.600 229.200 C 395.600 228.760,395.780 228.400,396.000 228.400 C 396.220 228.400,396.400 228.040,396.400 227.600 C 396.400 227.160,396.580 226.800,396.800 226.800 C 397.020 226.800,397.200 226.361,397.200 225.824 C 397.200 225.287,397.380 224.736,397.600 224.600 C 397.820 224.464,398.000 223.924,398.000 223.400 C 398.000 222.876,398.180 222.336,398.400 222.200 C 398.620 222.064,398.800 221.348,398.800 220.610 C 398.800 219.871,399.025 219.192,399.300 219.100 C 399.698 218.967,399.800 201.351,399.800 132.800 C 399.800 64.249,399.698 46.633,399.300 46.500 C 399.025 46.408,398.800 45.729,398.800 44.990 C 398.800 44.252,398.620 43.536,398.400 43.400 C 398.180 43.264,398.000 42.713,398.000 42.176 C 398.000 41.639,397.820 41.200,397.600 41.200 C 397.380 41.200,397.200 40.660,397.200 40.000 C 397.200 39.340,397.020 38.800,396.800 38.800 C 396.580 38.800,396.400 38.440,396.400 38.000 C 396.400 37.560,396.220 37.200,396.000 37.200 C 395.780 37.200,395.600 36.838,395.600 36.395 C 395.600 35.646,394.901 34.059,394.368 33.600 C 394.240 33.490,393.881 32.815,393.570 32.100 C 393.259 31.385,392.869 30.800,392.702 30.800 C 392.536 30.800,392.400 30.522,392.400 30.183 C 392.400 29.844,392.219 29.349,391.999 29.083 C 391.778 28.817,390.945 27.626,390.148 26.436 C 389.351 25.246,388.137 23.680,387.449 22.955 C 386.762 22.231,385.660 20.928,385.000 20.060 C 384.340 19.191,383.292 18.175,382.670 17.800 C 382.049 17.426,380.749 16.328,379.781 15.360 C 378.813 14.392,377.812 13.600,377.557 13.600 C 377.302 13.600,376.802 13.285,376.446 12.900 C 375.726 12.122,373.358 10.400,373.008 10.400 C 372.885 10.400,372.071 9.950,371.200 9.400 C 370.329 8.850,369.342 8.400,369.008 8.400 C 368.674 8.400,368.400 8.220,368.400 8.000 C 368.400 7.780,367.950 7.600,367.400 7.600 C 366.850 7.600,366.400 7.420,366.400 7.200 C 366.400 6.980,365.950 6.800,365.400 6.800 C 364.850 6.800,364.400 6.620,364.400 6.400 C 364.400 6.180,363.860 6.000,363.200 6.000 C 362.540 6.000,362.000 5.820,362.000 5.600 C 362.000 5.380,361.460 5.200,360.800 5.200 C 360.140 5.200,359.600 5.020,359.600 4.800 C 359.600 4.580,359.060 4.400,358.400 4.400 C 357.740 4.400,357.200 4.220,357.200 4.000 C 357.200 3.780,356.390 3.600,355.400 3.600 C 354.410 3.600,353.600 3.420,353.600 3.200 C 353.600 2.963,352.133 2.800,350.000 2.800 C 347.867 2.800,346.400 2.637,346.400 2.400 C 346.400 1.846,247.342 1.846,247.000 2.400 C 246.864 2.620,246.313 2.800,245.776 2.800 C 245.239 2.800,244.800 2.980,244.800 3.200 C 244.800 3.420,244.530 3.600,244.200 3.600 C 243.870 3.600,243.600 3.767,243.600 3.971 C 243.600 4.176,243.285 4.658,242.900 5.044 C 242.347 5.597,242.200 6.435,242.200 9.027 L 242.200 12.309 243.778 13.755 L 245.356 15.200 295.478 15.200 C 328.626 15.200,345.600 15.335,345.600 15.600 C 345.600 15.829,346.800 16.000,348.400 16.000 C 350.000 16.000,351.200 16.171,351.200 16.400 C 351.200 16.620,351.920 16.800,352.800 16.800 C 353.680 16.800,354.400 16.980,354.400 17.200 C 354.400 17.420,354.940 17.600,355.600 17.600 C 356.260 17.600,356.800 17.780,356.800 18.000 C 356.800 18.220,357.340 18.400,358.000 18.400 C 358.660 18.400,359.200 18.580,359.200 18.800 C 359.200 19.020,359.560 19.200,360.000 19.200 C 360.440 19.200,360.800 19.380,360.800 19.600 C 360.800 19.820,361.053 20.000,361.362 20.000 C 362.119 20.000,365.200 21.665,365.200 22.074 C 365.200 22.253,365.560 22.400,366.000 22.400 C 366.440 22.400,366.800 22.551,366.800 22.736 C 366.800 22.920,367.257 23.280,367.815 23.534 C 368.879 24.019,369.414 24.416,371.001 25.900 C 371.530 26.395,372.107 26.800,372.282 26.800 C 372.837 26.801,374.566 28.541,375.751 30.291 C 376.381 31.221,377.370 32.485,377.948 33.098 C 378.527 33.712,379.255 34.706,379.568 35.307 C 379.880 35.908,380.285 36.400,380.468 36.400 C 380.650 36.400,380.800 36.760,380.800 37.200 C 380.800 37.640,380.980 38.000,381.200 38.000 C 381.420 38.000,381.600 38.270,381.600 38.600 C 381.600 38.930,381.780 39.200,382.000 39.200 C 382.220 39.200,382.400 39.560,382.400 40.000 C 382.400 40.440,382.580 40.800,382.800 40.800 C 383.020 40.800,383.200 41.160,383.200 41.600 C 383.200 42.040,383.380 42.400,383.600 42.400 C 383.820 42.400,384.000 42.760,384.000 43.200 C 384.000 43.640,384.180 44.000,384.400 44.000 C 384.620 44.000,384.800 44.540,384.800 45.200 C 384.800 45.860,384.980 46.400,385.200 46.400 C 385.420 46.400,385.600 46.929,385.600 47.576 C 385.600 48.223,385.780 48.864,386.000 49.000 C 386.220 49.136,386.400 49.946,386.400 50.800 C 386.400 51.654,386.580 52.464,386.800 52.600 C 387.020 52.736,387.200 54.446,387.200 56.400 C 387.200 58.354,387.380 60.064,387.600 60.200 C 388.154 60.543,388.154 205.200,387.600 205.200 C 387.362 205.200,387.200 206.725,387.200 208.976 C 387.200 211.063,387.021 212.863,386.800 213.000 C 386.580 213.136,386.400 213.946,386.400 214.800 C 386.400 215.654,386.220 216.464,386.000 216.600 C 385.780 216.736,385.600 217.377,385.600 218.024 C 385.600 218.671,385.420 219.200,385.200 219.200 C 384.980 219.200,384.800 219.740,384.800 220.400 C 384.800 221.060,384.620 221.600,384.400 221.600 C 384.180 221.600,384.000 221.960,384.000 222.400 C 384.000 222.840,383.820 223.200,383.600 223.200 C 383.380 223.200,383.200 223.560,383.200 224.000 C 383.200 224.440,383.020 224.800,382.800 224.800 C 382.580 224.800,382.400 225.160,382.400 225.600 C 382.400 226.040,382.220 226.400,382.000 226.400 C 381.780 226.400,381.600 226.670,381.600 227.000 C 381.600 227.330,381.420 227.600,381.200 227.600 C 380.980 227.600,380.800 227.836,380.800 228.125 C 380.800 228.413,380.440 229.036,380.000 229.508 C 379.560 229.980,379.198 230.509,379.195 230.683 C 379.190 230.971,378.208 232.227,375.700 235.151 C 375.206 235.728,374.801 236.395,374.800 236.632 C 374.800 236.870,374.305 237.320,373.700 237.632 C 373.095 237.945,371.970 238.830,371.200 239.601 C 370.430 240.371,369.125 241.357,368.300 241.791 C 367.475 242.226,366.800 242.721,366.800 242.891 C 366.800 243.061,366.455 243.200,366.033 243.200 C 365.612 243.200,365.207 243.337,365.133 243.504 C 364.922 243.986,358.275 247.207,357.500 247.203 C 357.115 247.201,356.800 247.380,356.800 247.600 C 356.800 247.820,356.260 248.000,355.600 248.000 C 354.940 248.000,354.400 248.180,354.400 248.400 C 354.400 248.620,353.691 248.800,352.824 248.800 C 351.957 248.800,351.136 248.980,351.000 249.200 C 350.864 249.420,349.424 249.600,347.800 249.600 C 346.176 249.600,344.736 249.780,344.600 250.000 C 344.451 250.241,341.663 250.400,337.576 250.400 L 330.800 250.400 330.800 231.787 L 330.800 213.173 329.413 211.787 C 328.651 211.024,327.761 210.400,327.437 210.400 C 327.113 210.400,326.736 210.220,326.600 210.000 C 326.464 209.780,325.564 209.600,324.600 209.600 C 323.636 209.600,322.736 209.780,322.600 210.000 C 322.464 210.220,322.087 210.400,321.763 210.400 C 320.566 210.400,318.400 213.081,318.400 214.563 C 318.400 215.327,318.220 216.064,318.000 216.200 C 317.739 216.361,317.600 227.330,317.600 247.800 C 317.600 268.270,317.461 279.239,317.200 279.400 C 316.980 279.536,316.800 280.256,316.800 281.000 C 316.800 281.744,316.620 282.464,316.400 282.600 C 316.180 282.736,316.000 283.467,316.000 284.224 C 316.000 284.981,315.820 285.600,315.600 285.600 C 315.380 285.600,315.200 286.039,315.200 286.576 C 315.200 287.113,315.020 287.664,314.800 287.800 C 314.580 287.936,314.400 288.397,314.400 288.824 C 314.400 289.251,314.220 289.600,314.000 289.600 C 313.780 289.600,313.600 289.960,313.600 290.400 C 313.600 290.840,313.420 291.200,313.200 291.200 C 312.980 291.200,312.800 291.560,312.800 292.000 C 312.800 292.440,312.620 292.800,312.400 292.800 C 312.180 292.800,312.000 292.986,312.000 293.213 C 312.000 294.835,301.001 307.600,299.604 307.600 C 299.363 307.600,298.828 307.915,298.414 308.300 C 298.001 308.685,296.613 309.540,295.331 310.200 C 294.049 310.860,292.940 311.535,292.867 311.700 C 292.793 311.865,292.388 312.000,291.967 312.000 C 291.545 312.000,291.200 312.180,291.200 312.400 C 291.200 312.620,290.840 312.800,290.400 312.800 C 289.960 312.800,289.600 312.980,289.600 313.200 C 289.600 313.420,289.060 313.600,288.400 313.600 C 287.740 313.600,287.200 313.760,287.200 313.956 C 287.200 314.291,286.278 314.517,282.697 315.058 C 281.871 315.182,281.095 315.445,280.974 315.642 C 280.852 315.839,279.233 316.000,277.376 316.000 C 275.392 316.000,274.000 316.165,274.000 316.400 C 274.000 316.637,272.533 316.800,270.400 316.800 C 268.267 316.800,266.800 316.963,266.800 317.200 C 266.800 317.420,266.260 317.600,265.600 317.600 C 264.940 317.600,264.400 317.780,264.400 318.000 C 264.400 318.220,264.040 318.400,263.600 318.400 C 263.160 318.400,262.800 318.580,262.800 318.800 C 262.800 319.020,262.440 319.200,262.000 319.200 C 261.560 319.200,261.200 319.380,261.200 319.600 C 261.200 319.820,261.005 320.000,260.766 320.000 C 260.357 320.000,252.800 327.393,252.800 327.793 C 252.800 327.896,251.630 329.179,250.200 330.645 C 248.770 332.111,247.600 333.456,247.600 333.635 C 247.600 333.920,244.162 337.649,240.902 340.899 C 236.300 345.487,230.718 350.768,229.591 351.600 C 227.952 352.810,224.800 356.015,224.800 356.472 C 224.800 356.652,224.575 356.800,224.300 356.800 C 224.025 356.801,223.260 357.261,222.600 357.824 C 221.940 358.387,221.040 359.154,220.600 359.529 C 220.160 359.904,219.170 360.655,218.400 361.197 C 217.630 361.739,216.587 362.592,216.082 363.091 C 215.577 363.591,214.998 364.000,214.795 364.000 C 214.592 364.000,213.797 364.630,213.027 365.400 C 212.257 366.170,211.521 366.800,211.392 366.800 C 211.262 366.800,210.581 367.339,209.878 367.998 C 209.175 368.657,208.447 369.197,208.260 369.198 C 208.074 369.199,207.417 369.740,206.800 370.400 C 206.183 371.060,205.480 371.600,205.236 371.600 C 204.992 371.600,204.228 372.140,203.537 372.800 C 202.846 373.460,202.038 374.000,201.741 374.000 C 201.443 374.000,201.200 374.153,201.200 374.339 C 201.200 374.526,200.480 375.003,199.600 375.400 C 198.720 375.797,198.000 376.274,198.000 376.461 C 198.000 376.647,197.764 376.800,197.475 376.800 C 197.187 376.800,196.564 377.160,196.092 377.600 C 195.620 378.040,195.046 378.400,194.817 378.400 C 194.588 378.400,194.400 378.550,194.400 378.732 C 194.400 378.915,193.905 379.319,193.300 379.630 C 192.695 379.940,191.909 380.511,191.553 380.897 C 191.197 381.284,190.695 381.600,190.436 381.600 C 190.178 381.600,189.580 381.960,189.108 382.400 C 188.636 382.840,188.013 383.200,187.725 383.200 C 187.436 383.200,187.200 383.380,187.200 383.600 C 187.200 383.820,186.660 384.000,186.000 384.000 C 185.067 384.000,184.800 383.822,184.800 383.200 C 184.800 382.760,184.980 382.400,185.200 382.400 C 185.420 382.400,185.600 382.040,185.600 381.600 C 185.600 381.160,185.780 380.800,186.000 380.800 C 186.220 380.800,186.400 380.564,186.400 380.275 C 186.400 379.986,186.760 379.005,187.200 378.094 C 187.640 377.184,188.000 376.160,188.000 375.819 C 188.000 375.479,188.180 375.200,188.400 375.200 C 188.620 375.200,188.800 374.840,188.800 374.400 C 188.800 373.960,188.980 373.600,189.200 373.600 C 189.420 373.600,189.600 373.328,189.600 372.995 C 189.600 372.662,189.765 372.077,189.966 371.695 C 190.951 369.828,191.600 367.979,191.600 367.040 C 191.600 366.468,191.780 366.000,192.000 366.000 C 192.220 366.000,192.400 365.640,192.400 365.200 C 192.400 364.760,192.580 364.400,192.800 364.400 C 193.020 364.400,193.200 363.860,193.200 363.200 C 193.200 362.540,193.380 362.000,193.600 362.000 C 193.820 362.000,194.000 361.638,194.000 361.195 C 194.000 360.752,194.180 360.032,194.400 359.595 C 194.620 359.158,194.980 358.442,195.200 358.005 C 195.420 357.568,195.600 356.848,195.600 356.405 C 195.600 355.962,195.780 355.600,196.000 355.600 C 196.220 355.600,196.400 355.161,196.400 354.624 C 196.400 354.087,196.580 353.536,196.800 353.400 C 197.020 353.264,197.200 352.634,197.200 352.000 C 197.200 351.366,197.380 350.736,197.600 350.600 C 197.820 350.464,198.000 349.823,198.000 349.176 C 198.000 348.529,198.180 348.000,198.400 348.000 C 198.620 348.000,198.800 347.460,198.800 346.800 C 198.800 346.140,198.980 345.600,199.200 345.600 C 199.420 345.600,199.600 344.880,199.600 344.000 C 199.600 343.120,199.780 342.400,200.000 342.400 C 200.220 342.400,200.400 341.770,200.400 341.000 C 200.400 340.230,200.580 339.600,200.800 339.600 C 201.020 339.600,201.200 338.880,201.200 338.000 C 201.200 337.120,201.380 336.400,201.600 336.400 C 201.843 336.400,202.000 334.608,202.000 331.824 C 202.000 329.204,201.829 327.142,201.600 327.000 C 201.380 326.864,201.200 326.313,201.200 325.776 C 201.200 325.239,201.020 324.800,200.800 324.800 C 200.580 324.800,200.400 324.551,200.400 324.246 C 200.400 323.470,195.397 318.400,194.631 318.400 C 194.284 318.400,194.000 318.220,194.000 318.000 C 194.000 317.780,193.651 317.600,193.224 317.600 C 192.797 317.600,192.336 317.420,192.200 317.200 C 192.037 316.936,168.929 316.800,124.176 316.800 C 79.259 316.800,56.400 316.665,56.400 316.400 C 56.400 316.165,55.008 316.000,53.024 316.000 C 51.167 316.000,49.548 315.839,49.426 315.642 C 49.305 315.445,48.529 315.182,47.703 315.058 C 44.122 314.517,43.200 314.291,43.200 313.956 C 43.200 313.760,42.885 313.601,42.500 313.603 C 41.873 313.606,35.293 310.532,34.800 310.006 C 34.690 309.888,33.925 309.438,33.100 309.005 C 32.275 308.572,31.600 308.079,31.600 307.909 C 31.600 307.739,31.318 307.600,30.974 307.600 C 30.630 307.600,29.505 306.736,28.474 305.679 C 27.443 304.623,26.285 303.639,25.900 303.492 C 25.515 303.345,25.200 303.031,25.200 302.794 C 25.200 302.557,24.795 301.948,24.300 301.441 C 22.819 299.921,21.694 298.523,21.178 297.559 C 20.911 297.059,20.356 296.290,19.946 295.850 C 19.536 295.409,19.200 294.813,19.200 294.525 C 19.200 294.236,19.020 294.000,18.800 294.000 C 18.580 294.000,18.400 293.730,18.400 293.400 C 18.400 293.070,18.220 292.800,18.000 292.800 C 17.780 292.800,17.600 292.440,17.600 292.000 C 17.600 291.560,17.420 291.200,17.200 291.200 C 16.980 291.200,16.800 290.840,16.800 290.400 C 16.800 289.960,16.620 289.600,16.400 289.600 C 16.180 289.600,16.000 289.240,16.000 288.800 C 16.000 288.360,15.820 288.000,15.600 288.000 C 15.380 288.000,15.200 287.460,15.200 286.800 C 15.200 286.140,15.020 285.600,14.800 285.600 C 14.580 285.600,14.400 285.071,14.400 284.424 C 14.400 283.777,14.220 283.136,14.000 283.000 C 13.780 282.864,13.600 282.054,13.600 281.200 C 13.600 280.346,13.420 279.536,13.200 279.400 C 12.980 279.264,12.800 277.554,12.800 275.600 C 12.800 273.646,12.620 271.936,12.400 271.800 C 11.846 271.457,11.846 126.800,12.400 126.800 C 12.638 126.800,12.800 125.275,12.800 123.024 C 12.800 120.937,12.979 119.137,13.200 119.000 C 13.420 118.864,13.600 117.953,13.600 116.976 C 13.600 115.999,13.780 115.200,14.000 115.200 C 14.220 115.200,14.400 114.660,14.400 114.000 C 14.400 113.340,14.580 112.800,14.800 112.800 C 15.020 112.800,15.200 112.260,15.200 111.600 C 15.200 110.940,15.380 110.400,15.600 110.400 C 15.820 110.400,16.000 110.040,16.000 109.600 C 16.000 109.160,16.180 108.800,16.400 108.800 C 16.620 108.800,16.800 108.440,16.800 108.000 C 16.800 107.560,16.980 107.200,17.200 107.200 C 17.420 107.200,17.600 106.840,17.600 106.400 C 17.600 105.960,17.780 105.600,18.000 105.600 C 18.220 105.600,18.400 105.330,18.400 105.000 C 18.400 104.670,18.580 104.400,18.800 104.400 C 19.020 104.400,19.200 104.040,19.200 103.600 C 19.200 103.160,19.350 102.800,19.532 102.800 C 19.715 102.800,20.120 102.305,20.432 101.700 C 20.745 101.095,21.409 100.183,21.908 99.674 C 22.407 99.165,23.126 98.265,23.505 97.674 C 24.851 95.576,27.067 93.200,27.678 93.200 C 27.875 93.200,28.470 92.795,28.999 92.300 C 30.447 90.946,30.957 90.557,32.025 89.994 C 32.561 89.712,33.090 89.372,33.200 89.240 C 33.717 88.619,39.557 85.600,40.241 85.600 C 40.548 85.600,40.800 85.420,40.800 85.200 C 40.800 84.980,41.239 84.800,41.776 84.800 C 42.313 84.800,42.864 84.620,43.000 84.400 C 43.136 84.180,43.777 84.000,44.424 84.000 C 45.071 84.000,45.600 83.820,45.600 83.600 C 45.600 83.380,46.219 83.200,46.976 83.200 C 47.733 83.200,48.464 83.020,48.600 82.800 C 48.736 82.580,50.007 82.400,51.424 82.400 C 52.875 82.400,54.000 82.225,54.000 82.000 C 54.000 81.734,91.333 81.600,165.200 81.600 C 239.067 81.600,276.400 81.734,276.400 82.000 C 276.400 82.225,277.525 82.400,278.976 82.400 C 280.393 82.400,281.664 82.580,281.800 82.800 C 281.936 83.020,282.667 83.200,283.424 83.200 C 284.181 83.200,284.800 83.380,284.800 83.600 C 284.800 83.820,285.329 84.000,285.976 84.000 C 286.623 84.000,287.264 84.180,287.400 84.400 C 287.536 84.620,288.087 84.800,288.624 84.800 C 289.161 84.800,289.600 84.980,289.600 85.200 C 289.600 85.420,289.852 85.600,290.159 85.600 C 290.843 85.600,296.683 88.619,297.200 89.240 C 297.310 89.372,297.839 89.712,298.375 89.994 C 299.443 90.557,299.953 90.946,301.401 92.300 C 301.930 92.795,302.517 93.200,302.704 93.200 C 303.182 93.200,306.000 95.830,306.000 96.276 C 306.000 96.478,306.629 97.354,307.398 98.222 C 309.459 100.550,309.600 100.734,309.600 101.108 C 309.600 101.295,309.925 101.798,310.322 102.225 C 310.720 102.651,311.303 103.585,311.620 104.300 C 311.936 105.015,312.331 105.600,312.498 105.600 C 312.664 105.600,312.800 105.960,312.800 106.400 C 312.800 106.840,312.980 107.200,313.200 107.200 C 313.420 107.200,313.600 107.560,313.600 108.000 C 313.600 108.440,313.780 108.800,314.000 108.800 C 314.220 108.800,314.400 109.160,314.400 109.600 C 314.400 110.040,314.580 110.400,314.800 110.400 C 315.020 110.400,315.200 110.940,315.200 111.600 C 315.200 112.260,315.380 112.800,315.600 112.800 C 315.820 112.800,316.000 113.329,316.000 113.976 C 316.000 114.623,316.180 115.264,316.400 115.400 C 316.620 115.536,316.800 116.346,316.800 117.200 C 316.800 118.054,316.980 118.864,317.200 119.000 C 317.462 119.162,317.600 131.396,317.600 154.400 C 317.600 177.404,317.738 189.638,318.000 189.800 C 318.220 189.936,318.400 190.577,318.400 191.224 C 318.400 191.871,318.580 192.400,318.800 192.400 C 319.020 192.400,319.200 192.745,319.200 193.166 C 319.200 193.633,319.669 194.141,320.400 194.464 C 321.060 194.756,321.600 195.131,321.600 195.298 C 321.600 196.039,327.225 195.608,328.092 194.800 C 328.564 194.360,329.187 194.000,329.475 194.000 C 329.764 194.000,330.000 193.640,330.000 193.200 C 330.000 192.760,330.180 192.400,330.400 192.400 C 330.664 192.400,330.800 179.533,330.800 154.600 C 330.800 129.667,330.664 116.800,330.400 116.800 C 330.180 116.800,330.000 115.900,330.000 114.800 C 330.000 113.700,329.820 112.800,329.600 112.800 C 329.380 112.800,329.200 112.181,329.200 111.424 C 329.200 110.667,329.020 109.936,328.800 109.800 C 328.580 109.664,328.400 109.113,328.400 108.576 C 328.400 108.039,328.220 107.600,328.000 107.600 C 327.780 107.600,327.600 107.060,327.600 106.400 C 327.600 105.740,327.420 105.200,327.200 105.200 C 326.980 105.200,326.800 104.840,326.800 104.400 C 326.800 103.960,326.620 103.600,326.400 103.600 C 326.180 103.600,326.000 103.161,326.000 102.624 C 326.000 102.087,325.840 101.548,325.644 101.427 C 325.449 101.306,325.164 100.713,325.013 100.108 C 324.861 99.503,324.613 98.916,324.463 98.804 C 324.312 98.692,323.758 97.745,323.232 96.700 C 322.705 95.655,322.123 94.800,321.937 94.800 C 321.752 94.800,321.600 94.558,321.600 94.262 C 321.600 93.966,321.240 93.398,320.800 93.000 C 320.360 92.602,320.000 92.119,320.000 91.927 C 320.000 91.736,319.190 90.769,318.200 89.779 C 317.210 88.789,316.400 87.825,316.400 87.636 C 316.400 87.179,312.364 83.200,311.901 83.200 C 311.701 83.200,310.846 82.480,310.000 81.600 C 309.154 80.720,308.284 80.000,308.065 80.000 C 307.846 80.000,307.607 79.855,307.533 79.677 C 307.341 79.209,303.735 76.800,303.228 76.800 C 302.993 76.800,302.800 76.655,302.800 76.477 C 302.800 76.123,300.012 74.800,299.266 74.800 C 299.010 74.800,298.800 74.620,298.800 74.400 C 298.800 74.180,298.451 74.000,298.024 74.000 C 297.597 74.000,297.136 73.820,297.000 73.600 C 296.864 73.380,296.313 73.200,295.776 73.200 C 295.239 73.200,294.800 73.020,294.800 72.800 C 294.800 72.580,294.451 72.400,294.024 72.400 C 293.597 72.400,293.136 72.220,293.000 72.000 C 292.864 71.780,292.223 71.600,291.576 71.600 C 290.929 71.600,290.400 71.420,290.400 71.200 C 290.400 70.980,289.871 70.800,289.224 70.800 C 288.577 70.800,287.936 70.620,287.800 70.400 C 287.664 70.180,286.753 70.000,285.776 70.000 C 284.799 70.000,284.000 69.820,284.000 69.600 C 284.000 69.367,282.667 69.200,280.800 69.200 C 278.933 69.200,277.600 69.033,277.600 68.800 C 277.600 68.534,244.800 68.400,180.000 68.400 L 82.400 68.400 82.400 60.624 C 82.400 55.871,82.556 52.751,82.800 52.600 C 83.020 52.464,83.200 51.654,83.200 50.800 C 83.200 49.946,83.380 49.136,83.600 49.000 C 83.820 48.864,84.000 48.223,84.000 47.576 C 84.000 46.929,84.180 46.400,84.400 46.400 C 84.620 46.400,84.800 45.860,84.800 45.200 C 84.800 44.540,84.980 44.000,85.200 44.000 C 85.420 44.000,85.600 43.640,85.600 43.200 C 85.600 42.760,85.780 42.400,86.000 42.400 C 86.220 42.400,86.400 42.040,86.400 41.600 C 86.400 41.160,86.580 40.800,86.800 40.800 C 87.020 40.800,87.200 40.440,87.200 40.000 C 87.200 39.560,87.336 39.200,87.502 39.200 C 87.669 39.200,88.064 38.615,88.380 37.900 C 88.697 37.185,89.280 36.251,89.678 35.825 C 90.075 35.398,90.400 34.895,90.400 34.708 C 90.400 34.313,90.889 33.693,92.700 31.792 C 93.415 31.041,94.000 30.286,94.000 30.113 C 94.001 29.584,95.864 27.600,96.360 27.600 C 96.617 27.600,97.441 27.015,98.192 26.300 C 100.014 24.565,100.476 24.200,101.625 23.594 C 102.161 23.312,102.690 22.972,102.800 22.840 C 102.910 22.708,103.430 22.358,103.955 22.062 C 104.480 21.767,105.520 21.182,106.267 20.762 C 107.014 20.343,107.889 20.000,108.212 20.000 C 108.535 20.000,108.800 19.820,108.800 19.600 C 108.800 19.380,109.160 19.200,109.600 19.200 C 110.040 19.200,110.400 19.020,110.400 18.800 C 110.400 18.580,110.940 18.400,111.600 18.400 C 112.260 18.400,112.800 18.220,112.800 18.000 C 112.800 17.780,113.340 17.600,114.000 17.600 C 114.660 17.600,115.200 17.420,115.200 17.200 C 115.200 16.980,115.920 16.800,116.800 16.800 C 117.680 16.800,118.400 16.620,118.400 16.400 C 118.400 16.174,119.533 16.000,121.000 16.000 C 122.467 16.000,123.600 15.826,123.600 15.600 C 123.600 15.335,140.604 15.200,173.813 15.200 L 224.027 15.200 225.413 13.813 C 226.176 13.051,226.800 12.151,226.800 11.813 C 226.800 11.476,226.980 11.200,227.200 11.200 C 228.000 11.200,227.666 6.437,226.800 5.508 C 226.360 5.036,226.000 4.413,226.000 4.125 C 226.000 3.836,225.730 3.600,225.400 3.600 C 225.070 3.600,224.800 3.420,224.800 3.200 C 224.800 2.980,224.260 2.800,223.600 2.800 C 222.940 2.800,222.400 2.620,222.400 2.400 C 222.400 2.135,205.600 2.000,172.800 2.000 C 140.000 2.000,123.200 2.135,123.200 2.400 M107.200 109.603 C 104.121 110.062,102.800 110.435,102.800 110.847 C 102.800 111.041,102.440 111.200,102.000 111.200 C 101.560 111.200,101.200 111.350,101.200 111.532 C 101.200 111.715,100.705 112.119,100.100 112.431 C 98.748 113.126,96.400 115.568,96.400 116.278 C 96.400 116.565,96.220 116.800,96.000 116.800 C 95.780 116.800,95.600 117.160,95.600 117.600 C 95.600 118.040,95.420 118.400,95.200 118.400 C 94.980 118.400,94.800 118.760,94.800 119.200 C 94.800 119.640,94.620 120.000,94.400 120.000 C 94.180 120.000,94.000 120.709,94.000 121.576 C 94.000 122.443,93.820 123.264,93.600 123.400 C 93.347 123.556,93.200 128.196,93.200 136.000 C 93.200 143.804,93.347 148.444,93.600 148.600 C 93.820 148.736,94.000 149.557,94.000 150.424 C 94.000 151.291,94.180 152.000,94.400 152.000 C 94.620 152.000,94.800 152.234,94.800 152.520 C 94.800 153.256,95.741 155.193,96.100 155.197 C 96.265 155.199,96.400 155.441,96.400 155.735 C 96.400 156.361,99.747 159.600,100.393 159.600 C 100.635 159.600,101.220 159.960,101.692 160.400 C 102.164 160.840,102.967 161.200,103.475 161.200 C 103.984 161.200,104.400 161.380,104.400 161.600 C 104.400 161.820,105.120 162.000,106.000 162.000 C 106.880 162.000,107.600 162.180,107.600 162.400 C 107.600 162.651,110.067 162.800,114.200 162.800 L 120.800 162.800 120.800 169.400 C 120.800 173.533,120.949 176.000,121.200 176.000 C 121.420 176.000,121.600 176.276,121.600 176.613 C 121.600 177.409,124.191 180.000,124.987 180.000 C 125.324 180.000,125.600 180.180,125.600 180.400 C 125.600 180.635,127.000 180.800,129.000 180.800 C 131.000 180.800,132.400 180.635,132.400 180.400 C 132.400 180.180,132.760 180.000,133.200 180.000 C 133.640 180.000,134.000 179.850,134.000 179.668 C 134.000 179.485,134.495 179.080,135.100 178.768 C 135.705 178.455,136.677 177.705,137.260 177.100 C 137.844 176.495,138.474 175.996,138.660 175.991 C 138.847 175.987,139.540 175.335,140.200 174.543 C 140.860 173.751,141.985 172.501,142.700 171.765 C 143.415 171.029,144.000 170.190,144.000 169.902 C 144.000 169.613,144.360 169.117,144.800 168.800 C 145.240 168.483,145.600 167.903,145.600 167.512 C 145.600 167.120,145.780 166.800,146.000 166.800 C 146.220 166.800,146.400 166.440,146.400 166.000 C 146.400 165.560,146.580 165.200,146.800 165.200 C 147.020 165.200,147.200 164.840,147.200 164.400 C 147.200 163.960,147.380 163.600,147.600 163.600 C 147.820 163.600,148.000 163.240,148.000 162.800 C 148.000 162.360,148.180 162.000,148.400 162.000 C 148.620 162.000,148.800 161.460,148.800 160.800 C 148.800 160.140,148.980 159.600,149.200 159.600 C 149.420 159.600,149.600 158.970,149.600 158.200 C 149.600 157.430,149.780 156.800,150.000 156.800 C 150.222 156.800,150.400 155.741,150.400 154.424 C 150.400 153.117,150.580 151.936,150.800 151.800 C 151.054 151.643,151.200 146.396,151.200 137.376 C 151.200 128.192,151.059 123.200,150.800 123.200 C 150.580 123.200,150.400 122.480,150.400 121.600 C 150.400 120.720,150.220 120.000,150.000 120.000 C 149.780 120.000,149.600 119.640,149.600 119.200 C 149.600 118.760,149.420 118.400,149.200 118.400 C 148.980 118.400,148.800 118.040,148.800 117.600 C 148.800 117.160,148.620 116.800,148.400 116.800 C 148.180 116.800,148.000 116.552,148.000 116.248 C 148.000 115.509,145.092 112.547,144.038 112.212 C 143.577 112.066,143.200 111.778,143.200 111.573 C 143.200 111.368,142.840 111.200,142.400 111.200 C 141.960 111.200,141.600 111.020,141.600 110.800 C 141.600 110.580,141.276 110.400,140.880 110.400 C 140.484 110.400,139.935 110.175,139.660 109.900 C 139.070 109.310,110.895 109.052,107.200 109.603 M172.000 109.603 C 168.921 110.062,167.600 110.435,167.600 110.847 C 167.600 111.041,167.240 111.200,166.800 111.200 C 166.360 111.200,166.000 111.338,166.000 111.506 C 166.000 111.674,165.295 112.247,164.434 112.779 C 163.573 113.311,162.448 114.429,161.934 115.263 C 161.420 116.096,160.865 116.783,160.700 116.789 C 160.535 116.795,160.400 117.160,160.400 117.600 C 160.400 118.040,160.220 118.400,160.000 118.400 C 159.780 118.400,159.600 118.724,159.600 119.120 C 159.600 119.516,159.375 120.065,159.100 120.340 C 158.408 121.032,158.377 150.218,159.066 151.639 C 159.323 152.168,159.772 153.185,160.064 153.900 C 160.356 154.615,160.731 155.200,160.898 155.200 C 161.064 155.200,161.200 155.404,161.200 155.653 C 161.200 156.352,164.613 159.600,165.347 159.600 C 165.706 159.600,166.000 159.780,166.000 160.000 C 166.000 160.220,166.270 160.400,166.600 160.400 C 166.930 160.400,167.200 160.580,167.200 160.800 C 167.200 161.020,167.650 161.200,168.200 161.200 C 168.750 161.200,169.200 161.380,169.200 161.600 C 169.200 161.820,169.920 162.000,170.800 162.000 C 171.680 162.000,172.400 162.180,172.400 162.400 C 172.400 162.651,174.867 162.800,179.000 162.800 L 185.600 162.800 185.600 169.400 C 185.600 173.533,185.749 176.000,186.000 176.000 C 186.220 176.000,186.400 176.276,186.400 176.613 C 186.400 177.409,188.991 180.000,189.787 180.000 C 190.124 180.000,190.400 180.180,190.400 180.400 C 190.400 180.635,191.800 180.800,193.800 180.800 C 195.800 180.800,197.200 180.635,197.200 180.400 C 197.200 180.180,197.560 180.000,198.000 180.000 C 198.440 180.000,198.800 179.850,198.800 179.668 C 198.800 179.485,199.295 179.080,199.900 178.768 C 200.505 178.455,201.477 177.705,202.060 177.100 C 202.644 176.495,203.274 176.000,203.460 176.000 C 203.983 176.000,208.499 170.880,209.135 169.566 C 209.446 168.925,209.857 168.400,210.050 168.400 C 210.242 168.400,210.400 168.040,210.400 167.600 C 210.400 167.160,210.535 166.799,210.700 166.797 C 211.059 166.793,212.000 164.856,212.000 164.120 C 212.000 163.834,212.180 163.600,212.400 163.600 C 212.620 163.600,212.800 163.240,212.800 162.800 C 212.800 162.360,212.980 162.000,213.200 162.000 C 213.420 162.000,213.600 161.460,213.600 160.800 C 213.600 160.140,213.780 159.600,214.000 159.600 C 214.220 159.600,214.400 159.071,214.400 158.424 C 214.400 157.777,214.580 157.136,214.800 157.000 C 215.020 156.864,215.200 155.683,215.200 154.376 C 215.200 153.059,215.378 152.000,215.600 152.000 C 215.859 152.000,216.000 146.933,216.000 137.600 C 216.000 128.267,215.859 123.200,215.600 123.200 C 215.380 123.200,215.200 122.480,215.200 121.600 C 215.200 120.720,215.020 120.000,214.800 120.000 C 214.580 120.000,214.400 119.766,214.400 119.480 C 214.400 118.744,213.459 116.807,213.100 116.803 C 212.935 116.801,212.800 116.565,212.800 116.278 C 212.800 115.025,209.267 112.058,205.800 110.400 C 203.661 109.377,177.635 108.763,172.000 109.603 M134.772 122.900 C 136.341 123.449,137.200 124.111,137.200 124.771 C 137.200 125.007,137.380 125.200,137.600 125.200 C 137.858 125.200,138.000 129.667,138.000 137.800 C 138.000 145.933,137.858 150.400,137.600 150.400 C 137.380 150.400,137.200 151.300,137.200 152.400 C 137.200 153.500,137.020 154.400,136.800 154.400 C 136.580 154.400,136.400 154.940,136.400 155.600 C 136.400 156.260,136.220 156.800,136.000 156.800 C 135.780 156.800,135.600 157.160,135.600 157.600 C 135.600 158.040,135.441 158.400,135.247 158.400 C 135.052 158.400,134.759 158.805,134.596 159.300 L 134.298 160.200 134.121 159.300 C 134.024 158.805,133.777 158.400,133.572 158.400 C 133.367 158.400,133.200 157.680,133.200 156.800 C 133.200 155.920,133.020 155.200,132.800 155.200 C 132.580 155.200,132.400 154.924,132.400 154.587 C 132.400 153.791,129.809 151.200,129.013 151.200 C 128.676 151.200,128.400 151.020,128.400 150.800 C 128.400 150.580,128.040 150.400,127.600 150.400 C 127.160 150.400,126.800 150.220,126.800 150.000 C 126.800 149.746,123.667 149.600,118.200 149.600 C 112.733 149.600,109.600 149.454,109.600 149.200 C 109.600 148.980,109.327 148.800,108.994 148.800 C 107.140 148.800,106.803 146.814,106.801 135.886 C 106.800 124.485,106.877 124.099,109.362 123.009 C 111.075 122.257,132.671 122.165,134.772 122.900 M199.400 122.800 C 199.536 123.020,199.919 123.200,200.252 123.200 C 200.951 123.200,202.000 124.143,202.000 124.771 C 202.000 125.007,202.180 125.200,202.400 125.200 C 202.658 125.200,202.800 129.667,202.800 137.800 C 202.800 145.933,202.658 150.400,202.400 150.400 C 202.180 150.400,202.000 151.300,202.000 152.400 C 202.000 153.500,201.820 154.400,201.600 154.400 C 201.380 154.400,201.200 154.940,201.200 155.600 C 201.200 156.260,201.020 156.800,200.800 156.800 C 200.580 156.800,200.400 157.160,200.400 157.600 C 200.400 158.040,200.241 158.400,200.047 158.400 C 199.852 158.400,199.559 158.805,199.396 159.300 L 199.098 160.200 198.921 159.300 C 198.824 158.805,198.577 158.400,198.372 158.400 C 198.167 158.400,198.000 157.680,198.000 156.800 C 198.000 155.920,197.820 155.200,197.600 155.200 C 197.380 155.200,197.200 154.924,197.200 154.587 C 197.200 153.791,194.609 151.200,193.813 151.200 C 193.476 151.200,193.200 151.020,193.200 150.800 C 193.200 150.580,192.840 150.400,192.400 150.400 C 191.960 150.400,191.600 150.220,191.600 150.000 C 191.600 149.746,188.467 149.600,183.000 149.600 C 177.533 149.600,174.400 149.454,174.400 149.200 C 174.400 148.980,174.207 148.800,173.971 148.800 C 173.468 148.800,172.797 148.115,172.100 146.890 C 171.509 145.851,171.369 125.200,171.953 125.200 C 172.148 125.200,172.399 124.848,172.511 124.418 C 172.962 122.694,174.644 122.467,187.276 122.433 C 194.798 122.412,199.243 122.547,199.400 122.800 M59.891 197.629 C 59.071 198.305,58.400 199.205,58.400 199.629 C 58.400 200.053,58.220 200.400,58.000 200.400 C 57.778 200.400,57.600 201.467,57.600 202.800 C 57.600 204.133,57.778 205.200,58.000 205.200 C 58.220 205.200,58.400 205.526,58.400 205.925 C 58.400 206.907,60.441 208.800,61.498 208.800 C 61.968 208.800,62.464 208.980,62.600 209.200 C 62.764 209.465,97.404 209.600,165.224 209.600 C 233.208 209.600,267.600 209.466,267.600 209.200 C 267.600 208.980,268.010 208.800,268.511 208.800 C 272.501 208.800,273.975 201.469,270.653 198.147 L 268.905 196.400 165.144 196.400 L 61.382 196.400 59.891 197.629 M62.000 223.600 C 62.000 223.820,61.665 224.000,61.255 224.000 C 60.291 224.000,58.400 225.891,58.400 226.855 C 58.400 227.265,58.220 227.600,58.000 227.600 C 57.780 227.600,57.600 228.579,57.600 229.776 C 57.600 230.973,57.780 232.064,58.000 232.200 C 58.220 232.336,58.400 232.765,58.400 233.154 C 58.400 233.936,59.982 235.600,60.726 235.600 C 60.987 235.600,61.200 235.780,61.200 236.000 C 61.200 236.266,96.056 236.400,164.968 236.400 L 268.737 236.400 270.568 234.568 L 272.400 232.737 272.400 229.847 C 272.400 226.800,270.794 224.000,269.046 224.000 C 268.691 224.000,268.400 223.820,268.400 223.600 C 268.400 223.334,233.733 223.200,165.200 223.200 C 96.667 223.200,62.000 223.334,62.000 223.600 M60.620 250.924 C 59.439 251.644,58.428 252.916,58.413 253.700 C 58.406 254.085,58.220 254.400,58.000 254.400 C 57.780 254.400,57.600 255.390,57.600 256.600 C 57.600 257.810,57.780 258.800,58.000 258.800 C 58.220 258.800,58.400 259.141,58.400 259.558 C 58.400 260.594,60.534 262.800,61.537 262.800 C 61.986 262.800,62.464 262.980,62.600 263.200 C 62.764 263.465,97.404 263.600,165.224 263.600 C 233.208 263.600,267.600 263.466,267.600 263.200 C 267.600 262.980,268.005 262.800,268.500 262.800 C 269.596 262.799,271.600 261.153,271.600 260.253 C 271.600 259.894,271.780 259.600,272.000 259.600 C 272.231 259.600,272.400 258.333,272.400 256.600 C 272.400 254.950,272.265 253.599,272.100 253.597 C 271.935 253.596,271.493 253.056,271.119 252.397 C 270.744 251.739,270.159 251.200,269.819 251.200 C 269.478 251.200,269.200 251.020,269.200 250.800 C 269.200 250.177,61.641 250.300,60.620 250.924 M112.600 277.200 C 112.464 277.420,112.037 277.600,111.651 277.600 C 109.800 277.600,108.607 279.838,108.491 283.526 C 108.372 287.323,108.547 287.733,111.062 289.509 L 112.323 290.400 164.967 290.400 C 206.338 290.400,217.802 290.293,218.505 289.900 C 220.230 288.936,221.600 287.442,221.600 286.525 C 221.600 286.016,221.780 285.600,222.000 285.600 C 222.220 285.600,222.400 284.801,222.400 283.824 C 222.400 282.847,222.220 281.936,222.000 281.800 C 221.780 281.664,221.600 281.203,221.600 280.776 C 221.600 280.349,221.420 280.000,221.200 280.000 C 220.980 280.000,220.800 279.742,220.800 279.427 C 220.800 279.112,220.440 278.740,220.000 278.600 C 219.560 278.460,219.200 278.178,219.200 277.973 C 219.200 277.768,218.851 277.600,218.424 277.600 C 217.997 277.600,217.536 277.420,217.400 277.200 C 217.058 276.647,112.942 276.647,112.600 277.200 " stroke="none" fill="#04ccfc" fill-rule="evenodd"></path><path id="path1" d="" stroke="none" fill="#08ccfc" fill-rule="evenodd"></path><path id="path2" d="" stroke="none" fill="#08ccfc" fill-rule="evenodd"></path><path id="path3" d="" stroke="none" fill="#08ccfc" fill-rule="evenodd"></path><path id="path4" d="" stroke="none" fill="#08ccfc" fill-rule="evenodd"></path></g></svg>